<svg xmlns="http://www.w3.org/2000/svg" xmlns:xlink="http://www.w3.org/1999/xlink" width="500" zoomAndPan="magnify" viewBox="0 0 375 374.999991" height="500" preserveAspectRatio="xMidYMid meet" version="1.0"><defs><clipPath id="14d9479d50"><path d="M 308 71 L 328 71 L 328 77 L 308 77 Z M 308 71 " clip-rule="nonzero"/></clipPath><clipPath id="cab66458cc"><path d="M -23.699219 165.550781 L 331.191406 31.117188 L 398.675781 209.265625 L 43.785156 343.699219 Z M -23.699219 165.550781 " clip-rule="nonzero"/></clipPath><clipPath id="d18f2482c9"><path d="M -23.699219 165.550781 L 331.191406 31.117188 L 398.675781 209.265625 L 43.785156 343.699219 Z M -23.699219 165.550781 " clip-rule="nonzero"/></clipPath><clipPath id="46ba5fd408"><path d="M 40 295 L 69 295 L 69 325 L 40 325 Z M 40 295 " clip-rule="nonzero"/></clipPath><clipPath id="8bdfcdee37"><path d="M -23.699219 165.550781 L 331.191406 31.117188 L 398.675781 209.265625 L 43.785156 343.699219 Z M -23.699219 165.550781 " clip-rule="nonzero"/></clipPath><clipPath id="5dc965b499"><path d="M -23.699219 165.550781 L 331.191406 31.117188 L 398.675781 209.265625 L 43.785156 343.699219 Z M -23.699219 165.550781 " clip-rule="nonzero"/></clipPath><clipPath id="06838104ff"><path d="M 12 35 L 344 35 L 344 334 L 12 334 Z M 12 35 " clip-rule="nonzero"/></clipPath><clipPath id="3e145d9f73"><path d="M -23.699219 165.550781 L 331.191406 31.117188 L 398.675781 209.265625 L 43.785156 343.699219 Z M -23.699219 165.550781 " clip-rule="nonzero"/></clipPath><clipPath id="ec6b539944"><path d="M -23.699219 165.550781 L 331.191406 31.117188 L 398.675781 209.265625 L 43.785156 343.699219 Z M -23.699219 165.550781 " clip-rule="nonzero"/></clipPath><clipPath id="81226e20a9"><path d="M 206.292969 197.007812 L 329 197.007812 L 329 319 L 206.292969 319 Z M 206.292969 197.007812 " clip-rule="nonzero"/></clipPath></defs><g clip-path="url(#14d9479d50)"><g clip-path="url(#cab66458cc)"><g clip-path="url(#d18f2482c9)"><path fill="#4fa6d6" d="M 308.039062 72.769531 C 307.929688 72.304688 308.609375 72.1875 309.03125 71.960938 C 315.042969 73.515625 323.757812 72.707031 327.90625 76.070312 C 321.269531 75 314.894531 73.347656 308.039062 72.769531 " fill-opacity="1" fill-rule="evenodd"/></g></g></g><g clip-path="url(#46ba5fd408)"><g clip-path="url(#8bdfcdee37)"><g clip-path="url(#5dc965b499)"><path fill="#4fa6d6" d="M 62.074219 312.730469 C 60.722656 310.398438 55.242188 304.5 53.75 303.328125 C 53.285156 302.964844 48.214844 300.15625 46.488281 301.3125 C 44.199219 302.851562 46.152344 305.945312 47.414062 308.324219 C 50.339844 313.835938 58.695312 322.070312 63.945312 321.109375 C 63.800781 318.515625 63.660156 315.484375 62.074219 312.730469 Z M 47.132812 295.007812 C 55.957031 299.742188 65.878906 308.664062 68.3125 321.195312 C 67.015625 325.097656 61.246094 325.636719 58.179688 324.167969 C 51.050781 317.183594 41.96875 314.347656 40.183594 300.671875 C 42.003906 297.882812 42.570312 296.199219 47.132812 295.007812 " fill-opacity="1" fill-rule="evenodd"/></g></g></g><g clip-path="url(#06838104ff)"><g clip-path="url(#3e145d9f73)"><g clip-path="url(#ec6b539944)"><path fill="#4fa6d6" d="M 106.875 289.265625 C 107.710938 291.003906 106.335938 291.742188 107.171875 293.480469 C 108.363281 292.335938 111.539062 290.433594 110.855469 289.484375 C 110.417969 290.1875 108.039062 289.265625 106.875 289.265625 Z M 107.109375 288.742188 C 112.457031 289.6875 118.425781 285.324219 119.214844 280.695312 C 114.753906 279.671875 109.734375 279.890625 105.417969 278.554688 C 106.644531 282.253906 106.222656 285.199219 107.109375 288.742188 Z M 72.3125 328.335938 C 74.230469 326.503906 74.230469 319.714844 73.414062 317.523438 C 70.984375 311.007812 63.527344 301.046875 58.230469 296.863281 C 54.765625 294.140625 48.300781 288.554688 45.453125 288.28125 C 43.566406 288.105469 42.300781 289.484375 40.386719 289.769531 C 30.226562 305.964844 51.421875 320.210938 61.414062 328.136719 C 65.679688 328.132812 68.699219 331.796875 72.3125 328.335938 Z M 158.234375 244.261719 C 159.980469 243.058594 161.203125 241.621094 162.816406 240.355469 C 162.707031 238.929688 159.738281 240.300781 160.589844 239.039062 C 161.773438 238.96875 162.804688 239.234375 164.050781 239.027344 C 165.511719 236.542969 168.808594 234.890625 170.191406 232.375 C 165.238281 232.269531 161.976562 231.265625 157.574219 231.089844 C 158.132812 235.628906 158.78125 240.214844 158.234375 244.261719 Z M 103.347656 297.09375 C 105.179688 287.757812 101.105469 272.730469 95.984375 263.945312 C 95.203125 263.59375 94.136719 263.871094 93.515625 263.148438 C 94.007812 262.984375 94.226562 263.433594 94.796875 263.09375 C 92.765625 257.648438 89.191406 253.359375 84.660156 250.050781 C 71.6875 261.371094 58.648438 272.664062 46.574219 284.390625 C 48.113281 286.324219 50.648438 286.039062 52.933594 286.316406 C 57.242188 289.53125 60.996094 293.980469 65.292969 297.226562 C 68.761719 305.339844 75.699219 310.753906 77.785156 321.0625 C 88.386719 313.867188 95.339844 305.9375 103.347656 297.09375 Z M 157.003906 229.574219 C 161.777344 230.371094 166.460938 231.355469 171.324219 231.945312 C 171.429688 228.953125 171.265625 225.84375 171.339844 222.839844 C 165.964844 222.695312 160.351562 223.070312 155.414062 221.945312 C 155.800781 224.429688 157.289062 227.398438 157.003906 229.574219 Z M 119.988281 271.304688 C 118.550781 261.945312 116.886719 254.546875 112.652344 245.074219 C 106.699219 245.890625 100.335938 241.789062 93.449219 242.390625 C 91.707031 244.222656 89.3125 245.761719 87.636719 247.621094 C 93.675781 253.03125 106.175781 247.832031 112.007812 251.378906 C 104.757812 250.765625 97.011719 251.519531 90.582031 250.835938 C 96.269531 260.058594 108.570312 254.601562 116.769531 258.238281 C 109.472656 258.625 101.746094 256.265625 95.203125 257.3125 C 96.570312 258.699219 97.605469 260.808594 98.636719 262.941406 C 104.964844 263.53125 111.847656 262.890625 117.316406 265.390625 C 110.792969 264.621094 105.824219 264.464844 99.441406 263.933594 C 100.613281 267.710938 104.667969 272.960938 105.273438 278.179688 C 110.460938 277.816406 114.796875 279.347656 119.683594 279.648438 C 119.503906 277.054688 120.304688 274.902344 119.898438 272.207031 C 115.429688 271.199219 108.390625 272.191406 105.34375 270.363281 C 109.734375 269.910156 115.273438 270.433594 119.988281 271.304688 Z M 95.199219 241.296875 C 101.34375 241.363281 106.535156 243.550781 112.367188 244.320312 C 111.605469 242.347656 110.644531 241.921875 109.597656 239.300781 C 104.644531 240.082031 98.289062 236.367188 95.199219 241.296875 Z M 99.40625 237.539062 C 102.242188 237.519531 106.105469 238.910156 108.503906 237.554688 C 105.96875 233.972656 101.636719 233.0625 99.40625 237.539062 Z M 63.140625 250.40625 C 64.957031 248.917969 68.074219 248.019531 69.90625 246.546875 C 68.40625 245.230469 66.328125 245.195312 64.453125 244.714844 C 64.226562 246.707031 63.820312 248.617188 63.140625 250.40625 Z M 201.609375 204.445312 C 205.328125 200.367188 210.605469 196.988281 214.085938 192.792969 C 210.1875 192.847656 206.878906 191.589844 203.128906 191.316406 C 203.910156 196.273438 202.1875 200.101562 201.609375 204.445312 Z M 154.75 221.335938 C 160.523438 221.058594 165.738281 222.035156 171.429688 221.945312 C 170.800781 219.371094 171.066406 215.984375 169.085938 214.605469 C 165.335938 214.230469 156.746094 215.125 153.773438 213.046875 C 159.152344 212.953125 164.148438 213.710938 169.554688 213.5625 C 168.414062 211.160156 168.15625 209.160156 167.496094 206.976562 C 161.1875 207.042969 154.65625 207.597656 148.304688 207.753906 C 151.617188 212.515625 152.625 214.992188 154.75 221.335938 Z M 64.777344 243.292969 C 68.476562 245.882812 77.253906 246.183594 79.648438 240.253906 C 74.988281 238.761719 69.835938 238.34375 64.808594 237.652344 C 65.480469 239.835938 64.84375 241.4375 64.777344 243.292969 Z M 65.136719 236.230469 C 70.234375 237.226562 75.300781 238.289062 80.5 239.070312 C 81.003906 237.097656 82.855469 235.734375 82.707031 233.46875 C 76.664062 233.269531 71.957031 231.6875 65.449219 231.347656 C 65.902344 232.90625 65.441406 234.292969 65.136719 236.230469 Z M 145.765625 255.914062 C 148.375 253.582031 152.6875 250.8125 154.175781 248.398438 C 156.640625 244.402344 155.59375 231.433594 153.335938 224.46875 C 149.933594 213.9375 144.28125 205.535156 137.671875 201.394531 C 126.753906 211.023438 116.277344 220.851562 105.921875 230.738281 C 117.488281 241.082031 124 263.675781 123.332031 277.835938 C 131.191406 270.722656 138.8125 262.121094 145.765625 255.914062 Z M 150.753906 189.074219 C 150.359375 189.730469 150.042969 190.429688 149.8125 191.160156 C 146.296875 192.460938 142.589844 195.957031 140.652344 198.964844 C 147.664062 199.898438 155.636719 198.6875 162.355469 200.269531 C 156.484375 201.421875 148.945312 200.324219 142.503906 200.425781 C 144.296875 202.480469 146.144531 204.421875 147.640625 207.140625 C 154.445312 206.210938 160.914062 206.019531 167.210938 206.222656 C 163.542969 198.371094 159.492188 187.730469 150.753906 189.074219 Z M 33.207031 254.820312 C 31.367188 247.6875 28.925781 237.363281 23.046875 234.851562 C 22.003906 242.933594 27.667969 248.832031 33.207031 254.820312 Z M 84.109375 226.878906 C 83.980469 223.054688 84.96875 219.730469 84.164062 215.597656 C 77.9375 214.542969 71.648438 213.636719 64.871094 213.8125 C 65.710938 215.761719 64.480469 216.78125 65.453125 218.789062 C 70.800781 219.941406 78.429688 219.730469 82.242188 221.957031 C 76.21875 222.308594 71.433594 219.921875 65.273438 220.589844 C 65.179688 221.703125 65.566406 223.023438 65.804688 224.28125 C 72.324219 224.226562 77.871094 226.320312 84.109375 226.878906 Z M 65.714844 225.183594 C 65.90625 226.84375 65.390625 228.183594 65.773438 229.925781 C 71.742188 230.390625 77.136719 232.136719 83.179688 232.425781 C 82.96875 230.550781 84.390625 229.414062 83.351562 227.164062 C 77.117188 227.285156 71.570312 225.890625 65.714844 225.183594 Z M 203.222656 190.417969 C 208.828125 190.273438 215.054688 193.960938 219.425781 188.609375 C 219.605469 186.699219 220.011719 184.894531 219.308594 182.589844 C 214.828125 181.847656 208.015625 182.574219 205.132812 180.597656 C 209.921875 180.882812 214.742188 181.109375 219.640625 181.167969 C 219.972656 178.804688 220.027344 176.320312 219.847656 173.726562 C 213.25 171.875 203.992188 172.21875 199.027344 169.058594 C 205.839844 170.199219 212.601562 171.460938 219.65625 172.066406 C 218.675781 169.636719 218.722656 167.671875 217.976562 165.339844 C 210.695312 162.449219 201.882812 162.953125 194.214844 160.917969 C 198.976562 170.953125 203.214844 180.921875 203.222656 190.417969 Z M 132.789062 201.078125 C 133.867188 200.0625 135.488281 198.816406 135.097656 198.035156 C 137.5 197.550781 141.027344 193.257812 143.128906 190.660156 C 140.347656 190.566406 137.546875 190.511719 135.496094 188.789062 C 138.773438 188.714844 141.519531 189.824219 144.882812 189.566406 C 147.375 186.363281 152.019531 184.820312 153.144531 181.671875 C 146.878906 182.113281 141.003906 181.671875 135.1875 181.117188 C 135.351562 188.496094 131.890625 195.140625 132.789062 201.078125 Z M 300.472656 120.234375 C 302.007812 118.832031 305.457031 118.292969 306.480469 116.660156 C 303.855469 116.328125 301 117.96875 300.472656 120.234375 Z M 16.523438 225.632812 C 17.191406 228.792969 17.027344 234.328125 18.371094 239.652344 C 20.867188 249.546875 32.089844 271.503906 37.210938 261.964844 C 35.070312 261.328125 32.050781 261.054688 30.28125 258.523438 C 29.664062 257.648438 30.011719 256.125 29.367188 254.96875 C 27.582031 251.777344 23.308594 249.300781 21.710938 246.183594 C 19.441406 241.773438 18.101562 235.789062 19.953125 231.261719 C 20.472656 231.445312 23.320312 229.519531 24.640625 229.917969 C 22.992188 225.675781 18.730469 220.429688 16.523438 225.632812 Z M 304.769531 115.578125 C 307.894531 115.855469 314.484375 114.988281 315.75 111.417969 C 311.261719 110.90625 306.507812 110.757812 304.769531 115.578125 Z M 197.167969 208.730469 C 197.023438 204.652344 199.636719 200.578125 200.113281 195.925781 C 201.148438 185.777344 194.699219 162.851562 186.476562 156.492188 C 186.363281 156.269531 186.25 156.0625 185.953125 156.257812 C 175.515625 165.382812 165.167969 176.1875 155.574219 184.648438 C 167.042969 192.746094 176.175781 214.960938 174.535156 228.992188 C 182.488281 222.4375 189.273438 214.34375 197.167969 208.730469 Z M 254.675781 157.070312 C 258.851562 154.347656 262.273438 151.285156 264.546875 147.699219 C 261.453125 147.835938 258.6875 147.234375 256.15625 146.121094 C 259.128906 144.976562 262.621094 148.167969 266.300781 146.605469 C 268.160156 145.8125 272.429688 140.75 271.625 138.957031 C 270.121094 135.617188 260.875 138.5 259.199219 135.871094 C 263.695312 135.414062 267.539062 136.410156 271.667969 136.773438 C 271.222656 134.273438 271.890625 132.273438 271.125 129.621094 C 264.710938 128.054688 257.929688 127.3125 251.019531 126.84375 C 254.84375 136.476562 256.125 147.21875 254.675781 157.070312 Z M 58.507812 253.03125 C 62.765625 238.136719 66.136719 219.699219 56.914062 200.808594 C 56.535156 200.953125 56.34375 200.671875 56.007812 200.714844 C 55.902344 200.496094 55.785156 200.289062 55.492188 200.476562 C 47.109375 205.847656 31.367188 213.992188 20.769531 219.695312 C 30.257812 230.101562 39.996094 246.054688 41.335938 262.566406 C 47.960938 259.378906 52.492188 255.78125 58.507812 253.03125 Z M 309.539062 109.875 C 311.964844 109.832031 314.292969 110.015625 316.601562 110.230469 C 317.207031 106.941406 318.539062 103.984375 317.988281 100.179688 C 314.445312 103.082031 311.976562 106.472656 309.539062 109.875 Z M 200.226562 144.789062 C 196.207031 145.898438 193.300781 150.792969 190.589844 153.632812 C 194.476562 154.066406 199.023438 154.09375 203.433594 154.398438 C 207.617188 154.683594 212.820312 154.261719 214.964844 157.390625 C 207.183594 155.21875 198.480469 155.164062 190.878906 154.394531 C 191.628906 157.140625 192.992188 158.511719 194.070312 160.542969 C 202.101562 160.855469 211.15625 162.570312 218.011719 163.164062 C 216.515625 157.914062 214.121094 151.773438 211.179688 146.265625 C 207.746094 146.757812 203.828125 143.796875 200.226562 144.789062 Z M 69.777344 192.472656 C 72.710938 193.683594 78.019531 193.148438 79.027344 196.324219 C 71.933594 196.070312 64.414062 191.953125 59.890625 198.382812 C 66.457031 199.835938 75.679688 199.113281 80.65625 201.773438 C 73.371094 200.410156 66.824219 201.71875 59.941406 199.660156 C 61.070312 201.335938 62.25 202.902344 62.992188 205.429688 C 69.191406 206.5625 77.585938 206.480469 81.871094 209.542969 C 75.890625 208.40625 69.699219 207.742188 63.566406 206.949219 C 64.414062 208.792969 63.6875 209.933594 64.535156 211.78125 C 70.785156 213.226562 77.691406 213.234375 84.113281 214.316406 C 84.203125 206.8125 82.394531 196.804688 78.195312 188.414062 C 74.496094 189.621094 71.660156 191.269531 69.777344 192.472656 Z M 201.222656 143.976562 C 204.128906 143.570312 207.757812 145.25 209.941406 144.136719 C 209.085938 142.816406 206.648438 140.136719 204.148438 140.273438 C 203.402344 141.613281 201.429688 142.398438 201.222656 143.976562 Z M 134.730469 173.0625 C 140.800781 173.757812 147.746094 172.523438 153.125 174.753906 C 147.042969 174.464844 141.460938 174.507812 134.78125 174.339844 C 135.242188 176.535156 134.617188 178.246094 135.421875 180.59375 C 141.671875 180.191406 147.371094 181.015625 153.378906 181.152344 C 153.960938 176.910156 153.308594 172.117188 153.476562 167.691406 C 147.085938 166.773438 140.027344 167.355469 133.335938 167.097656 C 134.164062 169.246094 133.636719 170.789062 134.730469 173.0625 Z M 319.96875 98.558594 C 321.234375 103.105469 319.59375 106.347656 319.683594 110.359375 C 325.996094 107.234375 332.898438 104.054688 336.65625 99.171875 C 335.804688 96.816406 335.21875 91.65625 332.695312 89.84375 C 329.472656 93.867188 324.441406 95.132812 319.96875 98.558594 Z M 310.980469 101.101562 C 315.339844 98.144531 319.214844 94.972656 321.988281 91.300781 C 317.917969 90.808594 313.871094 90.265625 309.757812 89.875 C 311.191406 94.363281 310.8125 96.800781 310.980469 101.101562 Z M 83.582031 239.203125 C 83.453125 240.148438 83.476562 240.15625 84.101562 239.4375 C 88.628906 237.351562 95.628906 232.179688 100.699219 228.386719 C 102.136719 227.519531 102.464844 229.113281 104.015625 227.996094 C 111.851562 219.59375 121.101562 211.828125 129.953125 203.882812 C 129.578125 189.476562 135.695312 178 129.238281 160.855469 C 129.097656 158.839844 127.300781 160.511719 127.101562 158.632812 C 127.945312 158.90625 129.050781 159.292969 128.472656 157.679688 C 126.320312 157.105469 125.304688 159.28125 123.078125 160.589844 C 109.21875 168.734375 96.304688 177.316406 81.320312 186.367188 C 87.535156 205.210938 90.152344 225.078125 83.582031 239.203125 Z M 135.324219 152.917969 C 139.066406 155.335938 146.734375 152.640625 148.796875 156.476562 C 143.347656 155.527344 136.707031 153.605469 131.070312 155.394531 C 130.773438 156.414062 131.039062 157.6875 131.601562 159.089844 C 134.828125 159.316406 138.832031 159.59375 142.648438 159.667969 C 146.378906 159.746094 151.019531 158.859375 152.609375 161.957031 C 146.355469 160.039062 138.816406 160.972656 132.035156 160.230469 C 132.21875 162.089844 132.316406 163.914062 133.425781 166.195312 C 140.273438 165.875 146.820312 166.210938 153.429688 166.414062 C 153.40625 160.777344 153.292969 155.496094 151.097656 149.976562 C 146.128906 147.246094 140.855469 148.640625 135.324219 152.917969 Z M 145.351562 147.386719 C 147.125 147.636719 148.738281 148.238281 150.523438 148.460938 C 149.695312 146.445312 149.664062 146.96875 148.855469 145.195312 C 147.285156 145.742188 145.738281 146.304688 145.351562 147.386719 Z M 252.066406 143.335938 C 251.460938 137.957031 246.753906 127.285156 246.84375 124.960938 C 247.046875 119.441406 241.074219 114.148438 239.15625 109.257812 C 232.582031 116.027344 223.449219 121.648438 218.5625 129.183594 C 214.355469 129.109375 212.011719 134.628906 208.496094 136.890625 C 217.929688 148.328125 225.003906 169.996094 223.105469 184.613281 C 233.183594 176.800781 241.433594 168.167969 251.605469 160.394531 C 250.761719 154.988281 252.710938 149.003906 252.066406 143.335938 Z M 309.847656 88.972656 C 314.542969 89.246094 319.148438 89.707031 323.738281 90.207031 C 325.210938 87.835938 329.136719 86.566406 328.976562 83.460938 C 323.050781 81.273438 315.875 81.871094 309.394531 80.917969 C 309.691406 83.667969 309.652344 86.269531 309.847656 88.972656 Z M 245.386719 114.257812 C 253.109375 115.695312 261.699219 115.21875 268.621094 118.445312 C 260.652344 118.472656 253.835938 115.949219 246.191406 115.25 C 247.753906 119.136719 249.730469 122.054688 250.589844 125.710938 C 257.65625 126.054688 264.347656 127.230469 271.304688 127.816406 C 269.992188 121.472656 269.824219 115.640625 267.070312 108.640625 C 258.757812 107.582031 250.496094 106.390625 241.851562 106.070312 C 241.75 109.03125 244.675781 110.820312 245.386719 114.257812 Z M 245.820312 102.835938 C 244.496094 103.390625 243.902344 104.273438 243.222656 105.121094 C 251.0625 105.613281 258.753906 106.421875 266.496094 107.125 C 266.304688 105.308594 265.390625 103.085938 264.292969 100.167969 C 259.761719 99.308594 254.972656 99.015625 250.730469 97.511719 C 249.386719 99.253906 246.28125 102.328125 245.152344 102.21875 C 245.296875 102.601562 245.628906 102.554688 245.820312 102.835938 Z M 151.976562 143.148438 C 156.371094 156.429688 156.632812 167.859375 156.503906 179.101562 C 168.523438 168.605469 178.488281 157.1875 192.132812 147.421875 C 194.761719 139.285156 197.136719 129.371094 193.175781 119.3125 C 192.925781 119.410156 192.671875 119.507812 192.417969 119.601562 C 178.273438 128.320312 166.390625 134.582031 151.976562 143.148438 Z M 251.867188 97.082031 C 255.808594 97.394531 259.484375 98.300781 263.34375 98.792969 C 262.554688 95.851562 260.070312 91.386719 257.25 90.710938 C 256.132812 93.140625 252.566406 94.464844 251.867188 97.082031 Z M 216.734375 106.058594 C 210.351562 109.726562 202.9375 113.015625 196.058594 117.789062 C 198.960938 126.828125 198.460938 136.242188 195.957031 143.808594 C 199.789062 140.507812 202.960938 136.910156 206.824219 133.628906 C 203.984375 133.429688 201.132812 133.246094 198.808594 131.902344 C 204.480469 133.359375 212.5625 132.117188 214.714844 125.878906 C 209.488281 124.925781 203.359375 125.992188 198.265625 124.746094 C 202.785156 121.664062 218.777344 128.914062 218.726562 120.460938 C 213.46875 116.09375 204.738281 119.4375 198.945312 116.261719 C 205.773438 116.667969 212.769531 116.714844 219.140625 118.136719 C 218.609375 115.800781 219.671875 114.191406 218.886719 111.742188 C 216.699219 110.539062 211.785156 111.707031 210.867188 110.015625 C 213.582031 109.800781 216.019531 110.195312 218.691406 110.082031 C 218.800781 109.324219 218.191406 105.503906 216.734375 106.058594 Z M 220.613281 103.726562 C 221.875 109.636719 221.632812 114.867188 221.660156 120.210938 C 236.972656 107.535156 249.953125 93.8125 263.230469 80.21875 C 249.800781 86.703125 234.804688 95.75 220.613281 103.726562 Z M 295.238281 57.269531 C 289.492188 61.375 283.503906 65.378906 280.40625 70.683594 C 271.496094 75.355469 267.359375 82.183594 260.460938 87.765625 C 270.875 102.535156 275.015625 121.785156 274.894531 137.285156 C 282.085938 129.726562 289.882812 120.414062 297.75 113.042969 C 300.617188 110.347656 304.964844 108.035156 306.539062 105.378906 C 310.582031 98.550781 304.929688 89.210938 306.316406 80.789062 C 305.304688 80.46875 303.890625 81.046875 303.089844 80.273438 C 304.527344 79.410156 304.855469 81.003906 306.40625 79.886719 C 303.550781 71.707031 301.832031 61.902344 295.238281 57.269531 Z M 332.617188 81.644531 C 335.050781 79.390625 336.589844 76.738281 338.46875 74.234375 C 339.257812 61.5 328.398438 54.605469 320.9375 46.238281 C 326.890625 56.117188 333.503906 71.535156 332.617188 81.644531 Z M 322.433594 54.765625 C 321.382812 53.25 320.660156 50.839844 319.003906 49.132812 C 319.136719 49.613281 319.230469 50.074219 318.53125 50.175781 C 315.144531 47.714844 309.933594 49.285156 305.78125 48.511719 C 303.472656 50.929688 299.546875 52.613281 297.980469 55.363281 C 299.9375 56.601562 301.046875 59.714844 302.835938 61.320312 C 310.539062 61.40625 317.566406 63.007812 324.742188 64.28125 C 325.300781 65.125 326.511719 64.53125 326.738281 66.121094 C 318.996094 64.042969 310.824219 62.355469 303.125 62.078125 C 306.453125 68.296875 307.429688 73.859375 309.628906 80.394531 C 316.777344 79.40625 322.386719 81.816406 329.398438 81.136719 C 330.378906 73.863281 326.351562 63.125 323.007812 56.277344 C 316.722656 54.898438 309.464844 55.664062 303.425781 53.734375 C 309.855469 53.871094 316.066406 54.496094 322.433594 54.765625 Z M 308.191406 48.03125 C 311.554688 46.542969 316.808594 49.460938 318.949219 47.855469 C 317.558594 45.832031 315.464844 45.375 314.152344 43.179688 C 311.148438 43.972656 309.117188 45.121094 308.191406 48.03125 Z M 320 35.769531 C 319.222656 37.089844 317.882812 38.160156 316.03125 39.003906 C 320.703125 40.3125 324.945312 45.15625 329.148438 49.621094 C 335.878906 56.769531 344.347656 67.988281 343.886719 78.246094 C 341.53125 81.578125 338.179688 84.46875 335.292969 87.558594 C 339.84375 92.304688 340.914062 99.140625 339.421875 104.183594 C 329.300781 108 314.277344 118.34375 299.871094 124.359375 C 294.246094 126.710938 292.699219 129.605469 288.105469 134.445312 C 271.015625 152.464844 257.738281 171.414062 232.925781 186.523438 C 228.640625 189.136719 224.621094 192.085938 220.351562 195.617188 C 218.652344 197.023438 216.796875 198.007812 215.238281 199.285156 C 202.832031 209.476562 193.75 223.847656 180.566406 232.335938 C 165.164062 246.734375 149.539062 260.8125 133.75 275.617188 C 128.816406 280.242188 123.519531 284.976562 120.007812 290.78125 C 118.1875 290.710938 117.394531 293.5 115.28125 294.308594 C 104.769531 306.214844 93.078125 317.59375 81.175781 328.875 C 80.15625 326.425781 82.953125 325.695312 82.628906 323.5625 C 80.898438 326.238281 78.378906 328.554688 76.917969 331.351562 C 70.011719 333.878906 63.664062 333.625 57.914062 330.328125 C 50.785156 323.832031 37.546875 315.527344 34.789062 303.578125 C 33.191406 296.621094 36.609375 291.183594 38.664062 285.226562 C 39.5625 284.378906 40.242188 284.542969 41.457031 284.601562 C 56.976562 270.167969 74.242188 254.558594 90.644531 239.554688 C 88.414062 241.265625 81.808594 243.601562 80.523438 245.992188 C 73.9375 247.382812 69.554688 251.285156 61.40625 254.964844 C 60.0625 255.089844 61.359375 256.410156 60.320312 256.671875 C 52.800781 259.128906 43.328125 264.785156 37.664062 270.011719 C 20.847656 265.074219 12.191406 239.492188 13.050781 222.1875 C 14.8125 220 17.269531 217.730469 20.613281 215.855469 C 31.636719 209.6875 43.09375 204.578125 54.105469 197.972656 C 55.046875 197.351562 55.597656 196.554688 55.804688 195.597656 C 58.90625 195.574219 62.238281 192.957031 66.496094 190.679688 C 70.746094 188.414062 75.074219 186.324219 77.375 183.960938 C 84.308594 181.363281 92.871094 175.152344 100.035156 170.617188 C 109.210938 164.804688 120.296875 158.8125 127.363281 152.472656 C 141.5 145.78125 157.511719 136.132812 172.871094 127.441406 C 187.277344 119.28125 201.160156 110.0625 215.207031 103.175781 C 216.449219 102.683594 215.148438 101.058594 216.90625 100.796875 C 217.382812 100.847656 218.84375 99.933594 219.605469 101.074219 C 234.769531 91.9375 249.390625 83.632812 263.691406 75.714844 C 266.164062 74.347656 269.066406 73.710938 271.5 72.324219 C 279.253906 67.894531 285.546875 58.894531 293.046875 53.769531 C 294.195312 52.980469 295.65625 52.785156 296.691406 51.957031 C 298.160156 50.785156 298.761719 49.019531 300.230469 47.585938 C 301.34375 46.496094 303.351562 45.5625 304.582031 44.207031 C 306.140625 42.476562 306.414062 41.066406 307.886719 40.355469 C 311.699219 38.511719 317.246094 39.976562 320 35.769531 " fill-opacity="1" fill-rule="evenodd"/></g></g></g><g clip-path="url(#81226e20a9)"><path fill="#4fa6d6" d="M 243.847656 203.132812 C 243.914062 203.125 244.011719 203.113281 244.089844 203.101562 C 247.714844 202.539062 263.90625 197.84375 266.8125 197.683594 C 279.324219 197.003906 279.21875 199.421875 286.722656 202.058594 C 291.058594 203.582031 296.050781 204.617188 299.507812 208.070312 C 302.371094 210.933594 308.066406 215.109375 312.59375 219.964844 C 315.785156 223.386719 318.386719 227.152344 319.21875 231.027344 C 319.773438 233.621094 322.269531 238.847656 324.25 243.582031 C 325.664062 246.953125 326.8125 250.097656 326.992188 252.007812 C 328.472656 267.59375 330.070312 278.402344 319.664062 294.148438 C 314.214844 302.390625 303.441406 308.621094 295.570312 312.59375 C 283.664062 318.605469 276.6875 318.800781 269.304688 318.425781 C 264.574219 318.183594 259.671875 317.6875 253.074219 318.4375 C 246.921875 319.140625 241.597656 316.515625 237.230469 313.203125 C 233.121094 310.089844 229.894531 306.375 227.628906 304.632812 C 225.996094 303.375 222.917969 301.730469 219.652344 299.273438 C 214.519531 295.414062 208.964844 289.632812 207.382812 280.480469 C 206.644531 276.207031 206.949219 271.992188 207.398438 268.007812 C 207.824219 264.234375 208.382812 260.679688 208.167969 257.511719 C 207.75 251.441406 206.304688 241.460938 211.34375 232.941406 C 212.3125 231.304688 217.351562 226.097656 221.453125 221.8125 C 224.003906 219.148438 226.1875 216.882812 226.546875 216.191406 C 229.171875 211.15625 237.886719 204.9375 243.167969 203.175781 C 243.390625 203.101562 243.625 203.089844 243.847656 203.132812 Z M 243.726562 205.84375 C 238.929688 207.558594 231.269531 212.980469 228.949219 217.441406 C 228.550781 218.199219 226.214844 220.75 223.410156 223.683594 C 219.476562 227.792969 214.601562 232.75 213.671875 234.320312 C 208.957031 242.289062 210.476562 251.648438 210.867188 257.324219 C 211.09375 260.640625 210.53125 264.363281 210.085938 268.3125 C 209.664062 272.050781 209.351562 276.007812 210.046875 280.019531 C 211.488281 288.359375 216.601562 293.597656 221.277344 297.113281 C 224.554688 299.578125 227.640625 301.230469 229.28125 302.492188 C 231.539062 304.230469 234.761719 307.9375 238.863281 311.050781 C 242.707031 313.964844 247.355469 316.367188 252.769531 315.75 C 259.542969 314.980469 264.582031 315.476562 269.445312 315.722656 C 276.445312 316.082031 283.058594 315.882812 294.351562 310.179688 C 301.867188 306.386719 312.207031 300.523438 317.410156 292.65625 C 327.378906 277.570312 325.714844 267.195312 324.300781 252.261719 C 324.136719 250.527344 323.039062 247.6875 321.757812 244.628906 C 319.703125 239.71875 317.152344 234.285156 316.574219 231.597656 C 315.832031 228.152344 313.449219 224.851562 310.617188 221.808594 C 306.113281 216.976562 300.441406 212.832031 297.59375 209.984375 C 294.429688 206.820312 289.796875 206.003906 285.824219 204.609375 C 278.707031 202.109375 278.828125 199.738281 266.960938 200.386719 C 264.417969 200.523438 251.558594 204.222656 246.222656 205.429688 C 244.992188 205.707031 244.101562 205.851562 243.730469 205.84375 Z M 243.726562 205.84375 " fill-opacity="1" fill-rule="evenodd"/></g><path fill="#4fa6d6" d="M 256.832031 214.675781 C 260.925781 214.675781 264.246094 217.980469 264.246094 222.046875 C 264.246094 226.109375 260.925781 229.414062 256.832031 229.414062 C 252.734375 229.414062 249.414062 226.109375 249.414062 222.046875 C 249.414062 217.980469 252.734375 214.675781 256.832031 214.675781 Z M 256.832031 216.757812 C 253.886719 216.757812 251.492188 219.125 251.492188 222.046875 C 251.492188 224.964844 253.886719 227.332031 256.832031 227.332031 C 259.773438 227.332031 262.164062 224.964844 262.164062 222.046875 C 262.164062 219.125 259.773438 216.757812 256.832031 216.757812 Z M 256.832031 216.757812 " fill-opacity="1" fill-rule="evenodd"/><path fill="#4fa6d6" d="M 224.449219 264.609375 C 229.039062 264.609375 232.769531 268.355469 232.769531 272.972656 C 232.769531 277.589844 229.039062 281.335938 224.449219 281.335938 C 219.855469 281.335938 216.125 277.589844 216.125 272.972656 C 216.125 268.355469 219.855469 264.609375 224.449219 264.609375 Z M 224.449219 266.691406 C 221 266.691406 218.207031 269.507812 218.207031 272.972656 C 218.207031 276.4375 221 279.253906 224.449219 279.253906 C 227.894531 279.253906 230.6875 276.4375 230.6875 272.972656 C 230.6875 269.507812 227.894531 266.691406 224.449219 266.691406 Z M 224.449219 266.691406 " fill-opacity="1" fill-rule="evenodd"/><path fill="#4fa6d6" d="M 278.390625 243.804688 C 282.914062 243.804688 286.558594 247.328125 286.558594 251.640625 C 286.558594 255.949219 282.914062 259.472656 278.390625 259.472656 C 273.867188 259.472656 270.21875 255.949219 270.21875 251.640625 C 270.21875 247.328125 273.867188 243.804688 278.390625 243.804688 Z M 278.390625 245.886719 C 275.039062 245.886719 272.296875 248.449219 272.296875 251.640625 C 272.296875 254.828125 275.039062 257.394531 278.390625 257.394531 C 281.738281 257.394531 284.480469 254.828125 284.480469 251.640625 C 284.480469 248.449219 281.738281 245.886719 278.390625 245.886719 Z M 278.390625 245.886719 " fill-opacity="1" fill-rule="evenodd"/><path fill="#4fa6d6" d="M 289.980469 218.839844 C 293.988281 218.839844 297.265625 222.203125 297.265625 226.375 C 297.265625 230.542969 293.988281 233.910156 289.980469 233.910156 C 285.976562 233.910156 282.699219 230.542969 282.699219 226.375 C 282.699219 222.203125 285.976562 218.839844 289.980469 218.839844 Z M 289.980469 220.917969 C 287.101562 220.917969 284.78125 223.375 284.78125 226.375 C 284.78125 229.375 287.101562 231.828125 289.980469 231.828125 C 292.863281 231.828125 295.183594 229.375 295.183594 226.375 C 295.183594 223.375 292.863281 220.917969 289.980469 220.917969 Z M 289.980469 220.917969 " fill-opacity="1" fill-rule="evenodd"/><path fill="#4fa6d6" d="M 231.730469 232.761719 C 235.71875 232.761719 239.011719 236.285156 239.011719 240.683594 C 239.011719 245.082031 235.71875 248.605469 231.730469 248.605469 C 227.738281 248.605469 224.449219 245.082031 224.449219 240.683594 C 224.449219 236.285156 227.738281 232.761719 231.730469 232.761719 Z M 231.730469 234.839844 C 228.828125 234.839844 226.527344 237.484375 226.527344 240.683594 C 226.527344 243.882812 228.828125 246.527344 231.730469 246.527344 C 234.628906 246.527344 236.929688 243.882812 236.929688 240.683594 C 236.929688 237.484375 234.628906 234.839844 231.730469 234.839844 Z M 231.730469 234.839844 " fill-opacity="1" fill-rule="evenodd"/><path fill="#4fa6d6" d="M 256.695312 289.574219 C 261.863281 289.574219 266.054688 293.769531 266.054688 298.9375 C 266.054688 304.101562 261.863281 308.296875 256.695312 308.296875 C 251.527344 308.296875 247.332031 304.101562 247.332031 298.9375 C 247.332031 293.769531 251.527344 289.574219 256.695312 289.574219 Z M 256.695312 291.65625 C 252.675781 291.65625 249.410156 294.917969 249.410156 298.9375 C 249.410156 302.957031 252.675781 306.21875 256.695312 306.21875 C 260.714844 306.21875 263.976562 302.957031 263.976562 298.9375 C 263.976562 294.917969 260.714844 291.65625 256.695312 291.65625 Z M 256.695312 291.65625 " fill-opacity="1" fill-rule="evenodd"/><path fill="#4fa6d6" d="M 302.464844 281.253906 C 307.144531 281.253906 310.9375 285.039062 310.9375 289.699219 C 310.9375 294.359375 307.144531 298.144531 302.464844 298.144531 C 297.789062 298.144531 293.992188 294.359375 293.992188 289.699219 C 293.992188 285.039062 297.789062 281.253906 302.464844 281.253906 Z M 302.464844 283.332031 C 298.9375 283.332031 296.070312 286.183594 296.070312 289.699219 C 296.070312 293.214844 298.9375 296.066406 302.464844 296.066406 C 305.992188 296.066406 308.859375 293.214844 308.859375 289.699219 C 308.859375 286.183594 305.992188 283.332031 302.464844 283.332031 Z M 302.464844 283.332031 " fill-opacity="1" fill-rule="evenodd"/><path fill="#4fa6d6" d="M 308.261719 252.125 C 312.527344 252.125 315.988281 255.589844 315.988281 259.851562 C 315.988281 264.117188 312.527344 267.578125 308.261719 267.578125 C 304 267.578125 300.535156 264.117188 300.535156 259.851562 C 300.535156 255.589844 304 252.125 308.261719 252.125 Z M 308.261719 254.207031 C 305.148438 254.207031 302.617188 256.738281 302.617188 259.851562 C 302.617188 262.96875 305.148438 265.496094 308.261719 265.496094 C 311.378906 265.496094 313.90625 262.96875 313.90625 259.851562 C 313.90625 256.738281 311.378906 254.207031 308.261719 254.207031 Z M 308.261719 254.207031 " fill-opacity="1" fill-rule="evenodd"/><path fill="#4fa6d6" d="M 253.507812 253.230469 C 258.144531 253.230469 261.894531 256.9375 261.894531 261.488281 C 261.894531 266.039062 258.144531 269.742188 253.507812 269.742188 C 248.871094 269.742188 245.117188 266.039062 245.117188 261.488281 C 245.117188 256.9375 248.871094 253.230469 253.507812 253.230469 Z M 253.507812 255.3125 C 250.03125 255.3125 247.199219 258.074219 247.199219 261.488281 C 247.199219 264.902344 250.03125 267.664062 253.507812 267.664062 C 256.984375 267.664062 259.816406 264.902344 259.816406 261.488281 C 259.816406 258.074219 256.984375 255.3125 253.507812 255.3125 Z M 253.507812 255.3125 " fill-opacity="1" fill-rule="evenodd"/><path fill="#4fa6d6" d="M 278.539062 272.929688 C 283.132812 272.929688 286.863281 276.660156 286.863281 281.253906 C 286.863281 285.847656 283.132812 289.574219 278.539062 289.574219 C 273.945312 289.574219 270.21875 285.847656 270.21875 281.253906 C 270.21875 276.660156 273.945312 272.929688 278.539062 272.929688 Z M 278.539062 275.011719 C 275.09375 275.011719 272.296875 277.808594 272.296875 281.253906 C 272.296875 284.699219 275.09375 287.496094 278.539062 287.496094 C 281.984375 287.496094 284.78125 284.699219 284.78125 281.253906 C 284.78125 277.808594 281.984375 275.011719 278.539062 275.011719 Z M 278.539062 275.011719 " fill-opacity="1" fill-rule="evenodd"/></svg>