<svg xmlns="http://www.w3.org/2000/svg" xmlns:xlink="http://www.w3.org/1999/xlink" width="500" zoomAndPan="magnify" viewBox="0 0 375 374.999991" height="500" preserveAspectRatio="xMidYMid meet" version="1.0"><defs><clipPath id="28aea1ceeb"><path d="M 47 22.308594 L 329.816406 22.308594 L 329.816406 352 L 47 352 Z M 47 22.308594 " clip-rule="nonzero"/></clipPath></defs><g clip-path="url(#28aea1ceeb)"><path fill="#bcbcbc" d="M 214.519531 238.398438 C 214.234375 241.625 216.082031 247.675781 211.910156 248.632812 C 211.78125 248.660156 211.644531 248.6875 211.503906 248.703125 C 209.816406 248.777344 208.3125 247.417969 208.246094 245.71875 C 208.1875 241.050781 207.871094 235.988281 209.757812 231.628906 C 213.738281 228.125 214.390625 235.855469 214.519531 238.398438 Z M 176.125 40.511719 C 177.074219 40.292969 178.011719 39.601562 178.320312 38.757812 C 178.863281 36.121094 172.964844 36.617188 173.820312 39.296875 C 174.136719 40.453125 175.136719 40.738281 176.121094 40.511719 Z M 185.691406 234.214844 C 180.453125 241.523438 175.613281 248.65625 170.675781 256.265625 C 170.203125 256.96875 170.539062 257.992188 171.238281 258.40625 C 171.585938 258.609375 172 258.660156 172.382812 258.574219 C 172.726562 258.496094 173.046875 258.300781 173.265625 258.003906 C 176 254.316406 178.796875 250.667969 181.542969 246.984375 C 190.332031 235.535156 198.15625 223.449219 206.34375 211.589844 C 206.03125 202.710938 187.503906 232.4375 185.691406 234.214844 Z M 187.515625 218.378906 C 187.957031 218.277344 188.367188 218.035156 188.644531 217.65625 C 190.527344 215.085938 192.34375 212.480469 194.140625 209.859375 C 195.761719 207.105469 198.398438 204.695312 199.09375 201.527344 C 199.1875 198.640625 194.585938 198.71875 194.769531 201.601562 C 191.367188 206.023438 188.179688 210.609375 185.289062 215.390625 C 184.71875 216.335938 185.074219 217.617188 186.015625 218.167969 C 186.472656 218.429688 187.015625 218.496094 187.515625 218.378906 Z M 130.664062 183.234375 C 130.742188 183.226562 130.816406 183.210938 130.890625 183.195312 C 131.753906 182.996094 132.445312 182.265625 132.570312 181.375 C 132.421875 176.867188 125.082031 178.613281 122.179688 179.066406 C 120.933594 179.300781 120.117188 180.636719 120.265625 181.84375 C 121.039062 185.917969 127.777344 183.625 130.664062 183.234375 Z M 252.804688 183.058594 C 253.789062 182.832031 254.625 182.113281 254.582031 180.941406 C 254.160156 178.363281 249.894531 178.070312 249.796875 180.988281 C 249.75 182.722656 251.421875 183.375 252.804688 183.058594 Z M 327.53125 110.574219 C 328.121094 113.222656 328.183594 116.003906 327.976562 118.765625 C 327.578125 123.496094 325.714844 128.890625 322.707031 133.273438 C 322.800781 134.660156 322.546875 136.234375 322.484375 137.417969 C 322.140625 141.636719 321.941406 145.867188 321.683594 150.105469 C 319.613281 203.53125 309.261719 256.296875 306.132812 309.585938 C 306.585938 309.9375 306.769531 310.367188 306.746094 310.796875 C 310.808594 311.210938 314.863281 311.664062 318.90625 312.148438 C 320.164062 310.996094 322.113281 311.765625 323.015625 315.039062 C 323.65625 318.894531 323.628906 322.789062 323.449219 326.695312 C 323.519531 328.785156 323.53125 330.585938 323.648438 331.441406 C 323.734375 336.347656 323.78125 341.300781 323.246094 346.1875 C 323.144531 347.027344 322.730469 347.777344 322.125 348.300781 C 321.847656 348.796875 321.378906 349.1875 320.703125 349.363281 C 320.472656 349.429688 320.238281 349.488281 320.007812 349.539062 C 318.558594 349.871094 317.082031 349.988281 315.601562 350.117188 C 269.703125 352.558594 223.457031 350.347656 177.554688 349.230469 C 160.320312 348.480469 143.394531 348.820312 126.203125 349.441406 C 112.753906 350.023438 99.304688 350.25 85.855469 350.429688 C 73.9375 350.074219 59.628906 352.195312 50.351562 343.109375 C 44.769531 337.46875 48.75 329.039062 49.707031 322.300781 C 51.574219 314.730469 53.191406 306.519531 57.980469 300.195312 C 61.238281 296.066406 66.335938 296.109375 71.152344 296.429688 C 70.921875 293.585938 70.707031 290.746094 70.457031 287.910156 C 67.765625 255.703125 69.269531 223.28125 65.304688 191.144531 C 63.765625 175.980469 61.929688 160.808594 61.867188 145.535156 C 61.878906 144.835938 61.863281 143.832031 61.902344 142.785156 C 61.679688 142.5625 61.464844 142.328125 61.25 142.097656 C 56.421875 137.675781 54.980469 130.1875 53.691406 124.265625 C 52.339844 117.179688 51.914062 109.949219 51.78125 102.726562 C 51.09375 102.28125 50.652344 101.460938 50.738281 100.605469 C 50.863281 99.78125 51.234375 99.28125 51.730469 98.984375 C 51.726562 98.167969 51.722656 97.363281 51.71875 96.546875 C 53.667969 84.777344 60.523438 73.296875 65.238281 62.308594 C 70.523438 52.003906 75.101562 40.9375 83.089844 32.351562 C 86.386719 28.601562 90.933594 26.375 95.957031 26.375 C 104.414062 25.578125 112.921875 25.199219 121.402344 24.777344 C 156.09375 23.148438 190.8125 22.523438 225.539062 22.824219 C 242.785156 22.875 260.140625 23.359375 277.207031 26.105469 C 291.992188 28.222656 296.378906 34.019531 301.808594 47.273438 C 307.539062 59.855469 312.339844 72.820312 317.65625 85.574219 C 320.375 92.105469 322.734375 98.757812 325.472656 105.277344 C 325.777344 105.769531 326.046875 106.285156 326.285156 106.804688 C 326.867188 106.832031 327.453125 106.871094 328.035156 106.90625 C 330.101562 108.21875 329.171875 109.796875 327.535156 110.574219 Z M 261.203125 32.617188 C 262.105469 34.570312 263 36.535156 263.875 38.503906 C 269.671875 39.265625 275.445312 40.160156 281.179688 41.1875 C 284.4375 41.308594 284.035156 46.191406 280.945312 46.285156 C 276.257812 46.117188 271.570312 45.839844 266.898438 45.480469 C 272.300781 58.296875 277.035156 71.386719 281.148438 84.660156 C 283.085938 91.210938 285.070312 97.757812 286.671875 104.394531 C 296.183594 104.9375 305.683594 105.585938 315.171875 106.304688 C 316.820312 106.449219 318.472656 106.535156 320.121094 106.59375 C 311.527344 94.636719 306.191406 80.464844 300.667969 66.898438 C 297.980469 59.796875 295.375 52.664062 292.746094 45.546875 C 291.210938 41.265625 289.261719 36.960938 284.429688 35.769531 C 276.757812 34.167969 269.007812 33.199219 261.207031 32.617188 Z M 261.5 45.03125 C 252.140625 44.222656 242.785156 43.160156 233.4375 42.175781 C 235.578125 48.960938 237.304688 55.65625 237.820312 56.800781 C 242.828125 71.90625 247.292969 87.199219 250.523438 102.792969 C 261.039062 103.105469 271.558594 103.570312 282.0625 104.136719 C 276.101562 84.132812 268.023438 64.824219 261.496094 45.03125 Z M 229.679688 31.855469 C 230.171875 32.953125 230.667969 34.183594 231.160156 35.492188 C 234.507812 35.703125 237.847656 35.976562 241.195312 36.308594 C 247.222656 36.671875 253.238281 37.21875 259.246094 37.929688 C 258.722656 36.214844 258.214844 34.484375 257.714844 32.753906 C 257.699219 32.636719 257.679688 32.507812 257.640625 32.386719 C 248.359375 31.820312 239.019531 31.78125 229.679688 31.855469 Z M 208.617188 113.511719 C 209.066406 119.574219 210.820312 125.417969 212.660156 131.191406 C 213.511719 134.234375 216.109375 136.253906 218.535156 138.058594 C 224.492188 141.34375 232.035156 142.078125 238.71875 141.683594 C 242.636719 140.828125 245.242188 137.355469 247.609375 134.390625 C 252.007812 128.75 250.828125 121.976562 249.792969 115.445312 C 249.847656 114.585938 249.574219 113.335938 249.375 112.078125 C 248.769531 111.824219 248.40625 111.292969 248.164062 110.621094 C 234.503906 110.28125 220.867188 110.007812 207.214844 109.65625 C 207.269531 110.421875 207.324219 111.179688 207.375 111.933594 C 208.019531 112.1875 208.527344 112.726562 208.617188 113.515625 Z M 228.125 41.617188 C 219.125 40.703125 210.136719 39.917969 201.117188 39.535156 C 204.359375 53.675781 204.613281 68.378906 205.554688 82.8125 C 205.84375 89.226562 206.25 95.628906 206.6875 102.027344 C 219.871094 102.214844 233.046875 102.382812 246.246094 102.664062 C 245.167969 98.53125 244.042969 94.414062 242.90625 90.292969 C 238.207031 74.023438 232.96875 57.832031 228.125 41.617188 Z M 199.332031 32.839844 C 199.5625 33.585938 199.777344 34.34375 199.988281 35.09375 C 208.742188 34.761719 217.488281 34.792969 226.242188 35.207031 C 225.917969 34.101562 225.59375 33.007812 225.28125 31.898438 C 216.625 31.996094 207.984375 32.148438 199.378906 32.042969 C 199.429688 32.292969 199.410156 32.570312 199.332031 32.84375 Z M 162.410156 32.296875 C 161.941406 37.609375 161.042969 42.851562 160.824219 48.21875 C 160.042969 60.761719 160.246094 73.304688 160.621094 85.84375 C 160.4375 87.550781 161.105469 95.277344 160.722656 101.15625 C 174.441406 101.542969 188.105469 101.769531 201.761719 101.957031 C 200.382812 84.644531 199.527344 67.054688 197.152344 49.960938 C 197.148438 49.902344 197.144531 49.832031 197.128906 49.765625 C 197.140625 49.820312 197.152344 49.871094 197.15625 49.929688 C 197.222656 48.066406 196.148438 43.5625 195.570312 39.355469 C 192.53125 39.273438 189.492188 39.265625 186.453125 39.304688 C 184.28125 39.277344 184.273438 35.871094 186.507812 35.882812 C 189.410156 35.652344 192.304688 35.460938 195.207031 35.320312 C 195.171875 34.015625 195.273438 32.875 195.578125 32.015625 C 184.519531 32.019531 173.464844 32.113281 162.40625 32.296875 Z M 122.144531 33.246094 C 118.09375 54.132812 112.203125 74.644531 110.128906 96.453125 C 109.945312 97.855469 109.84375 99.253906 109.800781 100.65625 C 124.851562 100.886719 139.90625 100.945312 154.988281 101.050781 C 154.097656 92.6875 154.089844 84.242188 154.109375 75.84375 C 154.882812 61.339844 155.609375 46.601562 158.488281 32.359375 C 146.375 32.5625 134.253906 32.859375 122.144531 33.246094 Z M 118.542969 137.539062 C 128.328125 143.246094 142.261719 139.0625 147.542969 129.132812 C 150.640625 124.476562 153.082031 120.195312 154.765625 115.085938 C 154.691406 112.792969 154.710938 110.496094 154.800781 108.214844 C 139.816406 107.949219 124.84375 107.648438 109.902344 107.039062 C 109.96875 108.164062 110.054688 109.273438 110.136719 110.394531 C 110.539062 110.683594 110.886719 111.101562 111.125 111.652344 C 114.0625 119.9375 111.714844 131.128906 118.542969 137.535156 Z M 59.003906 98.921875 C 74.394531 99.820312 89.75 100.296875 105.101562 100.578125 C 105.390625 83.570312 110.6875 56.375 112.195312 50.8125 C 112.597656 48.996094 115.140625 39.402344 117.9375 33.382812 L 111.269531 33.609375 C 105.878906 33.824219 100.492188 33.910156 95.109375 34.113281 C 94.589844 34.136719 94.066406 34.199219 93.558594 34.3125 C 92.6875 34.511719 91.867188 34.882812 91.207031 35.523438 C 79.597656 48.054688 74.96875 65.167969 66.792969 79.859375 C 64.367188 85.175781 60.824219 90.046875 58.851562 95.535156 C 58.898438 96.664062 58.945312 97.792969 59.003906 98.917969 Z M 280.519531 315.5 C 239.066406 314.773438 197.757812 311.046875 156.375 308.53125 C 156.046875 308.726562 155.652344 308.855469 155.195312 308.921875 C 154.492188 308.902344 153.933594 308.695312 153.5 308.351562 C 139.21875 307.5 124.921875 306.800781 110.601562 306.433594 C 99.398438 305.984375 88.191406 305.386719 76.996094 304.917969 C 76.804688 305.929688 76.253906 306.75 74.988281 307.113281 C 73.683594 307.371094 72.160156 306.488281 71.972656 305.101562 L 71.941406 304.835938 C 69.445312 304.730469 66.890625 304.710938 65.34375 306.46875 C 61.859375 313.976562 59.992188 321.867188 58.121094 329.800781 C 63.367188 329.871094 68.6875 330.683594 73.96875 330.375 C 77.03125 330.40625 80.085938 330.484375 83.152344 330.566406 C 83.792969 330.582031 84.34375 331.0625 84.355469 331.726562 C 84.363281 332.285156 83.960938 332.785156 83.4375 332.902344 C 83.359375 332.921875 83.277344 332.929688 83.191406 332.929688 C 74.601562 332.859375 65.953125 333.472656 57.382812 332.914062 C 57.15625 333.863281 56.929688 334.808594 56.695312 335.757812 C 59.945312 341.175781 68.464844 340.394531 74.136719 341.019531 C 101.460938 341.375 128.785156 339.75 156.113281 340.074219 C 186.179688 340.847656 216.210938 342.53125 246.292969 342.683594 C 269.757812 342.882812 293.238281 342.535156 316.625 344.054688 C 316.515625 342.847656 316.53125 341.519531 316.585938 340.1875 C 294.683594 341.246094 272.726562 338.117188 250.847656 337.324219 C 216.097656 336 181.332031 334.355469 146.613281 332.953125 C 146.09375 332.929688 145.710938 332.402344 145.769531 331.90625 C 145.929688 330.761719 147.351562 331.109375 148.101562 331.128906 C 180.660156 331.777344 213.214844 332.675781 245.78125 333.039062 C 267.921875 333.453125 289.703125 335.992188 311.777344 337.078125 C 313.4375 337.179688 315.097656 337.277344 316.757812 337.378906 C 316.917969 335.289062 317.085938 333.417969 316.976562 332.296875 C 317.199219 327.554688 317.730469 322.824219 317.785156 318.078125 C 317.605469 317.644531 317.628906 317.175781 317.773438 316.746094 C 317.773438 316.535156 317.757812 316.328125 317.757812 316.117188 C 317.75 315.925781 317.785156 315.78125 317.785156 315.601562 C 308.050781 317.171875 282.71875 315.160156 280.523438 315.5 Z M 265.421875 276.582031 C 263.089844 254.214844 262.027344 231.542969 262.609375 209.097656 C 262.839844 201.78125 263.53125 194.488281 264.148438 187.203125 C 264.078125 183.203125 266.660156 176.71875 261.820312 174.800781 C 252.425781 171.851562 242.683594 171.125 232.863281 171.148438 C 233.605469 191.691406 231.09375 212.953125 230.761719 233.273438 C 230.785156 255.382812 230.40625 277.488281 230.210938 299.613281 C 229.960938 300.988281 230.265625 302.9375 230.378906 304.789062 C 243.742188 305.78125 257.121094 306.769531 270.496094 307.691406 C 266.839844 297.976562 266.980469 286.8125 265.425781 276.585938 Z M 229.679688 171.183594 C 220.945312 171.320312 212.164062 171.929688 203.546875 171.9375 C 186.941406 172.253906 170.332031 173.269531 153.734375 174.015625 C 153.105469 208.671875 156.578125 243.21875 157.050781 277.863281 C 157.109375 284.21875 157.296875 290.550781 157.632812 296.890625 C 157.539062 297.679688 157.613281 298.710938 157.714844 299.859375 C 180.007812 301.09375 202.261719 302.710938 224.527344 304.359375 C 224.386719 300.234375 224.257812 296.113281 224.183594 291.996094 C 223.378906 269.699219 222.945312 247.378906 223.90625 225.078125 C 225.003906 207.066406 226.632812 188.964844 229.679688 171.183594 Z M 149.007812 174.210938 C 136.042969 174.753906 123.082031 175.082031 110.109375 174.738281 C 107.472656 184.765625 110.648438 195.5625 111.148438 205.757812 C 112.441406 217.117188 113.867188 228.351562 114.484375 239.753906 C 115.632812 256.390625 114.84375 273.101562 115.316406 289.773438 C 115.285156 292.535156 115.332031 295.296875 115.433594 298.070312 C 127.597656 298.398438 139.75 298.910156 151.902344 299.542969 C 151.890625 298.863281 151.847656 298.246094 151.753906 297.75 C 151.230469 281.988281 149.488281 266.296875 148.292969 250.574219 C 146.683594 231.328125 145.769531 211.921875 146.789062 192.621094 C 147.296875 186.46875 147.898438 180.296875 149.007812 174.210938 Z M 316.128906 139.777344 C 313.316406 141.511719 310.09375 142.371094 306.546875 141.902344 C 299.195312 141.257812 293.128906 136.292969 289.847656 129.859375 C 288.054688 140.121094 281.175781 148.539062 269.953125 145.140625 C 264.210938 143.015625 257.570312 140.824219 253.929688 135.59375 C 248.820312 145.070312 241.132812 149.828125 230.292969 147.574219 C 218.148438 146.847656 206.886719 140.902344 206.292969 127.527344 C 203.5625 134.855469 198.851562 142.5625 190.136719 142.707031 C 177.839844 142.941406 159.375 141.835938 155.972656 127.320312 C 152.144531 134.171875 147.695312 141.914062 139.769531 144.4375 C 128.460938 148.855469 110.71875 147.617188 107.890625 133.332031 C 104.570312 141.914062 97.78125 151.070312 88.097656 152.410156 C 81.074219 152.851562 73.902344 151.183594 67.925781 147.558594 C 67.949219 147.714844 67.984375 147.867188 68.019531 148.011719 C 69.417969 157.507812 70.683594 167.027344 72.011719 176.519531 C 76.273438 203.070312 75.835938 230.738281 75.476562 257.285156 C 75.464844 270.425781 76.070312 283.554688 76.636719 296.675781 C 87.914062 296.824219 99.183594 297.347656 110.4375 297.855469 C 110.40625 297.355469 110.351562 296.90625 110.273438 296.519531 C 109.5625 288.609375 109.351562 280.65625 108.765625 272.738281 C 106.816406 247.949219 104.324219 223.222656 101.902344 198.496094 C 101.753906 189.683594 97.261719 170.433594 108.363281 167.890625 C 109.292969 167.675781 110.332031 167.582031 111.492188 167.617188 C 125.417969 166.957031 139.394531 166.921875 153.296875 165.851562 C 170.589844 164.703125 187.882812 163.675781 205.210938 163.292969 C 225.578125 163.496094 248.117188 159.832031 266.683594 170.003906 C 270.777344 172.636719 271.136719 177.941406 270.800781 182.328125 C 270.714844 193.347656 270.808594 204.363281 270.953125 215.378906 C 271.421875 238.359375 272.261719 261.304688 273.425781 284.253906 C 273.011719 286.882812 275.011719 301.71875 273.96875 307.914062 C 276.042969 308.0625 278.121094 308.191406 280.191406 308.332031 C 287.53125 309.011719 294.890625 309.644531 302.238281 310.359375 C 294.972656 294.820312 309.96875 209.902344 310.539062 195.183594 C 312.53125 176.371094 314.023438 158.230469 316.128906 139.777344 Z M 322.371094 111.375 C 311.5 112.382812 300.488281 112.183594 289.535156 111.859375 C 290.753906 112.914062 290.800781 115.050781 291.441406 116.480469 C 293.496094 125.605469 299.183594 136.285156 309.988281 134.828125 C 318.667969 130.75 321.863281 120.441406 322.367188 111.375 Z M 322.371094 111.375 " fill-opacity="1" fill-rule="nonzero"/></g></svg>