<svg xmlns="http://www.w3.org/2000/svg" xmlns:xlink="http://www.w3.org/1999/xlink" width="500" zoomAndPan="magnify" viewBox="0 0 375 374.999991" height="500" preserveAspectRatio="xMidYMid meet" version="1.0"><defs><clipPath id="e443ff814d"><path d="M 253 200 L 270 200 L 270 227 L 253 227 Z M 253 200 " clip-rule="nonzero"/></clipPath><clipPath id="c3e0394066"><path d="M 80.703125 99.828125 L 316.910156 162.964844 L 253.769531 399.171875 L 17.5625 336.035156 Z M 80.703125 99.828125 " clip-rule="nonzero"/></clipPath><clipPath id="5105c197df"><path d="M 80.703125 99.828125 L 316.910156 162.964844 L 253.769531 399.171875 L 17.5625 336.035156 Z M 80.703125 99.828125 " clip-rule="nonzero"/></clipPath><clipPath id="f75350d87f"><path d="M 70 249 L 87 249 L 87 276 L 70 276 Z M 70 249 " clip-rule="nonzero"/></clipPath><clipPath id="6ab3f78f7c"><path d="M 80.703125 99.828125 L 316.910156 162.964844 L 253.769531 399.171875 L 17.5625 336.035156 Z M 80.703125 99.828125 " clip-rule="nonzero"/></clipPath><clipPath id="55e9d0eaa4"><path d="M 80.703125 99.828125 L 316.910156 162.964844 L 253.769531 399.171875 L 17.5625 336.035156 Z M 80.703125 99.828125 " clip-rule="nonzero"/></clipPath><clipPath id="4af6bb7f73"><path d="M 258 218 L 275 218 L 275 246 L 258 246 Z M 258 218 " clip-rule="nonzero"/></clipPath><clipPath id="459770acf7"><path d="M 80.703125 99.828125 L 316.910156 162.964844 L 253.769531 399.171875 L 17.5625 336.035156 Z M 80.703125 99.828125 " clip-rule="nonzero"/></clipPath><clipPath id="ad4ec78cd1"><path d="M 80.703125 99.828125 L 316.910156 162.964844 L 253.769531 399.171875 L 17.5625 336.035156 Z M 80.703125 99.828125 " clip-rule="nonzero"/></clipPath><clipPath id="1e82f9aed5"><path d="M 75 268 L 92 268 L 92 295 L 75 295 Z M 75 268 " clip-rule="nonzero"/></clipPath><clipPath id="e31cf18068"><path d="M 80.703125 99.828125 L 316.910156 162.964844 L 253.769531 399.171875 L 17.5625 336.035156 Z M 80.703125 99.828125 " clip-rule="nonzero"/></clipPath><clipPath id="e25107fff3"><path d="M 80.703125 99.828125 L 316.910156 162.964844 L 253.769531 399.171875 L 17.5625 336.035156 Z M 80.703125 99.828125 " clip-rule="nonzero"/></clipPath><clipPath id="4bf077cbfd"><path d="M 248 181 L 265 181 L 265 209 L 248 209 Z M 248 181 " clip-rule="nonzero"/></clipPath><clipPath id="d58a3f01cf"><path d="M 80.703125 99.828125 L 316.910156 162.964844 L 253.769531 399.171875 L 17.5625 336.035156 Z M 80.703125 99.828125 " clip-rule="nonzero"/></clipPath><clipPath id="63b88e7ede"><path d="M 80.703125 99.828125 L 316.910156 162.964844 L 253.769531 399.171875 L 17.5625 336.035156 Z M 80.703125 99.828125 " clip-rule="nonzero"/></clipPath><clipPath id="ae5943eb56"><path d="M 65 231 L 82 231 L 82 258 L 65 258 Z M 65 231 " clip-rule="nonzero"/></clipPath><clipPath id="d6e443fbbf"><path d="M 80.703125 99.828125 L 316.910156 162.964844 L 253.769531 399.171875 L 17.5625 336.035156 Z M 80.703125 99.828125 " clip-rule="nonzero"/></clipPath><clipPath id="0f89066e5b"><path d="M 80.703125 99.828125 L 316.910156 162.964844 L 253.769531 399.171875 L 17.5625 336.035156 Z M 80.703125 99.828125 " clip-rule="nonzero"/></clipPath><clipPath id="20388369e5"><path d="M 263 237 L 280 237 L 280 264 L 263 264 Z M 263 237 " clip-rule="nonzero"/></clipPath><clipPath id="be10deedac"><path d="M 80.703125 99.828125 L 316.910156 162.964844 L 253.769531 399.171875 L 17.5625 336.035156 Z M 80.703125 99.828125 " clip-rule="nonzero"/></clipPath><clipPath id="df64f1b105"><path d="M 80.703125 99.828125 L 316.910156 162.964844 L 253.769531 399.171875 L 17.5625 336.035156 Z M 80.703125 99.828125 " clip-rule="nonzero"/></clipPath><clipPath id="7c591fec2a"><path d="M 242 163 L 260 163 L 260 190 L 242 190 Z M 242 163 " clip-rule="nonzero"/></clipPath><clipPath id="7f3bace569"><path d="M 80.703125 99.828125 L 316.910156 162.964844 L 253.769531 399.171875 L 17.5625 336.035156 Z M 80.703125 99.828125 " clip-rule="nonzero"/></clipPath><clipPath id="a6afffb97f"><path d="M 80.703125 99.828125 L 316.910156 162.964844 L 253.769531 399.171875 L 17.5625 336.035156 Z M 80.703125 99.828125 " clip-rule="nonzero"/></clipPath><clipPath id="ca557b6d86"><path d="M 60 212 L 77 212 L 77 239 L 60 239 Z M 60 212 " clip-rule="nonzero"/></clipPath><clipPath id="6cf2a80218"><path d="M 80.703125 99.828125 L 316.910156 162.964844 L 253.769531 399.171875 L 17.5625 336.035156 Z M 80.703125 99.828125 " clip-rule="nonzero"/></clipPath><clipPath id="d96e2328ee"><path d="M 80.703125 99.828125 L 316.910156 162.964844 L 253.769531 399.171875 L 17.5625 336.035156 Z M 80.703125 99.828125 " clip-rule="nonzero"/></clipPath><clipPath id="5df086d441"><path d="M 55 144 L 250 144 L 250 202 L 55 202 Z M 55 144 " clip-rule="nonzero"/></clipPath><clipPath id="f66acb7f04"><path d="M 80.703125 99.828125 L 316.910156 162.964844 L 253.769531 399.171875 L 17.5625 336.035156 Z M 80.703125 99.828125 " clip-rule="nonzero"/></clipPath><clipPath id="f1330cab72"><path d="M 80.703125 99.828125 L 316.910156 162.964844 L 253.769531 399.171875 L 17.5625 336.035156 Z M 80.703125 99.828125 " clip-rule="nonzero"/></clipPath><clipPath id="664c2b670f"><path d="M 268 255 L 285 255 L 285 283 L 268 283 Z M 268 255 " clip-rule="nonzero"/></clipPath><clipPath id="bba8f2d983"><path d="M 80.703125 99.828125 L 316.910156 162.964844 L 253.769531 399.171875 L 17.5625 336.035156 Z M 80.703125 99.828125 " clip-rule="nonzero"/></clipPath><clipPath id="99bd96a1fc"><path d="M 80.703125 99.828125 L 316.910156 162.964844 L 253.769531 399.171875 L 17.5625 336.035156 Z M 80.703125 99.828125 " clip-rule="nonzero"/></clipPath><clipPath id="481a9fd264"><path d="M 237 144 L 255 144 L 255 172 L 237 172 Z M 237 144 " clip-rule="nonzero"/></clipPath><clipPath id="1a184dc796"><path d="M 80.703125 99.828125 L 316.910156 162.964844 L 253.769531 399.171875 L 17.5625 336.035156 Z M 80.703125 99.828125 " clip-rule="nonzero"/></clipPath><clipPath id="1d87dd01af"><path d="M 80.703125 99.828125 L 316.910156 162.964844 L 253.769531 399.171875 L 17.5625 336.035156 Z M 80.703125 99.828125 " clip-rule="nonzero"/></clipPath><clipPath id="131d66761e"><path d="M 55 194 L 72 194 L 72 221 L 55 221 Z M 55 194 " clip-rule="nonzero"/></clipPath><clipPath id="a5e279f577"><path d="M 80.703125 99.828125 L 316.910156 162.964844 L 253.769531 399.171875 L 17.5625 336.035156 Z M 80.703125 99.828125 " clip-rule="nonzero"/></clipPath><clipPath id="c901f7aaa1"><path d="M 80.703125 99.828125 L 316.910156 162.964844 L 253.769531 399.171875 L 17.5625 336.035156 Z M 80.703125 99.828125 " clip-rule="nonzero"/></clipPath><clipPath id="41fbe7f065"><path d="M 233 186 L 267 186 L 267 288 L 233 288 Z M 233 186 " clip-rule="nonzero"/></clipPath><clipPath id="6472fe4d6e"><path d="M 80.703125 99.828125 L 316.910156 162.964844 L 253.769531 399.171875 L 17.5625 336.035156 Z M 80.703125 99.828125 " clip-rule="nonzero"/></clipPath><clipPath id="cdce8020bb"><path d="M 80.703125 99.828125 L 316.910156 162.964844 L 253.769531 399.171875 L 17.5625 336.035156 Z M 80.703125 99.828125 " clip-rule="nonzero"/></clipPath><clipPath id="0bbe5c82dc"><path d="M 82 223 L 108 223 L 108 293 L 82 293 Z M 82 223 " clip-rule="nonzero"/></clipPath><clipPath id="4e13747f72"><path d="M 80.703125 99.828125 L 316.910156 162.964844 L 253.769531 399.171875 L 17.5625 336.035156 Z M 80.703125 99.828125 " clip-rule="nonzero"/></clipPath><clipPath id="2b8e3d3542"><path d="M 80.703125 99.828125 L 316.910156 162.964844 L 253.769531 399.171875 L 17.5625 336.035156 Z M 80.703125 99.828125 " clip-rule="nonzero"/></clipPath><clipPath id="36cf26a167"><path d="M 124 187 L 191 187 L 191 210 L 124 210 Z M 124 187 " clip-rule="nonzero"/></clipPath><clipPath id="4d4e38f92e"><path d="M 80.703125 99.828125 L 316.910156 162.964844 L 253.769531 399.171875 L 17.5625 336.035156 Z M 80.703125 99.828125 " clip-rule="nonzero"/></clipPath><clipPath id="09b032fe36"><path d="M 80.703125 99.828125 L 316.910156 162.964844 L 253.769531 399.171875 L 17.5625 336.035156 Z M 80.703125 99.828125 " clip-rule="nonzero"/></clipPath><clipPath id="37faec31b6"><path d="M 156 269 L 217 269 L 217 291 L 156 291 Z M 156 269 " clip-rule="nonzero"/></clipPath><clipPath id="8e4dd11d86"><path d="M 80.703125 99.828125 L 316.910156 162.964844 L 253.769531 399.171875 L 17.5625 336.035156 Z M 80.703125 99.828125 " clip-rule="nonzero"/></clipPath><clipPath id="3bebc2b3e2"><path d="M 80.703125 99.828125 L 316.910156 162.964844 L 253.769531 399.171875 L 17.5625 336.035156 Z M 80.703125 99.828125 " clip-rule="nonzero"/></clipPath><clipPath id="dff046155a"><path d="M 228 264 L 246 264 L 246 273 L 228 273 Z M 228 264 " clip-rule="nonzero"/></clipPath><clipPath id="a27715b254"><path d="M 80.703125 99.828125 L 316.910156 162.964844 L 253.769531 399.171875 L 17.5625 336.035156 Z M 80.703125 99.828125 " clip-rule="nonzero"/></clipPath><clipPath id="d1005e0bbe"><path d="M 80.703125 99.828125 L 316.910156 162.964844 L 253.769531 399.171875 L 17.5625 336.035156 Z M 80.703125 99.828125 " clip-rule="nonzero"/></clipPath><clipPath id="6b9ed82335"><path d="M 205 175 L 224 175 L 224 189 L 205 189 Z M 205 175 " clip-rule="nonzero"/></clipPath><clipPath id="e145e2949c"><path d="M 80.703125 99.828125 L 316.910156 162.964844 L 253.769531 399.171875 L 17.5625 336.035156 Z M 80.703125 99.828125 " clip-rule="nonzero"/></clipPath><clipPath id="dbe57cf069"><path d="M 80.703125 99.828125 L 316.910156 162.964844 L 253.769531 399.171875 L 17.5625 336.035156 Z M 80.703125 99.828125 " clip-rule="nonzero"/></clipPath><clipPath id="eee0630408"><path d="M 123 289 L 142 289 L 142 303 L 123 303 Z M 123 289 " clip-rule="nonzero"/></clipPath><clipPath id="712b72c342"><path d="M 80.703125 99.828125 L 316.910156 162.964844 L 253.769531 399.171875 L 17.5625 336.035156 Z M 80.703125 99.828125 " clip-rule="nonzero"/></clipPath><clipPath id="f7d49af1f5"><path d="M 80.703125 99.828125 L 316.910156 162.964844 L 253.769531 399.171875 L 17.5625 336.035156 Z M 80.703125 99.828125 " clip-rule="nonzero"/></clipPath><clipPath id="29bef80a19"><path d="M 95 207 L 113 207 L 113 215 L 95 215 Z M 95 207 " clip-rule="nonzero"/></clipPath><clipPath id="f0d7613f12"><path d="M 80.703125 99.828125 L 316.910156 162.964844 L 253.769531 399.171875 L 17.5625 336.035156 Z M 80.703125 99.828125 " clip-rule="nonzero"/></clipPath><clipPath id="5e141758df"><path d="M 80.703125 99.828125 L 316.910156 162.964844 L 253.769531 399.171875 L 17.5625 336.035156 Z M 80.703125 99.828125 " clip-rule="nonzero"/></clipPath><clipPath id="5ccd8a5f48"><path d="M 80 274 L 285 274 L 285 314 L 80 314 Z M 80 274 " clip-rule="nonzero"/></clipPath><clipPath id="38eb9f2128"><path d="M 80.703125 99.828125 L 316.910156 162.964844 L 253.769531 399.171875 L 17.5625 336.035156 Z M 80.703125 99.828125 " clip-rule="nonzero"/></clipPath><clipPath id="c0afb1a14c"><path d="M 80.703125 99.828125 L 316.910156 162.964844 L 253.769531 399.171875 L 17.5625 336.035156 Z M 80.703125 99.828125 " clip-rule="nonzero"/></clipPath><clipPath id="95f71d2b1d"><path d="M 72 343 L 80 343 L 80 351 L 72 351 Z M 72 343 " clip-rule="nonzero"/></clipPath><clipPath id="c0aff150dd"><path d="M 80.703125 99.828125 L 316.910156 162.964844 L 253.769531 399.171875 L 17.5625 336.035156 Z M 80.703125 99.828125 " clip-rule="nonzero"/></clipPath><clipPath id="94937a918b"><path d="M 80.703125 99.828125 L 316.910156 162.964844 L 253.769531 399.171875 L 17.5625 336.035156 Z M 80.703125 99.828125 " clip-rule="nonzero"/></clipPath><clipPath id="54b2f5bf6f"><path d="M 90 348 L 99 348 L 99 356 L 90 356 Z M 90 348 " clip-rule="nonzero"/></clipPath><clipPath id="805ef33963"><path d="M 80.703125 99.828125 L 316.910156 162.964844 L 253.769531 399.171875 L 17.5625 336.035156 Z M 80.703125 99.828125 " clip-rule="nonzero"/></clipPath><clipPath id="dd190e853a"><path d="M 80.703125 99.828125 L 316.910156 162.964844 L 253.769531 399.171875 L 17.5625 336.035156 Z M 80.703125 99.828125 " clip-rule="nonzero"/></clipPath><clipPath id="6dfdc1decb"><path d="M 109 353 L 118 353 L 118 361 L 109 361 Z M 109 353 " clip-rule="nonzero"/></clipPath><clipPath id="326c982dc6"><path d="M 80.703125 99.828125 L 316.910156 162.964844 L 253.769531 399.171875 L 17.5625 336.035156 Z M 80.703125 99.828125 " clip-rule="nonzero"/></clipPath><clipPath id="3142ca616b"><path d="M 80.703125 99.828125 L 316.910156 162.964844 L 253.769531 399.171875 L 17.5625 336.035156 Z M 80.703125 99.828125 " clip-rule="nonzero"/></clipPath><clipPath id="4ccee11e04"><path d="M 83 329 L 92 329 L 92 338 L 83 338 Z M 83 329 " clip-rule="nonzero"/></clipPath><clipPath id="d1014da883"><path d="M 80.703125 99.828125 L 316.910156 162.964844 L 253.769531 399.171875 L 17.5625 336.035156 Z M 80.703125 99.828125 " clip-rule="nonzero"/></clipPath><clipPath id="24670a42a0"><path d="M 80.703125 99.828125 L 316.910156 162.964844 L 253.769531 399.171875 L 17.5625 336.035156 Z M 80.703125 99.828125 " clip-rule="nonzero"/></clipPath><clipPath id="8b9f098c09"><path d="M 102 334 L 111 334 L 111 343 L 102 343 Z M 102 334 " clip-rule="nonzero"/></clipPath><clipPath id="2f856bfb99"><path d="M 80.703125 99.828125 L 316.910156 162.964844 L 253.769531 399.171875 L 17.5625 336.035156 Z M 80.703125 99.828125 " clip-rule="nonzero"/></clipPath><clipPath id="9f3ff20239"><path d="M 80.703125 99.828125 L 316.910156 162.964844 L 253.769531 399.171875 L 17.5625 336.035156 Z M 80.703125 99.828125 " clip-rule="nonzero"/></clipPath><clipPath id="96c98cebdf"><path d="M 121 340 L 130 340 L 130 348 L 121 348 Z M 121 340 " clip-rule="nonzero"/></clipPath><clipPath id="8bee8ab3d3"><path d="M 80.703125 99.828125 L 316.910156 162.964844 L 253.769531 399.171875 L 17.5625 336.035156 Z M 80.703125 99.828125 " clip-rule="nonzero"/></clipPath><clipPath id="32bf3b8929"><path d="M 80.703125 99.828125 L 316.910156 162.964844 L 253.769531 399.171875 L 17.5625 336.035156 Z M 80.703125 99.828125 " clip-rule="nonzero"/></clipPath><clipPath id="12c7afbd53"><path d="M 99 317 L 107 317 L 107 326 L 99 326 Z M 99 317 " clip-rule="nonzero"/></clipPath><clipPath id="d0f7ec2f6f"><path d="M 80.703125 99.828125 L 316.910156 162.964844 L 253.769531 399.171875 L 17.5625 336.035156 Z M 80.703125 99.828125 " clip-rule="nonzero"/></clipPath><clipPath id="55ffd66f12"><path d="M 80.703125 99.828125 L 316.910156 162.964844 L 253.769531 399.171875 L 17.5625 336.035156 Z M 80.703125 99.828125 " clip-rule="nonzero"/></clipPath><clipPath id="13dc36e39f"><path d="M 117 322 L 126 322 L 126 331 L 117 331 Z M 117 322 " clip-rule="nonzero"/></clipPath><clipPath id="75141f794c"><path d="M 80.703125 99.828125 L 316.910156 162.964844 L 253.769531 399.171875 L 17.5625 336.035156 Z M 80.703125 99.828125 " clip-rule="nonzero"/></clipPath><clipPath id="687d875dd7"><path d="M 80.703125 99.828125 L 316.910156 162.964844 L 253.769531 399.171875 L 17.5625 336.035156 Z M 80.703125 99.828125 " clip-rule="nonzero"/></clipPath><clipPath id="3b44db9252"><path d="M 128 358 L 137 358 L 137 367 L 128 367 Z M 128 358 " clip-rule="nonzero"/></clipPath><clipPath id="92fa564d44"><path d="M 80.703125 99.828125 L 316.910156 162.964844 L 253.769531 399.171875 L 17.5625 336.035156 Z M 80.703125 99.828125 " clip-rule="nonzero"/></clipPath><clipPath id="43419eb612"><path d="M 80.703125 99.828125 L 316.910156 162.964844 L 253.769531 399.171875 L 17.5625 336.035156 Z M 80.703125 99.828125 " clip-rule="nonzero"/></clipPath><clipPath id="1051c03ecd"><path d="M 45 0 L 102 0 L 102 21 L 45 21 Z M 45 0 " clip-rule="nonzero"/></clipPath><clipPath id="452ce3d2e2"><path d="M 56.289062 0 L 348.722656 21.871094 L 338.375 160.234375 L 45.941406 138.363281 Z M 56.289062 0 " clip-rule="nonzero"/></clipPath><clipPath id="c2256730af"><path d="M -181.625 -112.679688 L 356.125 -72.460938 L 338.726562 160.140625 L -199.019531 119.921875 Z M -181.625 -112.679688 " clip-rule="nonzero"/></clipPath><clipPath id="1a5641928f"><path d="M 61 14 L 343 14 L 343 160 L 61 160 Z M 61 14 " clip-rule="nonzero"/></clipPath><clipPath id="60be84713f"><path d="M 56.289062 0 L 348.722656 21.871094 L 338.375 160.234375 L 45.941406 138.363281 Z M 56.289062 0 " clip-rule="nonzero"/></clipPath><clipPath id="87c66c7f11"><path d="M -181.625 -112.679688 L 356.125 -72.460938 L 338.726562 160.140625 L -199.019531 119.921875 Z M -181.625 -112.679688 " clip-rule="nonzero"/></clipPath><clipPath id="6514511a53"><path d="M 91 35 L 109 35 L 109 79 L 91 79 Z M 91 35 " clip-rule="nonzero"/></clipPath><clipPath id="ef336b55dd"><path d="M 56.289062 0 L 348.722656 21.871094 L 338.375 160.234375 L 45.941406 138.363281 Z M 56.289062 0 " clip-rule="nonzero"/></clipPath><clipPath id="b1a048919d"><path d="M -181.625 -112.679688 L 356.125 -72.460938 L 338.726562 160.140625 L -199.019531 119.921875 Z M -181.625 -112.679688 " clip-rule="nonzero"/></clipPath><clipPath id="9f64db5b60"><path d="M 106 47 L 117 47 L 117 69 L 106 69 Z M 106 47 " clip-rule="nonzero"/></clipPath><clipPath id="ff34ea6337"><path d="M 56.289062 0 L 348.722656 21.871094 L 338.375 160.234375 L 45.941406 138.363281 Z M 56.289062 0 " clip-rule="nonzero"/></clipPath><clipPath id="4c0d3b108f"><path d="M -181.625 -112.679688 L 356.125 -72.460938 L 338.726562 160.140625 L -199.019531 119.921875 Z M -181.625 -112.679688 " clip-rule="nonzero"/></clipPath><clipPath id="e021b603e9"><path d="M 128 72 L 140 72 L 140 80 L 128 80 Z M 128 72 " clip-rule="nonzero"/></clipPath><clipPath id="c43cb2aaf4"><path d="M 56.289062 0 L 348.722656 21.871094 L 338.375 160.234375 L 45.941406 138.363281 Z M 56.289062 0 " clip-rule="nonzero"/></clipPath><clipPath id="ff69b67129"><path d="M -181.625 -112.679688 L 356.125 -72.460938 L 338.726562 160.140625 L -199.019531 119.921875 Z M -181.625 -112.679688 " clip-rule="nonzero"/></clipPath><clipPath id="667a0267e9"><path d="M 283 102 L 295 102 L 295 123 L 283 123 Z M 283 102 " clip-rule="nonzero"/></clipPath><clipPath id="7298c59a97"><path d="M 56.289062 0 L 348.722656 21.871094 L 338.375 160.234375 L 45.941406 138.363281 Z M 56.289062 0 " clip-rule="nonzero"/></clipPath><clipPath id="192d99ace8"><path d="M -181.625 -112.679688 L 356.125 -72.460938 L 338.726562 160.140625 L -199.019531 119.921875 Z M -181.625 -112.679688 " clip-rule="nonzero"/></clipPath><clipPath id="626410ac1b"><path d="M 296 97 L 309 97 L 309 128 L 296 128 Z M 296 97 " clip-rule="nonzero"/></clipPath><clipPath id="bbe355bab7"><path d="M 56.289062 0 L 348.722656 21.871094 L 338.375 160.234375 L 45.941406 138.363281 Z M 56.289062 0 " clip-rule="nonzero"/></clipPath><clipPath id="e8fa0e345a"><path d="M -181.625 -112.679688 L 356.125 -72.460938 L 338.726562 160.140625 L -199.019531 119.921875 Z M -181.625 -112.679688 " clip-rule="nonzero"/></clipPath></defs><g clip-path="url(#e443ff814d)"><g clip-path="url(#c3e0394066)"><g clip-path="url(#5105c197df)"><path fill="#bcbcbc" d="M 264.75 226.582031 C 264.203125 226.433594 263.65625 226.164062 263.195312 225.753906 L 254.4375 218.132812 C 253.238281 217.097656 252.796875 215.429688 253.296875 213.914062 L 256.984375 203.023438 C 257.691406 200.976562 259.890625 199.867188 261.96875 200.566406 C 264.015625 201.273438 265.101562 203.496094 264.410156 205.546875 L 261.5625 213.949219 L 268.34375 219.835938 C 269.976562 221.257812 270.144531 223.726562 268.722656 225.359375 C 267.710938 226.53125 266.15625 226.957031 264.75 226.582031 " fill-opacity="1" fill-rule="nonzero"/></g></g></g><g clip-path="url(#f75350d87f)"><g clip-path="url(#6ab3f78f7c)"><g clip-path="url(#55e9d0eaa4)"><path fill="#bcbcbc" d="M 78.199219 275.765625 C 78.109375 275.742188 78.023438 275.71875 77.949219 275.699219 C 75.902344 274.992188 74.796875 272.78125 75.488281 270.730469 L 78.335938 262.328125 L 71.558594 256.425781 C 69.925781 255.007812 69.761719 252.535156 71.179688 250.902344 C 72.597656 249.269531 75.070312 249.105469 76.707031 250.507812 L 85.464844 258.128906 C 86.660156 259.179688 87.105469 260.835938 86.605469 262.351562 L 82.917969 273.238281 C 82.25 275.199219 80.167969 276.292969 78.199219 275.765625 " fill-opacity="1" fill-rule="nonzero"/></g></g></g><g clip-path="url(#4af6bb7f73)"><g clip-path="url(#459770acf7)"><g clip-path="url(#ad4ec78cd1)"><path fill="#bcbcbc" d="M 269.820312 245.089844 C 269.261719 244.941406 268.730469 244.671875 268.253906 244.257812 L 259.507812 236.640625 C 258.3125 235.609375 257.855469 233.933594 258.367188 232.4375 L 262.058594 221.535156 C 262.746094 219.484375 264.953125 218.40625 267.027344 219.074219 C 269.074219 219.777344 270.179688 221.992188 269.484375 224.058594 L 266.636719 232.460938 L 273.402344 238.34375 C 275.03125 239.777344 275.210938 242.25 273.789062 243.882812 C 272.765625 245.050781 271.214844 245.460938 269.820312 245.089844 " fill-opacity="1" fill-rule="nonzero"/></g></g></g><g clip-path="url(#1e82f9aed5)"><g clip-path="url(#e31cf18068)"><g clip-path="url(#e25107fff3)"><path fill="#bcbcbc" d="M 83.253906 294.285156 C 83.179688 294.265625 83.089844 294.242188 83.003906 294.203125 C 80.953125 293.511719 79.851562 291.285156 80.542969 289.234375 L 83.390625 280.832031 L 76.628906 274.933594 C 74.996094 273.515625 74.816406 271.042969 76.238281 269.40625 C 77.671875 267.777344 80.144531 267.597656 81.777344 269.019531 L 90.523438 276.636719 C 91.71875 277.683594 92.175781 279.34375 91.660156 280.855469 L 87.972656 291.742188 C 87.304688 293.71875 85.234375 294.816406 83.253906 294.285156 " fill-opacity="1" fill-rule="nonzero"/></g></g></g><g clip-path="url(#4bf077cbfd)"><g clip-path="url(#d58a3f01cf)"><g clip-path="url(#63b88e7ede)"><path fill="#bcbcbc" d="M 259.695312 208.074219 C 259.132812 207.925781 258.601562 207.65625 258.125 207.246094 L 249.378906 199.628906 C 248.1875 198.578125 247.726562 196.917969 248.242188 195.40625 L 251.929688 184.519531 C 252.621094 182.46875 254.8125 181.375 256.898438 182.058594 C 258.949219 182.75 260.050781 184.976562 259.359375 187.027344 L 256.507812 195.445312 L 263.273438 201.328125 C 264.90625 202.746094 265.085938 205.222656 263.667969 206.855469 C 262.640625 208.023438 261.085938 208.449219 259.695312 208.074219 " fill-opacity="1" fill-rule="nonzero"/></g></g></g><g clip-path="url(#ae5943eb56)"><g clip-path="url(#d6e443fbbf)"><g clip-path="url(#0f89066e5b)"><path fill="#bcbcbc" d="M 73.128906 257.257812 C 73.054688 257.238281 72.964844 257.214844 72.875 257.191406 C 70.828125 256.484375 69.722656 254.269531 70.417969 252.207031 L 73.265625 243.804688 L 66.5 237.921875 C 64.867188 236.5 64.691406 234.011719 66.113281 232.378906 C 67.542969 230.765625 70.015625 230.585938 71.648438 232.003906 L 80.394531 239.621094 C 81.589844 240.667969 82.046875 242.332031 81.535156 243.828125 L 77.84375 254.730469 C 77.179688 256.691406 75.109375 257.789062 73.128906 257.257812 " fill-opacity="1" fill-rule="nonzero"/></g></g></g><g clip-path="url(#20388369e5)"><g clip-path="url(#be10deedac)"><g clip-path="url(#df64f1b105)"><path fill="#bcbcbc" d="M 274.878906 263.59375 C 274.332031 263.449219 273.785156 263.175781 273.320312 262.78125 L 264.578125 255.164062 C 263.367188 254.113281 262.921875 252.457031 263.4375 250.945312 L 267.109375 240.054688 C 267.816406 238.007812 270.074219 236.914062 272.09375 237.597656 C 274.144531 238.289062 275.230469 240.511719 274.539062 242.5625 L 271.707031 250.96875 L 278.46875 256.867188 C 280.101562 258.285156 280.28125 260.757812 278.863281 262.394531 C 277.835938 263.5625 276.285156 263.972656 274.878906 263.59375 " fill-opacity="1" fill-rule="nonzero"/></g></g></g><g clip-path="url(#7c591fec2a)"><g clip-path="url(#7f3bace569)"><g clip-path="url(#a6afffb97f)"><path fill="#bcbcbc" d="M 254.621094 189.566406 C 254.058594 189.417969 253.53125 189.132812 253.070312 188.726562 L 244.308594 181.117188 C 243.113281 180.070312 242.667969 178.414062 243.167969 176.898438 L 246.855469 166.011719 C 247.546875 163.960938 249.796875 162.894531 251.828125 163.550781 C 253.878906 164.242188 254.976562 166.46875 254.285156 168.519531 L 251.4375 176.921875 L 258.21875 182.808594 C 259.851562 184.242188 260.027344 186.714844 258.59375 188.347656 C 257.582031 189.519531 256.027344 189.941406 254.621094 189.566406 " fill-opacity="1" fill-rule="nonzero"/></g></g></g><g clip-path="url(#ca557b6d86)"><g clip-path="url(#6cf2a80218)"><g clip-path="url(#d96e2328ee)"><path fill="#bcbcbc" d="M 68.070312 238.753906 C 67.980469 238.730469 67.90625 238.707031 67.824219 238.671875 C 65.773438 237.980469 64.671875 235.75 65.363281 233.699219 L 68.195312 225.292969 L 61.429688 219.410156 C 59.800781 217.976562 59.621094 215.503906 61.054688 213.875 C 62.476562 212.238281 64.945312 212.074219 66.578125 213.496094 L 75.328125 221.097656 C 76.535156 222.148438 76.980469 223.804688 76.464844 225.316406 L 72.792969 236.210938 C 72.121094 238.1875 70.039062 239.277344 68.070312 238.753906 " fill-opacity="1" fill-rule="nonzero"/></g></g></g><g clip-path="url(#5df086d441)"><g clip-path="url(#f66acb7f04)"><g clip-path="url(#f1330cab72)"><path fill="#bcbcbc" d="M 57.929688 201.71875 C 56.628906 201.371094 55.523438 200.347656 55.152344 198.949219 C 54.601562 196.851562 55.84375 194.695312 57.941406 194.144531 L 76.601562 189.222656 C 77.332031 189.039062 78.121094 189.058594 78.847656 189.300781 L 88.75 192.644531 L 217.074219 158.808594 L 223.914062 151.078125 C 224.433594 150.488281 225.101562 150.078125 225.847656 149.882812 L 244.507812 144.964844 C 246.605469 144.414062 248.742188 145.667969 249.296875 147.75 C 249.859375 149.851562 248.605469 151.988281 246.511719 152.539062 L 228.992188 157.160156 L 222.152344 164.90625 C 221.632812 165.480469 220.96875 165.890625 220.21875 166.085938 L 89.609375 200.515625 C 88.875 200.71875 88.085938 200.695312 87.359375 200.453125 L 77.457031 197.109375 L 59.941406 201.734375 C 59.257812 201.914062 58.566406 201.890625 57.929688 201.71875 " fill-opacity="1" fill-rule="nonzero"/></g></g></g><g clip-path="url(#664c2b670f)"><g clip-path="url(#bba8f2d983)"><g clip-path="url(#99bd96a1fc)"><path fill="#bcbcbc" d="M 279.945312 282.117188 C 279.382812 281.96875 278.855469 281.699219 278.390625 281.292969 L 269.632812 273.671875 C 268.4375 272.621094 267.980469 270.960938 268.496094 269.449219 L 272.183594 258.5625 C 272.871094 256.511719 275.09375 255.441406 277.152344 256.101562 C 279.203125 256.792969 280.304688 259.019531 279.613281 261.070312 L 276.765625 269.472656 L 283.542969 275.375 C 285.175781 276.792969 285.335938 279.277344 283.917969 280.898438 C 282.910156 282.070312 281.351562 282.496094 279.945312 282.117188 " fill-opacity="1" fill-rule="nonzero"/></g></g></g><g clip-path="url(#481a9fd264)"><g clip-path="url(#1a184dc796)"><g clip-path="url(#1d87dd01af)"><path fill="#bcbcbc" d="M 249.554688 171.042969 C 249.007812 170.898438 248.460938 170.625 248 170.214844 L 239.25 162.613281 C 238.042969 161.5625 237.601562 159.890625 238.113281 158.394531 L 241.804688 147.492188 C 242.492188 145.453125 244.734375 144.359375 246.769531 145.042969 C 248.820312 145.734375 249.921875 147.964844 249.230469 150.015625 L 246.382812 158.417969 L 253.148438 164.300781 C 254.777344 165.734375 254.957031 168.207031 253.539062 169.839844 C 252.511719 171.007812 250.960938 171.417969 249.554688 171.042969 " fill-opacity="1" fill-rule="nonzero"/></g></g></g><g clip-path="url(#131d66761e)"><g clip-path="url(#a5e279f577)"><g clip-path="url(#c901f7aaa1)"><path fill="#bcbcbc" d="M 63 220.242188 C 62.910156 220.21875 62.835938 220.199219 62.75 220.160156 C 60.699219 219.46875 59.601562 217.242188 60.289062 215.191406 L 63.140625 206.789062 L 56.375 200.890625 C 54.742188 199.472656 54.5625 197 55.984375 195.363281 C 57.402344 193.730469 59.871094 193.566406 61.519531 194.992188 L 70.269531 202.59375 C 71.464844 203.640625 71.921875 205.300781 71.410156 206.8125 L 67.722656 217.699219 C 67.050781 219.675781 64.980469 220.773438 63 220.242188 " fill-opacity="1" fill-rule="nonzero"/></g></g></g><g clip-path="url(#41fbe7f065)"><g clip-path="url(#6472fe4d6e)"><g clip-path="url(#cdce8020bb)"><path fill="#bcbcbc" d="M 261.289062 287.039062 C 259.984375 286.691406 258.910156 285.675781 258.519531 284.285156 L 233.199219 191.71875 C 232.632812 189.632812 233.859375 187.472656 235.945312 186.90625 C 238.03125 186.335938 240.191406 187.566406 240.773438 189.65625 L 266.082031 282.21875 C 266.664062 284.308594 265.421875 286.464844 263.335938 287.03125 C 262.652344 287.214844 261.9375 287.214844 261.289062 287.039062 " fill-opacity="1" fill-rule="nonzero"/></g></g></g><g clip-path="url(#0bbe5c82dc)"><g clip-path="url(#4e13747f72)"><g clip-path="url(#2b8e3d3542)"><path fill="#bcbcbc" d="M 102.792969 292.644531 C 101.492188 292.296875 100.414062 291.296875 100.027344 289.890625 L 83.074219 227.988281 C 82.507812 225.902344 83.730469 223.757812 85.820312 223.171875 C 87.90625 222.605469 90.066406 223.832031 90.636719 225.917969 L 107.585938 287.824219 C 108.15625 289.910156 106.925781 292.070312 104.839844 292.636719 C 104.152344 292.835938 103.445312 292.820312 102.792969 292.644531 " fill-opacity="1" fill-rule="nonzero"/></g></g></g><g clip-path="url(#36cf26a167)"><g clip-path="url(#4d4e38f92e)"><g clip-path="url(#09b032fe36)"><path fill="#bcbcbc" d="M 127.03125 209.441406 C 125.90625 209.140625 124.980469 208.277344 124.667969 207.082031 C 124.195312 205.292969 125.253906 203.464844 127.039062 203.007812 L 186.121094 187.425781 C 187.898438 186.949219 189.71875 188.023438 190.195312 189.800781 C 190.65625 191.570312 189.597656 193.398438 187.808594 193.871094 L 128.742188 209.457031 C 128.164062 209.601562 127.566406 209.585938 127.03125 209.441406 " fill-opacity="1" fill-rule="nonzero"/></g></g></g><g clip-path="url(#37faec31b6)"><g clip-path="url(#8e4dd11d86)"><g clip-path="url(#3bebc2b3e2)"><path fill="#bcbcbc" d="M 159.148438 290.285156 C 158.023438 289.984375 157.097656 289.121094 156.773438 287.90625 C 156.3125 286.136719 157.371094 284.308594 159.144531 283.832031 L 212.015625 269.90625 C 213.789062 269.429688 215.613281 270.503906 216.089844 272.277344 C 216.550781 274.050781 215.492188 275.875 213.714844 276.351562 L 160.847656 290.28125 C 160.265625 290.441406 159.679688 290.429688 159.148438 290.285156 " fill-opacity="1" fill-rule="nonzero"/></g></g></g><g clip-path="url(#dff046155a)"><g clip-path="url(#a27715b254)"><g clip-path="url(#d1005e0bbe)"><path fill="#bcbcbc" d="M 230.660156 271.433594 C 229.152344 271.03125 228.085938 269.621094 228.199219 268.015625 C 228.308594 266.175781 229.890625 264.773438 231.730469 264.886719 L 241.898438 265.511719 C 243.738281 265.625 245.140625 267.203125 245.015625 269.039062 C 244.902344 270.882812 243.328125 272.265625 241.488281 272.15625 L 231.3125 271.542969 C 231.09375 271.535156 230.867188 271.488281 230.660156 271.433594 " fill-opacity="1" fill-rule="nonzero"/></g></g></g><g clip-path="url(#6b9ed82335)"><g clip-path="url(#e145e2949c)"><g clip-path="url(#dbe57cf069)"><path fill="#bcbcbc" d="M 207.871094 188.136719 C 207.027344 187.910156 206.261719 187.339844 205.8125 186.523438 C 204.929688 184.910156 205.519531 182.878906 207.121094 181.992188 L 218.714844 175.625 C 220.332031 174.742188 222.359375 175.332031 223.25 176.933594 C 224.132812 178.546875 223.542969 180.578125 221.925781 181.460938 L 210.332031 187.828125 C 209.550781 188.265625 208.671875 188.351562 207.871094 188.136719 " fill-opacity="1" fill-rule="nonzero"/></g></g></g><g clip-path="url(#eee0630408)"><g clip-path="url(#712b72c342)"><g clip-path="url(#f7d49af1f5)"><path fill="#bcbcbc" d="M 125.777344 302.386719 C 124.933594 302.164062 124.179688 301.597656 123.722656 300.761719 C 122.835938 299.160156 123.425781 297.128906 125.039062 296.246094 L 136.636719 289.878906 C 138.234375 288.992188 140.265625 289.582031 141.148438 291.199219 C 142.035156 292.8125 141.441406 294.84375 139.828125 295.726562 L 128.238281 302.078125 C 127.453125 302.519531 126.574219 302.601562 125.777344 302.386719 " fill-opacity="1" fill-rule="nonzero"/></g></g></g><g clip-path="url(#29bef80a19)"><g clip-path="url(#f0d7613f12)"><g clip-path="url(#5e141758df)"><path fill="#bcbcbc" d="M 98.1875 213.734375 C 96.695312 213.332031 95.628906 211.921875 95.726562 210.316406 C 95.835938 208.476562 97.433594 207.078125 99.257812 207.1875 L 109.425781 207.8125 C 111.28125 207.925781 112.664062 209.515625 112.558594 211.34375 C 112.445312 213.183594 110.867188 214.585938 109.023438 214.472656 L 98.855469 213.847656 C 98.621094 213.832031 98.398438 213.789062 98.1875 213.734375 " fill-opacity="1" fill-rule="nonzero"/></g></g></g><g clip-path="url(#5ccd8a5f48)"><g clip-path="url(#38eb9f2128)"><g clip-path="url(#c0afb1a14c)"><path fill="#bcbcbc" d="M 134.453125 313.871094 L 91.796875 302.46875 C 90.746094 302.1875 89.871094 301.492188 89.351562 300.53125 C 89.246094 300.328125 89.15625 300.128906 89.085938 299.921875 L 81.664062 293.464844 C 80.03125 292.046875 79.871094 289.5625 81.289062 287.929688 C 82.710938 286.292969 85.179688 286.128906 86.8125 287.550781 L 95.570312 295.167969 C 95.679688 295.246094 95.765625 295.332031 95.863281 295.4375 L 135.472656 306.027344 L 250.289062 275.761719 C 251.019531 275.574219 251.824219 275.585938 252.535156 275.839844 L 262.445312 279.152344 L 279.960938 274.53125 C 282.058594 273.980469 284.199219 275.21875 284.75 277.316406 C 285.3125 279.417969 284.0625 281.554688 281.964844 282.105469 L 263.320312 287.027344 C 262.585938 287.226562 261.800781 287.191406 261.089844 286.953125 L 251.160156 283.652344 L 136.46875 313.871094 C 135.804688 314.042969 135.105469 314.042969 134.453125 313.871094 " fill-opacity="1" fill-rule="nonzero"/></g></g></g><g clip-path="url(#95f71d2b1d)"><g clip-path="url(#c0aff150dd)"><g clip-path="url(#94937a918b)"><path fill="#bcbcbc" d="M 79.722656 347.941406 C 80.28125 345.855469 79.03125 343.699219 76.945312 343.140625 C 74.859375 342.582031 72.703125 343.832031 72.144531 345.917969 C 71.589844 348.003906 72.835938 350.160156 74.921875 350.71875 C 77.007812 351.273438 79.164062 350.027344 79.722656 347.941406 " fill-opacity="1" fill-rule="nonzero"/></g></g></g><g clip-path="url(#54b2f5bf6f)"><g clip-path="url(#805ef33963)"><g clip-path="url(#dd190e853a)"><path fill="#bcbcbc" d="M 98.660156 353.003906 C 99.21875 350.917969 97.972656 348.761719 95.886719 348.203125 C 93.800781 347.644531 91.644531 348.894531 91.085938 350.980469 C 90.527344 353.066406 91.773438 355.222656 93.859375 355.78125 C 95.945312 356.335938 98.101562 355.089844 98.660156 353.003906 " fill-opacity="1" fill-rule="nonzero"/></g></g></g><g clip-path="url(#6dfdc1decb)"><g clip-path="url(#326c982dc6)"><g clip-path="url(#3142ca616b)"><path fill="#bcbcbc" d="M 117.601562 358.066406 C 118.15625 355.980469 116.910156 353.824219 114.824219 353.265625 C 112.738281 352.707031 110.582031 353.957031 110.023438 356.042969 C 109.464844 358.128906 110.714844 360.285156 112.800781 360.84375 C 114.886719 361.398438 117.042969 360.152344 117.601562 358.066406 " fill-opacity="1" fill-rule="nonzero"/></g></g></g><g clip-path="url(#4ccee11e04)"><g clip-path="url(#d1014da883)"><g clip-path="url(#24670a42a0)"><path fill="#bcbcbc" d="M 91.347656 334.816406 C 91.90625 332.730469 90.660156 330.574219 88.570312 330.015625 C 86.484375 329.457031 84.328125 330.703125 83.773438 332.789062 C 83.214844 334.875 84.460938 337.03125 86.546875 337.589844 C 88.632812 338.148438 90.789062 336.902344 91.347656 334.816406 " fill-opacity="1" fill-rule="nonzero"/></g></g></g><g clip-path="url(#8b9f098c09)"><g clip-path="url(#2f856bfb99)"><g clip-path="url(#9f3ff20239)"><path fill="#bcbcbc" d="M 110.285156 339.878906 C 110.84375 337.792969 109.597656 335.636719 107.511719 335.078125 C 105.425781 334.519531 103.269531 335.765625 102.710938 337.851562 C 102.152344 339.9375 103.398438 342.09375 105.484375 342.652344 C 107.570312 343.210938 109.730469 341.964844 110.285156 339.878906 " fill-opacity="1" fill-rule="nonzero"/></g></g></g><g clip-path="url(#96c98cebdf)"><g clip-path="url(#8bee8ab3d3)"><g clip-path="url(#32bf3b8929)"><path fill="#bcbcbc" d="M 129.226562 344.941406 C 129.78125 342.855469 128.535156 340.699219 126.449219 340.140625 C 124.363281 339.582031 122.207031 340.828125 121.648438 342.914062 C 121.09375 345 122.339844 347.15625 124.425781 347.714844 C 126.511719 348.273438 128.667969 347.027344 129.226562 344.941406 " fill-opacity="1" fill-rule="nonzero"/></g></g></g><g clip-path="url(#12c7afbd53)"><g clip-path="url(#d0f7ec2f6f)"><g clip-path="url(#55ffd66f12)"><path fill="#bcbcbc" d="M 106.761719 322.703125 C 107.320312 320.617188 106.070312 318.460938 103.984375 317.902344 C 101.898438 317.34375 99.742188 318.589844 99.183594 320.675781 C 98.628906 322.761719 99.875 324.917969 101.960938 325.476562 C 104.046875 326.035156 106.203125 324.789062 106.761719 322.703125 " fill-opacity="1" fill-rule="nonzero"/></g></g></g><g clip-path="url(#13dc36e39f)"><g clip-path="url(#75141f794c)"><g clip-path="url(#687d875dd7)"><path fill="#bcbcbc" d="M 125.699219 327.765625 C 126.257812 325.679688 125.011719 323.523438 122.925781 322.964844 C 120.839844 322.40625 118.683594 323.652344 118.125 325.738281 C 117.566406 327.824219 118.8125 329.980469 120.898438 330.539062 C 122.984375 331.097656 125.140625 329.851562 125.699219 327.765625 " fill-opacity="1" fill-rule="nonzero"/></g></g></g><g clip-path="url(#3b44db9252)"><g clip-path="url(#92fa564d44)"><g clip-path="url(#43419eb612)"><path fill="#bcbcbc" d="M 136.539062 363.128906 C 137.097656 361.042969 135.851562 358.886719 133.761719 358.328125 C 131.675781 357.769531 129.519531 359.019531 128.964844 361.105469 C 128.40625 363.191406 129.652344 365.347656 131.738281 365.90625 C 133.824219 366.460938 135.980469 365.214844 136.539062 363.128906 " fill-opacity="1" fill-rule="nonzero"/></g></g></g><g clip-path="url(#1051c03ecd)"><g clip-path="url(#452ce3d2e2)"><g clip-path="url(#c2256730af)"><path fill="#bcbcbc" d="M 89.019531 -34.679688 C 87.78125 -34.671875 86.539062 -34.6875 85.296875 -34.710938 C 82.277344 -34.769531 79.265625 -34.898438 76.253906 -35.042969 C 71.839844 -35.261719 67.460938 -35.882812 63.039062 -36.046875 C 61.65625 -36.101562 60.273438 -36.082031 58.894531 -36.011719 C 53.429688 -35.738281 12.691406 -28.601562 9.75 -28.109375 C -2.636719 -26.054688 -15.011719 -23.957031 -27.382812 -21.796875 C -42.410156 -19.175781 -57.417969 -16.453125 -72.421875 -13.671875 C -87.453125 -10.894531 -102.523438 -8.3125 -117.410156 -4.824219 C -120.472656 -4.101562 -123.539062 -3.375 -126.601562 -2.667969 C -131.582031 -1.496094 -136.566406 -0.320312 -141.371094 1.4375 C -146.246094 3.214844 -150.695312 5.890625 -155.277344 8.277344 C -155.683594 8.488281 -158.5 9.957031 -158.5 9.957031 L -155.859375 -1.492188 C -155.613281 -2.550781 -155.875 -3.664062 -156.566406 -4.503906 C -157.25 -5.34375 -158.292969 -5.820312 -159.375 -5.792969 C -159.375 -5.792969 -159.515625 -5.785156 -159.515625 -5.785156 C -162.480469 -5.703125 -165.195312 -5.632812 -167.421875 -5.800781 C -168.886719 -5.910156 -169.769531 -6.101562 -170.265625 -6.265625 C -170.261719 -6.296875 -170.265625 -6.316406 -170.265625 -6.339844 C -169.65625 -8.402344 -166.445312 -12.691406 -161.6875 -18.617188 C -161.007812 -19.457031 -160.757812 -20.566406 -161.007812 -21.621094 C -161.25 -22.667969 -161.972656 -23.550781 -162.953125 -24 L -172.382812 -28.347656 L -165.480469 -36.527344 C -164.816406 -37.3125 -164.53125 -38.351562 -164.699219 -39.371094 C -164.871094 -40.386719 -165.476562 -41.277344 -166.363281 -41.804688 C -170.496094 -44.277344 -173.914062 -46.375 -176.085938 -47.941406 C -175.808594 -47.742188 -174.398438 -48.035156 -174.03125 -48.039062 C -173.175781 -48.070312 -172.324219 -48.078125 -171.464844 -48.078125 C -169.40625 -48.082031 -167.335938 -48.035156 -165.269531 -47.972656 C -159.648438 -47.804688 -154.0625 -47.53125 -148.4375 -47.789062 C -144.417969 -47.972656 -140.398438 -48.15625 -136.378906 -48.34375 C -126.597656 -48.792969 -116.894531 -50.035156 -107.160156 -51.355469 C -97.636719 -52.640625 -88.117188 -54 -78.605469 -55.4375 C -73.511719 -56.203125 -68.414062 -56.988281 -63.320312 -57.789062 C -50.957031 -59.730469 -38.609375 -61.746094 -26.265625 -63.789062 C -11.796875 -66.175781 2.664062 -68.601562 17.132812 -71.035156 C 22.757812 -71.925781 28.355469 -73.042969 34.003906 -73.8125 C 40.125 -74.644531 46.617188 -75.851562 52.355469 -78.203125 C 58.425781 -80.257812 64.535156 -82.355469 70.785156 -83.800781 C 74.488281 -84.652344 77.335938 -84.980469 79.890625 -85.097656 L 74.378906 -72.496094 C 73.933594 -71.476562 73.996094 -70.304688 74.554688 -69.339844 C 75.109375 -68.375 76.09375 -67.730469 77.207031 -67.605469 C 81.035156 -67.183594 83.789062 -66.796875 85.335938 -66.359375 C 84.085938 -64.839844 81.355469 -62.457031 77.601562 -59.328125 C 76.574219 -58.480469 76.121094 -57.121094 76.429688 -55.824219 C 76.738281 -54.523438 77.753906 -53.515625 79.046875 -53.21875 C 84.4375 -51.957031 88.390625 -50.929688 90.253906 -50.035156 C 89.183594 -48.976562 87.011719 -47.402344 83.851562 -45.253906 C 82.84375 -44.570312 82.261719 -43.410156 82.320312 -42.191406 C 82.375 -40.96875 83.0625 -39.871094 84.136719 -39.277344 C 87.335938 -37.519531 90.035156 -35.992188 91.992188 -34.761719 C 91.511719 -35.066406 89.617188 -34.6875 89.019531 -34.679688 Z M 100.972656 -36.285156 C 99.566406 -38.335938 96.050781 -40.613281 92.421875 -42.703125 C 94.519531 -44.320312 96.46875 -46.136719 97.320312 -47.984375 C 97.871094 -49.179688 98.1875 -50.800781 97.480469 -52.484375 C 97.160156 -53.261719 96.6875 -53.871094 96.210938 -54.351562 C 94.453125 -56.128906 90.96875 -57.40625 87.328125 -58.417969 C 89.773438 -60.664062 91.957031 -63.042969 92.691406 -65.175781 C 92.957031 -65.933594 93.140625 -66.886719 92.980469 -67.941406 C 92.710938 -69.617188 91.699219 -70.769531 90.75 -71.480469 C 88.902344 -72.863281 85.765625 -73.566406 82.703125 -74.011719 L 88.488281 -87.230469 C 88.960938 -88.304688 88.863281 -89.542969 88.226562 -90.53125 C 87.144531 -92.214844 85 -92.539062 83.15625 -92.515625 C 78.511719 -92.453125 73.722656 -91.683594 69.207031 -90.632812 C 62.285156 -89.039062 55.621094 -86.546875 48.847656 -84.449219 C 41.855469 -82.292969 34.734375 -81.089844 27.527344 -79.902344 C 27.15625 -79.839844 26.78125 -79.78125 26.410156 -79.714844 C 11.660156 -77.226562 -3.085938 -74.75 -17.835938 -72.296875 C -30.8125 -70.140625 -43.789062 -68.003906 -56.773438 -65.929688 C -59.320312 -65.527344 -61.863281 -65.121094 -64.410156 -64.722656 C -75.222656 -63.023438 -86.050781 -61.390625 -96.894531 -59.859375 C -106.585938 -58.492188 -116.289062 -56.996094 -126.03125 -56.023438 C -138.5625 -54.773438 -151.207031 -54.460938 -163.796875 -54.953125 C -169.542969 -55.179688 -176.054688 -55.917969 -181.589844 -54.003906 C -184.820312 -52.894531 -186.371094 -49.585938 -184.558594 -46.542969 C -182.964844 -43.855469 -178.128906 -40.703125 -173.503906 -37.898438 L -180.71875 -29.355469 C -181.425781 -28.519531 -181.703125 -27.398438 -181.46875 -26.328125 C -181.226562 -25.257812 -180.503906 -24.363281 -179.507812 -23.902344 L -169.964844 -19.503906 C -173.59375 -14.914062 -177.363281 -9.644531 -177.402344 -5.804688 C -177.410156 -5.246094 -177.351562 -4.65625 -177.183594 -4.050781 C -176.777344 -2.609375 -175.890625 -1.542969 -174.882812 -0.804688 C -172.921875 0.625 -170.179688 1.03125 -167.945312 1.199219 C -166.617188 1.300781 -165.179688 1.324219 -163.710938 1.320312 L -167.050781 15.804688 C -167.359375 17.140625 -166.863281 18.53125 -165.78125 19.371094 C -164.039062 20.714844 -162.308594 19.859375 -160.601562 18.988281 C -154.472656 15.859375 -148.574219 12.238281 -142.316406 9.378906 C -136.894531 6.902344 -131.226562 5.632812 -125.464844 4.277344 C -121.433594 3.332031 -117.394531 2.382812 -113.367188 1.441406 C -111.132812 0.917969 -108.902344 0.394531 -106.667969 -0.128906 C -80.214844 -5.097656 -53.808594 -10.058594 -26.171875 -14.878906 C -11.335938 -17.476562 3.515625 -19.96875 18.378906 -22.425781 C 25.601562 -23.617188 32.828125 -24.804688 40.054688 -25.980469 C 43.648438 -26.570312 47.238281 -27.152344 50.828125 -27.734375 C 54.277344 -28.300781 57.78125 -28.804688 61.28125 -28.847656 C 64.859375 -28.894531 68.429688 -28.421875 71.992188 -28.222656 C 78.273438 -27.875 84.589844 -27.523438 90.886719 -27.742188 C 93.324219 -27.832031 95.984375 -27.878906 98.308594 -28.714844 C 99.246094 -29.054688 100.605469 -29.722656 101.398438 -31.164062 C 102.585938 -33.316406 101.625 -35.320312 100.972656 -36.285156 " fill-opacity="1" fill-rule="nonzero"/></g></g></g><g clip-path="url(#1a5641928f)"><g clip-path="url(#60be84713f)"><g clip-path="url(#87c66c7f11)"><path fill="#bcbcbc" d="M 322.347656 108.617188 C 321.503906 109.347656 321.058594 110.4375 321.148438 111.550781 C 321.238281 112.660156 321.855469 113.667969 322.746094 114.21875 L 322.804688 114.25 C 326.183594 116.347656 328.574219 117.917969 329.789062 119 C 328 119.855469 324.417969 120.863281 319.546875 122.113281 C 318.257812 122.449219 317.265625 123.476562 316.988281 124.78125 C 316.710938 126.085938 317.191406 127.433594 318.234375 128.257812 C 322.679688 131.796875 325.886719 134.488281 327.179688 136.117188 C 325.753906 136.636719 323.046875 137.144531 319.148438 137.742188 C 317.945312 137.933594 316.917969 138.734375 316.445312 139.859375 C 315.976562 140.988281 316.121094 142.277344 316.835938 143.269531 C 319.058594 146.347656 320.910156 148.976562 322.171875 150.976562 C 321.890625 150.519531 320.082031 150.074219 319.5625 149.832031 C 318.488281 149.339844 317.417969 148.820312 316.351562 148.292969 C 313.710938 146.984375 311.097656 145.613281 308.496094 144.226562 C 305.421875 142.582031 302.367188 140.910156 299.3125 139.230469 C 296.261719 137.546875 293.460938 135.523438 290.066406 134.574219 C 286.425781 133.550781 282.800781 132.480469 279.171875 131.425781 C 271.628906 129.246094 264.082031 127.0625 256.539062 124.894531 C 241.679688 120.617188 226.816406 116.378906 211.925781 112.226562 C 210.246094 111.761719 208.5625 111.296875 206.882812 110.824219 C 179.359375 103.203125 116.015625 87.003906 110.914062 85.902344 C 105.980469 84.835938 101.050781 83.460938 96.0625 82.679688 C 92.496094 82.121094 88.960938 82.265625 85.371094 82.394531 C 81.140625 82.554688 76.917969 82.714844 72.6875 82.871094 L 80.167969 73.425781 C 80.839844 72.574219 81.085938 71.457031 80.824219 70.402344 C 80.5625 69.351562 79.824219 68.476562 78.824219 68.039062 C 78.824219 68.039062 78.769531 68.011719 78.769531 68.011719 C 73.421875 65.652344 70.046875 63.972656 68.964844 62.8125 C 70.300781 61.191406 75.191406 58.601562 82.296875 55.167969 C 83.269531 54.699219 83.972656 53.804688 84.199219 52.75 C 84.429688 51.691406 84.152344 50.589844 83.460938 49.757812 L 76.65625 41.613281 L 86.613281 37.085938 C 87.550781 36.660156 88.253906 35.84375 88.535156 34.851562 C 88.820312 33.859375 88.65625 32.792969 88.082031 31.941406 C 85.328125 27.820312 81.777344 21.964844 81.777344 21.964844 C 81.777344 21.964844 84.574219 23.136719 85.164062 23.40625 C 86.621094 24.070312 88.0625 24.777344 89.5 25.496094 C 94.898438 28.191406 100.144531 31.257812 105.640625 33.738281 C 111.296875 36.289062 117.082031 38.515625 122.867188 40.75 C 135.882812 45.777344 149.269531 49.777344 162.597656 53.90625 C 171.582031 56.683594 180.578125 59.445312 189.613281 62.066406 C 203.367188 66.046875 217.101562 70.085938 230.863281 74.03125 C 247.046875 78.667969 263.238281 83.261719 279.4375 87.851562 C 282.554688 88.738281 285.664062 89.621094 288.777344 90.496094 C 291.65625 91.3125 294.644531 92.371094 297.664062 92.894531 C 300.890625 93.457031 304.191406 93.648438 307.441406 94.046875 C 312.960938 94.71875 318.511719 95.402344 323.949219 96.597656 C 327.757812 97.4375 330.546875 98.382812 332.957031 99.402344 Z M 342.886719 98.078125 C 342.753906 96.191406 341.445312 94.800781 339.800781 94.027344 C 335.414062 91.953125 330.171875 90.777344 325.457031 89.742188 C 319.152344 88.359375 312.742188 87.605469 306.347656 86.816406 C 303.289062 86.4375 300.144531 86.183594 297.136719 85.515625 C 294.085938 84.839844 291.097656 83.863281 288.09375 83.007812 C 279.75 80.648438 271.414062 78.285156 263.082031 75.914062 C 247.570312 71.507812 232.0625 67.089844 216.566406 62.613281 C 208.242188 60.207031 199.914062 57.789062 191.601562 55.332031 C 177.992188 51.308594 164.40625 47.167969 150.875 42.871094 C 137.476562 38.617188 124.140625 34.019531 111.277344 28.328125 C 103.644531 24.949219 96.445312 20.851562 88.871094 17.390625 C 85.871094 16.015625 82.765625 14.265625 79.394531 14.09375 C 76.03125 13.914062 73.230469 16.035156 73.550781 19.605469 C 73.824219 22.765625 76.914062 27.800781 79.953125 32.402344 L 69.558594 37.128906 C 68.5625 37.582031 67.832031 38.472656 67.585938 39.542969 C 67.34375 40.609375 67.613281 41.730469 68.316406 42.570312 L 75.191406 50.808594 C 69.839844 53.460938 64.039062 56.667969 62.351562 60.199219 C 62.113281 60.6875 61.921875 61.238281 61.820312 61.839844 C 61.5625 63.300781 61.894531 64.636719 62.480469 65.734375 C 63.988281 68.570312 68.039062 70.828125 71.859375 72.609375 L 62.453125 84.488281 C 61.601562 85.558594 61.449219 87.03125 62.074219 88.253906 C 62.691406 89.472656 63.96875 90.226562 65.335938 90.171875 C 73.542969 89.867188 81.757812 89.644531 89.960938 89.238281 C 93.101562 89.089844 96.234375 90.003906 99.300781 90.625 C 102.625 91.285156 105.945312 91.976562 109.261719 92.6875 C 125.800781 96.21875 142.105469 100.632812 158.449219 104.980469 C 173.96875 109.113281 189.636719 112.949219 205.007812 117.59375 C 232.339844 125.167969 260.753906 133.398438 289.160156 141.628906 C 303.570312 149.644531 319.433594 158.546875 325.207031 159.113281 C 325.269531 159.117188 325.332031 159.121094 325.394531 159.125 C 326.363281 159.199219 327.800781 159.132812 329.066406 158.222656 C 331.050781 156.792969 331.066406 154.578125 330.886719 153.414062 L 330.742188 153.4375 L 330.886719 153.414062 C 330.5 150.910156 328.238281 147.257812 325.796875 143.730469 C 328.472656 143.160156 331.089844 142.335938 332.679688 140.988281 C 333.6875 140.132812 334.652344 138.804688 334.734375 137 C 334.773438 136.167969 334.617188 135.417969 334.398438 134.785156 C 333.570312 132.371094 330.890625 129.648438 327.949219 127.113281 C 331.214844 126.109375 334.304688 124.863281 335.914062 123.203125 C 336.46875 122.636719 337.035156 121.855469 337.335938 120.847656 C 337.9375 118.8125 337.148438 116.796875 335.851562 115.234375 C 335.394531 114.6875 330.515625 110.824219 330.515625 110.824219 C 330.515625 110.824219 341.613281 101.183594 341.632812 101.167969 C 342.574219 100.355469 342.964844 99.222656 342.886719 98.078125 " fill-opacity="1" fill-rule="nonzero"/></g></g></g><g clip-path="url(#6514511a53)"><g clip-path="url(#ef336b55dd)"><g clip-path="url(#b1a048919d)"><path fill="#bcbcbc" d="M 107.230469 42.003906 C 107.492188 41.582031 107.863281 41.230469 108.074219 40.75 C 108.558594 39.640625 108.425781 38.335938 107.722656 37.347656 C 106.597656 35.765625 104.410156 35.394531 102.832031 36.519531 C 102.113281 37.023438 101.527344 37.695312 101.0625 38.523438 C 100.722656 39.128906 100.453125 39.816406 100.261719 40.59375 L 100.328125 40.367188 C 99.347656 43.378906 98.246094 47.179688 97.035156 51.746094 C 94.921875 59.460938 93.167969 67.113281 91.773438 74.6875 C 91.417969 76.59375 92.679688 78.425781 94.585938 78.777344 C 96.496094 79.125 98.320312 77.863281 98.675781 75.957031 C 100.035156 68.578125 101.742188 61.125 103.8125 53.570312 C 104.628906 50.507812 105.398438 47.429688 106.367188 44.40625 C 106.59375 43.695312 106.777344 42.902344 107.105469 42.230469 C 107.140625 42.152344 107.1875 42.078125 107.230469 42.003906 " fill-opacity="1" fill-rule="nonzero"/></g></g></g><g clip-path="url(#9f64db5b60)"><g clip-path="url(#ff34ea6337)"><g clip-path="url(#4c0d3b108f)"><path fill="#bcbcbc" d="M 116.949219 51.050781 C 117.070312 49.113281 115.601562 47.449219 113.671875 47.328125 C 111.734375 47.199219 110.066406 48.675781 109.945312 50.605469 C 109.660156 55.101562 108.167969 59.496094 107.078125 63.847656 C 106.601562 65.730469 107.742188 67.632812 109.625 68.101562 C 111.507812 68.578125 113.410156 67.4375 113.886719 65.554688 C 115.089844 60.757812 116.636719 56.015625 116.949219 51.050781 " fill-opacity="1" fill-rule="nonzero"/></g></g></g><g clip-path="url(#e021b603e9)"><g clip-path="url(#c43cb2aaf4)"><g clip-path="url(#ff69b67129)"><path fill="#bcbcbc" d="M 135.679688 72.519531 C 135.109375 72.511719 134.539062 72.515625 133.96875 72.546875 L 134 72.554688 C 133.960938 72.554688 133.914062 72.550781 133.871094 72.550781 C 133.609375 72.566406 132.941406 72.625 131.871094 72.730469 C 129.945312 72.921875 128.53125 74.640625 128.722656 76.570312 C 128.832031 77.664062 129.457031 78.664062 130.40625 79.234375 C 131.675781 80.003906 133.09375 79.625 134.457031 79.554688 C 134.84375 79.535156 135.222656 79.53125 135.597656 79.542969 C 137.53125 79.589844 139.144531 78.058594 139.195312 76.121094 C 139.242188 74.191406 137.730469 72.585938 135.679688 72.519531 " fill-opacity="1" fill-rule="nonzero"/></g></g></g><g clip-path="url(#667a0267e9)"><g clip-path="url(#7298c59a97)"><g clip-path="url(#192d99ace8)"><path fill="#bcbcbc" d="M 292.757812 103.453125 C 291.085938 102.464844 288.933594 103.015625 287.957031 104.667969 L 287.945312 104.6875 C 287.304688 105.777344 286.761719 107.136719 286.3125 108.757812 L 286.308594 108.769531 C 284.859375 114.109375 284.058594 117.179688 283.90625 117.984375 L 283.90625 117.992188 C 283.894531 118.082031 283.875 118.167969 283.863281 118.246094 C 283.605469 120.167969 284.953125 121.929688 286.871094 122.195312 C 288.792969 122.453125 290.5625 121.105469 290.820312 119.1875 C 290.816406 119.222656 290.816406 119.242188 290.808594 119.261719 C 290.925781 118.640625 291.679688 115.761719 293.085938 110.625 C 293.363281 109.597656 293.667969 108.808594 293.992188 108.257812 C 294.980469 106.585938 294.421875 104.433594 292.757812 103.453125 " fill-opacity="1" fill-rule="nonzero"/></g></g></g><g clip-path="url(#626410ac1b)"><g clip-path="url(#bbe355bab7)"><g clip-path="url(#e8fa0e345a)"><path fill="#bcbcbc" d="M 308.671875 101.390625 C 308.902344 99.460938 307.53125 97.71875 305.605469 97.488281 C 303.679688 97.253906 301.929688 98.628906 301.6875 100.707031 L 301.699219 100.550781 C 301.480469 102.390625 300.976562 105.078125 300.179688 108.617188 C 298.265625 116.773438 297.039062 121.710938 296.503906 123.417969 C 295.921875 125.265625 296.945312 127.238281 298.796875 127.816406 C 300.648438 128.398438 302.617188 127.367188 303.199219 125.515625 C 303.78125 123.648438 305.0625 118.542969 307.023438 110.199219 L 307.03125 110.164062 C 307.878906 106.382812 308.421875 103.464844 308.671875 101.390625 L 308.6875 101.234375 L 308.6875 101.230469 L 308.671875 101.390625 " fill-opacity="1" fill-rule="nonzero"/></g></g></g></svg>