<svg xmlns="http://www.w3.org/2000/svg" xmlns:xlink="http://www.w3.org/1999/xlink" width="500" zoomAndPan="magnify" viewBox="0 0 375 374.999991" height="500" preserveAspectRatio="xMidYMid meet" version="1.0"><defs><clipPath id="6890c4cb17"><path d="M 38.359375 63 L 337 63 L 337 360 L 38.359375 360 Z M 38.359375 63 " clip-rule="nonzero"/></clipPath></defs><g clip-path="url(#6890c4cb17)"><path fill="#bcbcbc" d="M 183.910156 315.140625 C 181.144531 293.269531 185.558594 273.019531 192.605469 251.714844 C 145.234375 255.210938 98.851562 258.636719 51.464844 262.132812 C 50.550781 267.554688 48.714844 273.738281 48.628906 279.945312 C 48.445312 293.292969 49.320312 306.648438 49.339844 320 C 49.339844 321.875 46.945312 323.757812 45.664062 325.628906 C 43.695312 323.988281 40.398438 322.605469 40.015625 320.65625 C 38.933594 315.101562 38.796875 309.316406 38.734375 303.617188 C 38.375 272.582031 44.519531 242.636719 54.378906 213.386719 C 55 211.558594 57.917969 210.503906 59.765625 209.085938 C 60.621094 211.699219 62.644531 214.5625 62.144531 216.878906 C 59.902344 227.121094 56.917969 237.195312 54.265625 247.347656 C 53.945312 248.574219 54.019531 249.90625 53.75 253.148438 C 62.753906 252.679688 71.3125 252.433594 79.839844 251.753906 C 109.542969 249.371094 139.226562 246.828125 168.917969 244.375 C 175.691406 243.8125 182.488281 243.480469 189.25 242.820312 C 194.425781 242.308594 197.96875 240.171875 200.953125 235.085938 C 220.894531 201.160156 247.417969 174.03125 284.230469 158.429688 C 291.40625 155.386719 299.265625 153.832031 306.921875 152.097656 C 310.746094 151.226562 312.554688 150.117188 312.214844 145.6875 C 310.785156 127.109375 309.851562 108.492188 308.464844 89.910156 C 307.988281 83.59375 306.367188 77.355469 305.960938 71.039062 C 305.800781 68.484375 307.496094 65.808594 308.347656 63.183594 C 310.339844 65.335938 313.75 67.277344 314.09375 69.667969 C 316.386719 85.703125 318.445312 101.792969 319.789062 117.9375 C 322.273438 147.859375 323.691406 177.886719 326.578125 207.765625 C 328.390625 226.480469 332.828125 244.941406 334.730469 263.648438 C 336.992188 285.925781 337.519531 308.402344 332.667969 330.46875 C 331.589844 335.34375 328.515625 341.613281 324.566406 343.523438 C 320.214844 345.625 313.792969 343.523438 308.28125 343.070312 C 306.792969 342.953125 305.3125 342.277344 303.902344 341.683594 C 297.101562 338.824219 292.160156 339.914062 288.035156 346.851562 C 283.667969 354.179688 280.316406 354.601562 272.535156 351.324219 C 271.324219 350.816406 270.074219 350.363281 268.9375 349.714844 C 258.242188 343.570312 248.632812 342.226562 238.433594 352.039062 C 231.453125 358.75 223.199219 354.320312 216.191406 349.511719 C 214.398438 348.285156 212.675781 346.953125 210.503906 345.363281 C 207.378906 347.808594 204.3125 350.214844 201.238281 352.613281 C 190.542969 360.933594 183.527344 361.449219 171.621094 354.738281 C 170.09375 353.878906 168.613281 352.914062 167.203125 351.886719 C 156.398438 344.007812 156.585938 344.261719 145.417969 351.855469 C 142.898438 353.570312 138.3125 353.835938 135.261719 352.890625 C 127.542969 350.507812 120.222656 346.882812 112.59375 344.152344 C 110.828125 343.515625 108.269531 343.953125 106.472656 344.769531 C 102.089844 346.765625 97.984375 349.351562 93.6875 351.546875 C 85.84375 355.554688 80.382812 354.714844 74.003906 348.570312 C 72.265625 346.902344 70.519531 345.167969 69.15625 343.203125 C 66.046875 338.699219 62.828125 337 57.820312 340.917969 C 56.546875 341.917969 53.695312 340.898438 51.570312 340.808594 C 52.105469 338.5 51.882812 335.445312 53.300781 334.015625 C 60.347656 326.886719 66.78125 327.15625 73.460938 334.757812 C 85.289062 348.210938 84.058594 346.746094 98.195312 338.542969 C 105.511719 334.296875 112.429688 331.925781 120.277344 337.039062 C 122.425781 338.441406 125.246094 338.765625 127.617188 339.875 C 134.871094 343.269531 141.300781 344.570312 148.183594 337.960938 C 153.300781 333.050781 159.953125 334.40625 165.75 338.53125 C 170.382812 341.832031 175.027344 345.128906 179.882812 348.078125 C 184.285156 350.75 188.707031 350.089844 192.75 346.933594 C 196.554688 343.964844 200.351562 340.980469 204.136719 337.976562 C 208.984375 334.136719 213.578125 333.890625 218.136719 338.589844 C 219.792969 340.300781 221.90625 341.574219 223.828125 343.027344 C 228.132812 346.285156 232.386719 346.242188 236.160156 342.324219 C 245.464844 332.652344 255.691406 331.628906 266.964844 338.613281 C 267.882812 339.183594 269.089844 339.285156 269.992188 339.871094 C 276.035156 343.746094 280.5 342.992188 284.25 336.308594 C 287.683594 330.1875 293.371094 328.5625 300.128906 330.9375 C 304.664062 332.53125 309.464844 333.492188 313.800781 335.472656 C 318.113281 337.445312 321.148438 336.039062 322.101562 332.277344 C 324.101562 324.367188 325.199219 316.222656 326.847656 307.207031 C 315.601562 309.664062 306.308594 312.316406 296.824219 313.636719 C 278.382812 316.210938 259.796875 317.695312 241.355469 320.242188 C 209.539062 324.628906 177.605469 326.425781 145.515625 325.5 C 115.984375 324.648438 87.164062 319.382812 58.753906 311.550781 C 57.695312 311.261719 56.277344 311.21875 55.683594 310.511719 C 54.0625 308.578125 52.792969 306.351562 51.378906 304.234375 C 53.746094 303.304688 56.339844 301.226562 58.445312 301.644531 C 67.882812 303.507812 77.164062 306.148438 86.535156 308.375 C 116.867188 315.570312 147.648438 317.148438 178.671875 315.71875 C 180.160156 315.648438 181.648438 315.398438 183.894531 315.152344 Z M 312.820312 159.945312 C 308.890625 160.492188 306.039062 160.636719 303.335938 161.332031 C 299.101562 162.425781 294.765625 163.464844 290.8125 165.265625 C 245.601562 185.875 213.972656 219.234375 198.328125 266.566406 C 194.40625 278.429688 192.445312 291.503906 192.578125 303.996094 C 192.714844 317.566406 193.742188 316.042969 205.109375 314.695312 C 223.152344 312.558594 241.292969 311.128906 259.304688 308.738281 C 279.453125 306.070312 299.5 302.570312 319.617188 299.632812 C 325.5625 298.765625 327.628906 295.867188 327.03125 289.921875 C 325.652344 276.195312 325.160156 262.367188 323.46875 248.691406 C 320.941406 228.277344 317.507812 207.984375 314.847656 187.589844 C 313.695312 178.726562 313.511719 169.738281 312.824219 159.945312 Z M 312.820312 159.945312 " fill-opacity="1" fill-rule="nonzero"/></g><path fill="#bcbcbc" d="M 51.71875 76.636719 C 49.058594 96.96875 50.453125 116.398438 60 135.414062 C 67.96875 151.289062 72.839844 168.585938 69.511719 186.960938 C 69.277344 188.25 69.582031 189.816406 68.945312 190.824219 C 67.398438 193.28125 65.453125 197.402344 63.648438 197.421875 C 58.765625 197.453125 58.898438 192.738281 59.582031 189.441406 C 63.675781 169.804688 57.570312 151.980469 49.488281 134.808594 C 42.652344 120.273438 39.722656 105.445312 41.1875 89.503906 C 42.683594 73.164062 43.6875 56.78125 44.976562 40.421875 C 45.167969 38.035156 45.644531 35.644531 46.210938 33.304688 C 48.03125 25.773438 52.636719 24.160156 59.429688 28.117188 C 66.597656 32.289062 73.992188 36.078125 81.351562 39.917969 C 84.960938 41.804688 87.125 40.875 88.722656 36.734375 C 93.28125 24.972656 95.902344 24.164062 107.066406 30.117188 C 112.445312 32.980469 117.796875 35.90625 123.535156 39.011719 C 126.875 33.710938 129.628906 28.75 132.949219 24.199219 C 138.308594 16.859375 144.027344 16.707031 150.476562 23.207031 C 153.871094 26.628906 157.355469 29.972656 160.859375 33.289062 C 161.441406 33.835938 162.339844 34.054688 163.5 34.625 C 166.277344 30.511719 168.707031 26.367188 171.667969 22.652344 C 176.9375 16.03125 182.675781 15.511719 189.324219 20.78125 C 191.554688 22.546875 193.5625 24.605469 195.664062 26.53125 C 197.757812 28.441406 199.847656 30.351562 201.929688 32.242188 C 216.597656 17.253906 217.808594 17.152344 237.171875 29.378906 C 239.089844 26.847656 240.976562 24.21875 243.011719 21.707031 C 248.035156 15.503906 254.746094 13.503906 260.914062 18.476562 C 271.035156 26.636719 279.355469 26.765625 288.679688 17.363281 C 291.089844 14.929688 297.328125 13.84375 300.402344 15.238281 C 303.085938 16.449219 304.597656 21.894531 305.214844 25.703125 C 306.566406 34.050781 307.34375 42.53125 307.582031 50.976562 C 307.632812 52.789062 304.597656 56.066406 302.660156 56.34375 C 277.949219 59.8125 253.1875 62.9375 228.417969 65.972656 C 207.761719 68.5 187.0625 70.660156 166.402344 73.210938 C 136.5625 76.886719 106.730469 80.546875 76.578125 79.054688 C 68.3125 78.648438 60.085938 77.480469 51.722656 76.652344 Z M 99.351562 37.210938 C 98.480469 38.707031 97.96875 39.429688 97.625 40.21875 C 92.214844 52.789062 90.863281 53.621094 77.941406 48.796875 C 70.285156 45.9375 63.023438 42.027344 54.859375 38.261719 C 53.398438 48.539062 51.972656 58.539062 50.550781 68.535156 C 54.296875 68.296875 56.667969 67.953125 59.023438 68.042969 C 61.417969 68.140625 63.789062 68.820312 66.183594 68.988281 C 101.164062 71.421875 135.792969 67.511719 170.402344 63.226562 C 187.570312 61.097656 204.769531 59.21875 221.960938 57.261719 C 245.652344 54.570312 269.359375 51.953125 293.042969 49.15625 C 294.476562 48.984375 296.894531 47.550781 296.933594 46.625 C 297.253906 39.160156 297.109375 31.671875 297.109375 24.1875 L 294.871094 23.828125 C 292.457031 25.644531 289.976562 27.382812 287.644531 29.300781 C 278.082031 37.148438 275.320312 37.4375 264.695312 31.535156 C 257.152344 27.339844 250.523438 28.683594 244.8125 35.570312 C 240.21875 41.109375 235.832031 41.507812 230.09375 36.902344 C 228.898438 35.941406 227.796875 34.855469 226.550781 33.964844 C 219.027344 28.574219 216.140625 29.191406 211.667969 37.066406 C 206.964844 45.355469 202.644531 46.046875 195.585938 39.621094 C 190.929688 35.382812 186.289062 31.128906 180.859375 26.167969 C 178.296875 30.03125 176.195312 33.015625 174.285156 36.117188 C 167.785156 46.675781 161.972656 47.695312 152.839844 39.089844 C 149.25 35.707031 146.652344 31.269531 143.601562 27.308594 C 138.460938 33.335938 135.933594 37.652344 133.453125 41.996094 C 129.285156 49.300781 125.851562 50.574219 118.398438 47.007812 C 112.085938 43.988281 105.953125 40.621094 99.351562 37.210938 Z M 99.351562 37.210938 " fill-opacity="1" fill-rule="nonzero"/><path fill="#bcbcbc" d="M 143.804688 125.789062 C 143.804688 137.269531 143.699219 148.746094 143.859375 160.222656 C 143.933594 165.472656 144.804688 170.71875 144.75 175.957031 C 144.730469 177.6875 142.925781 179.398438 141.9375 181.117188 C 140.269531 179.761719 137.476562 178.640625 137.136719 177 C 136.007812 171.6875 135.421875 166.1875 135.273438 160.746094 C 134.894531 146.992188 134.574219 133.226562 134.929688 119.484375 C 135.007812 116.347656 137.894531 113.277344 139.496094 110.179688 C 143.027344 112.339844 148.117188 113.671875 149.796875 116.828125 C 154.089844 124.875 156.878906 133.722656 160.25 142.257812 C 161.332031 144.992188 162.378906 147.734375 163.441406 150.476562 C 163.960938 150.347656 164.488281 150.214844 165.007812 150.082031 C 163.863281 140.628906 162.601562 131.1875 161.628906 121.714844 C 161.113281 116.71875 160.71875 111.636719 161.105469 106.664062 C 161.234375 104.976562 163.679688 102.9375 165.535156 102.171875 C 166.289062 101.863281 169.375 104.410156 169.519531 105.84375 C 171.519531 126.085938 173.203125 146.363281 174.929688 166.632812 C 175.0625 168.152344 175.398438 169.972656 174.753906 171.175781 C 173.421875 173.667969 171.609375 177.597656 169.785156 177.714844 C 167.363281 177.875 163.339844 175.53125 162.425781 173.28125 C 157.578125 161.320312 153.5 149.050781 149.128906 136.890625 C 147.75 133.066406 146.292969 129.277344 144.871094 125.46875 C 144.515625 125.578125 144.160156 125.679688 143.804688 125.789062 Z M 143.804688 125.789062 " fill-opacity="1" fill-rule="nonzero"/><path fill="#bcbcbc" d="M 198.761719 148.167969 C 192.472656 146.832031 190.347656 149.339844 190.683594 155.085938 C 190.976562 160.117188 191.113281 165.21875 190.558594 170.210938 C 190.308594 172.492188 188.226562 174.574219 186.976562 176.738281 C 185.328125 174.59375 182.25 172.433594 182.269531 170.308594 C 182.449219 156.070312 183.152344 141.828125 183.964844 127.609375 C 184.300781 121.714844 185.105469 115.828125 186.105469 110 C 186.878906 105.496094 188.816406 101.234375 194.15625 100.988281 C 199.351562 100.753906 201.511719 104.984375 202.253906 109.085938 C 205.234375 125.667969 207.78125 142.328125 210.476562 158.957031 C 210.859375 161.3125 211.710938 163.761719 211.34375 166.007812 C 210.960938 168.339844 209.367188 170.472656 208.304688 172.699219 C 206.101562 171.136719 202.519531 169.953125 201.96875 167.949219 C 200.601562 162.933594 200.675781 157.539062 200.027344 152.3125 C 199.84375 150.84375 199.164062 149.445312 198.761719 148.164062 Z M 191.816406 140.023438 C 194.675781 138.566406 197.40625 137.742188 197.363281 137.109375 C 196.980469 131.710938 196.097656 126.351562 195.359375 120.976562 C 194.785156 121.078125 194.210938 121.175781 193.636719 121.28125 C 193.082031 126.972656 192.53125 132.671875 191.816406 140.023438 Z M 191.816406 140.023438 " fill-opacity="1" fill-rule="nonzero"/><path fill="#bcbcbc" d="M 129.863281 167.273438 C 128.789062 175.359375 125.300781 180.695312 119.164062 182.457031 C 114.316406 183.851562 103.671875 179.921875 101.070312 175.351562 C 100.253906 173.914062 100.109375 171.222656 100.953125 169.980469 C 101.738281 168.816406 104.363281 168.136719 105.949219 168.4375 C 107.988281 168.832031 109.691406 170.71875 111.730469 171.410156 C 113.59375 172.039062 116.4375 172.816406 117.523438 171.925781 C 118.824219 170.851562 119.792969 167.46875 119.039062 166.140625 C 115.308594 159.578125 111.566406 152.855469 106.703125 147.152344 C 100.578125 139.976562 93.558594 133.753906 91.640625 123.789062 C 89.128906 110.765625 93.46875 103.738281 106.5 100.988281 C 110.773438 100.089844 114.34375 101.050781 116.695312 105.023438 C 117.585938 106.53125 118.707031 107.976562 119.238281 109.613281 C 120.414062 113.230469 125.003906 117.734375 119.4375 120.4375 C 114.242188 122.964844 113.796875 116.785156 111.554688 113.929688 C 110.34375 112.386719 107.324219 110.230469 106.628906 110.679688 C 104.027344 112.363281 100.328125 114.882812 100.152344 117.3125 C 99.601562 124.949219 103.988281 130.871094 109.136719 136.289062 C 114.40625 141.828125 119.761719 147.410156 124.160156 153.628906 C 126.9375 157.554688 128.023438 162.683594 129.871094 167.273438 Z M 129.863281 167.273438 " fill-opacity="1" fill-rule="nonzero"/><path fill="#bcbcbc" d="M 269.53125 115.945312 C 274.550781 113.734375 277.605469 111.945312 280.90625 111.097656 C 282.792969 110.613281 285.074219 111.664062 287.175781 112.023438 C 286.523438 114.105469 286.339844 116.558594 285.082031 118.164062 C 283.832031 119.757812 281.5 120.507812 278.875 122.085938 C 281.820312 124.199219 284.683594 125.714844 286.777344 127.949219 C 288.160156 129.425781 288.445312 131.933594 289.21875 133.980469 C 286.867188 134.394531 284.054688 135.839844 282.261719 135.027344 C 277.359375 132.808594 272.898438 129.640625 267.5 126.390625 C 266.363281 131.792969 265.832031 136.394531 264.3125 140.640625 C 263.625 142.554688 260.976562 143.765625 259.222656 145.300781 C 258.074219 143.46875 255.664062 141.382812 255.984375 139.863281 C 259.257812 124.039062 262.859375 108.273438 266.773438 92.59375 C 267.125 91.207031 270.363281 90.539062 272.257812 89.535156 C 272.992188 91.59375 274.617188 93.808594 274.296875 95.6875 C 273.246094 101.863281 271.492188 107.910156 269.53125 115.953125 Z M 269.53125 115.945312 " fill-opacity="1" fill-rule="nonzero"/><path fill="#bcbcbc" d="M 213.609375 135.546875 C 215.238281 125.886719 216.15625 116.03125 218.71875 106.625 C 220.925781 98.515625 227.328125 95.363281 233.804688 98.277344 C 236.164062 99.339844 237.4375 102.820312 239.210938 105.207031 C 236.828125 105.738281 234.371094 106.046875 232.089844 106.859375 C 230.160156 107.550781 227.253906 108.457031 226.8125 109.886719 C 222.589844 123.765625 222.386719 137.949219 225.113281 152.113281 C 226.097656 157.234375 229.820312 158.640625 234.660156 156.949219 C 237.84375 155.839844 241.496094 155.417969 241.988281 159.417969 C 242.230469 161.375 239.472656 164.859375 237.289062 165.757812 C 226.070312 170.367188 216.574219 163.648438 215.132812 150.222656 C 214.625 145.449219 215.054688 140.570312 215.054688 135.742188 C 214.566406 135.671875 214.085938 135.609375 213.601562 135.542969 Z M 213.609375 135.546875 " fill-opacity="1" fill-rule="nonzero"/><path fill="#bcbcbc" d="M 255.152344 91.488281 C 255.152344 93 255.644531 94.765625 255.035156 95.980469 C 254.1875 97.652344 252.496094 100.0625 251.191406 100.042969 C 249.6875 100.019531 247.351562 97.933594 246.933594 96.332031 C 246.183594 93.480469 246.105469 90.21875 246.695312 87.324219 C 247.109375 85.265625 249.089844 83.53125 250.367188 81.648438 C 251.953125 83.414062 253.84375 85.003906 255.011719 87.011719 C 255.667969 88.148438 255.128906 89.976562 255.128906 91.492188 L 255.160156 91.492188 Z M 255.152344 91.488281 " fill-opacity="1" fill-rule="nonzero"/><path fill="#bcbcbc" d="M 278.140625 238.679688 C 277.617188 240.171875 277.390625 241.246094 276.898438 242.183594 C 273.554688 248.550781 270.457031 255.082031 266.601562 261.121094 C 265.328125 263.125 262.058594 263.855469 259.703125 265.164062 C 259.367188 262.621094 257.976562 259.589844 258.886719 257.625 C 262.085938 250.730469 265.882812 244.082031 269.925781 237.632812 C 270.78125 236.269531 273.582031 235.714844 275.527344 235.621094 C 276.367188 235.582031 277.308594 237.65625 278.140625 238.6875 Z M 278.140625 238.679688 " fill-opacity="1" fill-rule="nonzero"/><path fill="#bcbcbc" d="M 288.8125 243.8125 C 289.53125 247.746094 291.015625 250.585938 290.210938 252.433594 C 288.125 257.207031 285.3125 261.738281 282.199219 265.929688 C 281.101562 267.40625 278.277344 267.59375 276.242188 268.371094 C 275.824219 266.234375 274.441406 263.660156 275.167969 262.03125 C 277.292969 257.277344 280.140625 252.816406 282.976562 248.410156 C 283.828125 247.082031 285.558594 246.316406 288.816406 243.8125 Z M 288.8125 243.8125 " fill-opacity="1" fill-rule="nonzero"/></svg>