<svg xmlns="http://www.w3.org/2000/svg" xmlns:xlink="http://www.w3.org/1999/xlink" width="500" zoomAndPan="magnify" viewBox="0 0 375 374.999991" height="500" preserveAspectRatio="xMidYMid meet" version="1.0"><defs><clipPath id="7deff6c2fc"><path d="M 20.09375 51.160156 L 330.941406 51.160156 L 330.941406 350.195312 L 20.09375 350.195312 Z M 20.09375 51.160156 " clip-rule="nonzero"/></clipPath><clipPath id="ecf19a93de"><path d="M 336.152344 91.621094 L 354.59375 91.621094 L 354.59375 110.449219 L 336.152344 110.449219 Z M 336.152344 91.621094 " clip-rule="nonzero"/></clipPath><clipPath id="c63dfb0837"><path d="M 143 24.695312 L 170 24.695312 L 170 52 L 143 52 Z M 143 24.695312 " clip-rule="nonzero"/></clipPath></defs><g clip-path="url(#7deff6c2fc)"><path fill="#4fa6d6" d="M 327.335938 171.898438 C 321.410156 184.359375 309.9375 192.292969 297.351562 197.03125 C 290.433594 199.636719 283.238281 201.394531 276.074219 203.195312 C 269.144531 204.9375 261.359375 206.289062 255.070312 209.832031 C 252.550781 211.25 249.617188 213.445312 249.652344 216.664062 C 249.6875 219.355469 251.824219 221.328125 253.882812 222.769531 C 258.90625 226.292969 264.660156 228.347656 269.523438 232.207031 C 279.1875 239.890625 286.273438 252.878906 281.417969 265.21875 C 277.082031 276.25 265.136719 283.515625 253.765625 278.046875 C 244.421875 273.550781 239.945312 262.699219 230.648438 258.375 C 219.375 253.136719 212.035156 267.066406 213.542969 276.585938 C 214.679688 283.789062 218.925781 290.140625 222.96875 296.027344 C 227.078125 302.011719 231.234375 307.859375 233.910156 314.664062 C 238.453125 326.226562 236.585938 339.761719 225.1875 346.386719 C 216.242188 351.585938 204.519531 351.40625 195.359375 346.871094 C 183.992188 341.253906 177.425781 328.742188 174.457031 316.929688 C 172.835938 310.460938 172.152344 303.816406 171.882812 297.167969 C 171.574219 289.671875 171.554688 281.546875 167.226562 275.074219 C 163.03125 268.804688 156.027344 266.941406 149.351562 270.554688 C 142.609375 274.210938 138.558594 281.003906 133.972656 286.878906 C 126.636719 296.28125 115.710938 302.917969 103.371094 300.980469 C 97.863281 300.117188 92.949219 297.152344 89.84375 292.476562 C 86.332031 287.191406 85.957031 280.691406 87.21875 274.621094 C 88.65625 267.738281 92.109375 261.285156 95.929688 255.445312 C 97.660156 252.800781 100.714844 248.972656 96.878906 246.71875 C 94.195312 245.148438 91.164062 245.882812 88.5625 247.226562 C 85.296875 248.925781 82.496094 251.398438 79.320312 253.257812 C 76.492188 254.917969 73.429688 256.261719 70.269531 257.160156 C 63.804688 259.003906 56.785156 258.914062 50.617188 256.09375 C 44.964844 253.515625 40.273438 248.75 38.269531 242.816406 C 36.152344 236.566406 37.722656 229.613281 41.234375 224.175781 C 49.585938 211.234375 64.535156 208.855469 77.726562 203.375 C 80.289062 202.316406 84.234375 200.308594 82.78125 196.878906 C 81.382812 193.59375 77.363281 192.789062 74.210938 192.9375 C 70.253906 193.128906 66.40625 194.378906 62.476562 194.839844 C 59.636719 195.171875 56.78125 195.25 53.929688 195.046875 C 42.007812 194.207031 29.75 188.839844 23.527344 178.164062 C 18.351562 169.285156 19.1875 157.246094 24.945312 148.832031 C 31.394531 139.417969 42.339844 137.097656 52.742188 141.046875 C 57.875 142.992188 62.574219 145.84375 67.316406 148.578125 C 71.980469 151.265625 76.960938 154.203125 82.398438 154.917969 C 95.488281 156.636719 102.679688 142.574219 99.800781 131.269531 C 96.164062 116.992188 82.886719 109.371094 71.871094 101.226562 C 61.945312 93.886719 53.242188 84.664062 52.984375 71.597656 C 52.882812 66.191406 54.519531 60.640625 58.363281 56.71875 C 62.894531 52.082031 69.550781 50.675781 75.796875 51.664062 C 90.445312 53.984375 99.050781 67.976562 107.800781 78.472656 C 111.960938 83.460938 116.21875 88.363281 120.566406 93.183594 C 119.871094 88.027344 120.367188 82.792969 122.84375 77.640625 C 125.605469 71.890625 131.609375 66.269531 138.382812 68.777344 C 144.410156 71.007812 148.890625 76.6875 152.417969 81.78125 C 156.085938 87.078125 159.128906 93.144531 164.058594 97.417969 C 168.21875 101.023438 174.976562 104.5 180.53125 102.152344 C 186.617188 99.585938 187.085938 91.546875 188.632812 86.054688 C 190.058594 81.011719 192.597656 76.613281 196.71875 73.296875 C 204.808594 66.804688 216.601562 65.191406 226.042969 69.582031 C 237.636719 74.984375 241.226562 88.636719 240.972656 100.414062 C 240.640625 115.578125 233.203125 132.308594 239.804688 146.964844 C 242.203125 152.296875 246.425781 157.316406 252.273438 158.851562 C 257.503906 160.21875 262.574219 158.230469 266.796875 155.199219 C 275.628906 148.875 281.636719 139.148438 291.4375 134.042969 C 301.90625 128.59375 315.019531 130.910156 323.351562 139.207031 C 332.183594 148.003906 332.46875 161.128906 327.335938 171.898438 " fill-opacity="1" fill-rule="nonzero"/></g><path fill="#4fa6d6" d="M 318.566406 106.300781 C 318.566406 114.324219 312.0625 120.828125 304.035156 120.828125 C 296.015625 120.828125 289.507812 114.324219 289.507812 106.300781 C 289.507812 98.277344 296.015625 91.773438 304.035156 91.773438 C 312.0625 91.773438 318.566406 98.277344 318.566406 106.300781 " fill-opacity="1" fill-rule="nonzero"/><g clip-path="url(#ecf19a93de)"><path fill="#4fa6d6" d="M 354.882812 100.992188 C 354.882812 106.085938 350.757812 110.210938 345.664062 110.210938 C 340.574219 110.210938 336.445312 106.085938 336.445312 100.992188 C 336.445312 95.902344 340.574219 91.773438 345.664062 91.773438 C 350.757812 91.773438 354.882812 95.902344 354.882812 100.992188 " fill-opacity="1" fill-rule="nonzero"/></g><path fill="#4fa6d6" d="M 318.566406 222.519531 C 318.566406 230.542969 312.0625 237.046875 304.035156 237.046875 C 296.015625 237.046875 289.507812 230.542969 289.507812 222.519531 C 289.507812 214.496094 296.015625 207.992188 304.035156 207.992188 C 312.0625 207.992188 318.566406 214.496094 318.566406 222.519531 " fill-opacity="1" fill-rule="nonzero"/><g clip-path="url(#c63dfb0837)"><path fill="#4fa6d6" d="M 169.761719 38.042969 C 169.761719 45.402344 163.796875 51.367188 156.441406 51.367188 C 149.082031 51.367188 143.121094 45.402344 143.121094 38.042969 C 143.121094 30.6875 149.082031 24.722656 156.441406 24.722656 C 163.796875 24.722656 169.761719 30.6875 169.761719 38.042969 " fill-opacity="1" fill-rule="nonzero"/></g><path fill="#4fa6d6" d="M 66.011719 289.570312 C 66.011719 297.59375 59.507812 304.097656 51.484375 304.097656 C 43.460938 304.097656 36.957031 297.59375 36.957031 289.570312 C 36.957031 281.546875 43.460938 275.042969 51.484375 275.042969 C 59.507812 275.042969 66.011719 281.546875 66.011719 289.570312 " fill-opacity="1" fill-rule="nonzero"/></svg>