<svg id="visual" viewBox="0 0 960 150" width="960" height="150" xmlns="http://www.w3.org/2000/svg" xmlns:xlink="http://www.w3.org/1999/xlink" version="1.1"><path d="M0 41L7 46.3C14 51.7 28 62.3 41.8 72.2C55.7 82 69.3 91 83.2 89.7C97 88.3 111 76.7 125 71.8C139 67 153 69 167 65.8C181 62.7 195 54.3 208.8 60C222.7 65.7 236.3 85.3 250.2 90C264 94.7 278 84.3 292 82.3C306 80.3 320 86.7 334 89.3C348 92 362 91 375.8 84.7C389.7 78.3 403.3 66.7 417.2 67C431 67.3 445 79.7 459 84.3C473 89 487 86 501 77.7C515 69.3 529 55.7 542.8 55.7C556.7 55.7 570.3 69.3 584.2 79.8C598 90.3 612 97.7 626 95.7C640 93.7 654 82.3 668 72.7C682 63 696 55 709.8 54.5C723.7 54 737.3 61 751.2 68.2C765 75.3 779 82.7 793 82.5C807 82.3 821 74.7 835 73.7C849 72.7 863 78.3 876.8 79.5C890.7 80.7 904.3 77.3 918.2 71.5C932 65.7 946 57.3 953 53.2L960 49L960 151L953 151C946 151 932 151 918.2 151C904.3 151 890.7 151 876.8 151C863 151 849 151 835 151C821 151 807 151 793 151C779 151 765 151 751.2 151C737.3 151 723.7 151 709.8 151C696 151 682 151 668 151C654 151 640 151 626 151C612 151 598 151 584.2 151C570.3 151 556.7 151 542.8 151C529 151 515 151 501 151C487 151 473 151 459 151C445 151 431 151 417.2 151C403.3 151 389.7 151 375.8 151C362 151 348 151 334 151C320 151 306 151 292 151C278 151 264 151 250.2 151C236.3 151 222.7 151 208.8 151C195 151 181 151 167 151C153 151 139 151 125 151C111 151 97 151 83.2 151C69.3 151 55.7 151 41.8 151C28 151 14 151 7 151L0 151Z" fill="#ffde59" stroke-linecap="round" stroke-linejoin="miter"></path></svg>
