<svg id="visual" viewBox="0 0 960 150" width="960" height="150" xmlns="http://www.w3.org/2000/svg" xmlns:xlink="http://www.w3.org/1999/xlink" version="1.1"><path d="M0 85L7 87.8C14 90.7 28 96.3 41.8 92.2C55.7 88 69.3 74 83.2 74C97 74 111 88 125 96C139 104 153 106 167 108.8C181 111.7 195 115.3 208.8 108.3C222.7 101.3 236.3 83.7 250.2 78.5C264 73.3 278 80.7 292 87.2C306 93.7 320 99.3 334 98.2C348 97 362 89 375.8 81.5C389.7 74 403.3 67 417.2 67.7C431 68.3 445 76.7 459 86.2C473 95.7 487 106.3 501 109.5C515 112.7 529 108.3 542.8 99.3C556.7 90.3 570.3 76.7 584.2 79.8C598 83 612 103 626 109C640 115 654 107 668 100C682 93 696 87 709.8 89.3C723.7 91.7 737.3 102.3 751.2 100.7C765 99 779 85 793 81.5C807 78 821 85 835 90.2C849 95.3 863 98.7 876.8 101.5C890.7 104.3 904.3 106.7 918.2 104.3C932 102 946 95 953 91.5L960 88L960 0L953 0C946 0 932 0 918.2 0C904.3 0 890.7 0 876.8 0C863 0 849 0 835 0C821 0 807 0 793 0C779 0 765 0 751.2 0C737.3 0 723.7 0 709.8 0C696 0 682 0 668 0C654 0 640 0 626 0C612 0 598 0 584.2 0C570.3 0 556.7 0 542.8 0C529 0 515 0 501 0C487 0 473 0 459 0C445 0 431 0 417.2 0C403.3 0 389.7 0 375.8 0C362 0 348 0 334 0C320 0 306 0 292 0C278 0 264 0 250.2 0C236.3 0 222.7 0 208.8 0C195 0 181 0 167 0C153 0 139 0 125 0C111 0 97 0 83.2 0C69.3 0 55.7 0 41.8 0C28 0 14 0 7 0L0 0Z" fill="#4fa6d6"></path><path d="M0 51L7 51.2C14 51.3 28 51.7 41.8 50.8C55.7 50 69.3 48 83.2 47.7C97 47.3 111 48.7 125 44.3C139 40 153 30 167 25C181 20 195 20 208.8 18.2C222.7 16.3 236.3 12.7 250.2 21.2C264 29.7 278 50.3 292 59.7C306 69 320 67 334 66.2C348 65.3 362 65.7 375.8 64.7C389.7 63.7 403.3 61.3 417.2 55.8C431 50.3 445 41.7 459 37.2C473 32.7 487 32.3 501 29.8C515 27.3 529 22.7 542.8 24.2C556.7 25.7 570.3 33.3 584.2 34.3C598 35.3 612 29.7 626 29.3C640 29 654 34 668 34.7C682 35.3 696 31.7 709.8 32.3C723.7 33 737.3 38 751.2 43.3C765 48.7 779 54.3 793 50.8C807 47.3 821 34.7 835 28.3C849 22 863 22 876.8 26.7C890.7 31.3 904.3 40.7 918.2 49.5C932 58.3 946 66.7 953 70.8L960 75L960 0L953 0C946 0 932 0 918.2 0C904.3 0 890.7 0 876.8 0C863 0 849 0 835 0C821 0 807 0 793 0C779 0 765 0 751.2 0C737.3 0 723.7 0 709.8 0C696 0 682 0 668 0C654 0 640 0 626 0C612 0 598 0 584.2 0C570.3 0 556.7 0 542.8 0C529 0 515 0 501 0C487 0 473 0 459 0C445 0 431 0 417.2 0C403.3 0 389.7 0 375.8 0C362 0 348 0 334 0C320 0 306 0 292 0C278 0 264 0 250.2 0C236.3 0 222.7 0 208.8 0C195 0 181 0 167 0C153 0 139 0 125 0C111 0 97 0 83.2 0C69.3 0 55.7 0 41.8 0C28 0 14 0 7 0L0 0Z" fill="#4fa6d6"></path></svg>