<svg id="visual" viewBox="0 0 960 170" width="960" height="170" xmlns="http://www.w3.org/2000/svg" xmlns:xlink="http://www.w3.org/1999/xlink" version="1.1"><path d="M0 110L22.8 102.2C45.7 94.3 91.3 78.7 137 79.8C182.7 81 228.3 99 274 106.7C319.7 114.3 365.3 111.7 411.2 101.3C457 91 503 73 548.8 71C594.7 69 640.3 83 686 91.5C731.7 100 777.3 103 823 105.7C868.7 108.3 914.3 110.7 937.2 111.8L960 113L960 0L937.2 0C914.3 0 868.7 0 823 0C777.3 0 731.7 0 686 0C640.3 0 594.7 0 548.8 0C503 0 457 0 411.2 0C365.3 0 319.7 0 274 0C228.3 0 182.7 0 137 0C91.3 0 45.7 0 22.8 0L0 0Z" fill="#8b5a2b"></path><path d="M0 26L22.8 26C45.7 26 91.3 26 137 31.3C182.7 36.7 228.3 47.3 274 50.3C319.7 53.3 365.3 48.7 411.2 43.3C457 38 503 32 548.8 29.8C594.7 27.7 640.3 29.3 686 35.2C731.7 41 777.3 51 823 55.2C868.7 59.3 914.3 57.7 937.2 56.8L960 56L960 0L937.2 0C914.3 0 868.7 0 823 0C777.3 0 731.7 0 686 0C640.3 0 594.7 0 548.8 0C503 0 457 0 411.2 0C365.3 0 319.7 0 274 0C228.3 0 182.7 0 137 0C91.3 0 45.7 0 22.8 0L0 0Z" fill="#4fa6d6"></path></svg>