<svg id="visual" viewBox="0 0 960 170" width="960" height="170" xmlns="http://www.w3.org/2000/svg" xmlns:xlink="http://www.w3.org/1999/xlink" version="1.1"><path d="M0 58L22.8 65.8C45.7 73.7 91.3 89.3 137 88.2C182.7 87 228.3 69 274 61.3C319.7 53.7 365.3 56.3 411.2 66.7C457 77 503 95 548.8 97C594.7 99 640.3 85 686 76.5C731.7 68 777.3 65 823 62.3C868.7 59.7 914.3 57.3 937.2 56.2L960 55L960 171L937.2 171C914.3 171 868.7 171 823 171C777.3 171 731.7 171 686 171C640.3 171 594.7 171 548.8 171C503 171 457 171 411.2 171C365.3 171 319.7 171 274 171C228.3 171 182.7 171 137 171C91.3 171 45.7 171 22.8 171L0 171Z" fill="#ffde59"></path><path d="M0 142L22.8 142C45.7 142 91.3 142 137 136.7C182.7 131.3 228.3 120.7 274 117.7C319.7 114.7 365.3 119.3 411.2 124.7C457 130 503 136 548.8 138.2C594.7 140.3 640.3 138.7 686 132.8C731.7 127 777.3 117 823 112.8C868.7 108.7 914.3 110.3 937.2 111.2L960 112L960 171L937.2 171C914.3 171 868.7 171 823 171C777.3 171 731.7 171 686 171C640.3 171 594.7 171 548.8 171C503 171 457 171 411.2 171C365.3 171 319.7 171 274 171C228.3 171 182.7 171 137 171C91.3 171 45.7 171 22.8 171L0 171Z" fill="#4fa6d6"></path></svg>
