<svg id="visual" viewBox="0 0 960 150" width="960" height="150" xmlns="http://www.w3.org/2000/svg" xmlns:xlink="http://www.w3.org/1999/xlink" version="1.1"><path d="M0 101L8.8 98.3C17.7 95.7 35.3 90.3 53.2 90C71 89.7 89 94.3 106.8 97.5C124.7 100.7 142.3 102.3 160 99.5C177.7 96.7 195.3 89.3 213.2 87.5C231 85.7 249 89.3 266.8 90C284.7 90.7 302.3 88.3 320 91.8C337.7 95.3 355.3 104.7 373.2 104.8C391 105 409 96 426.8 91.8C444.7 87.7 462.3 88.3 480 89.3C497.7 90.3 515.3 91.7 533.2 94.8C551 98 569 103 586.8 101.5C604.7 100 622.3 92 640 93C657.7 94 675.3 104 693.2 108.2C711 112.3 729 110.7 746.8 106.2C764.7 101.7 782.3 94.3 800 91.2C817.7 88 835.3 89 853.2 89.3C871 89.7 889 89.3 906.8 90.3C924.7 91.3 942.3 93.7 951.2 94.8L960 96L960 151L951.2 151C942.3 151 924.7 151 906.8 151C889 151 871 151 853.2 151C835.3 151 817.7 151 800 151C782.3 151 764.7 151 746.8 151C729 151 711 151 693.2 151C675.3 151 657.7 151 640 151C622.3 151 604.7 151 586.8 151C569 151 551 151 533.2 151C515.3 151 497.7 151 480 151C462.3 151 444.7 151 426.8 151C409 151 391 151 373.2 151C355.3 151 337.7 151 320 151C302.3 151 284.7 151 266.8 151C249 151 231 151 213.2 151C195.3 151 177.7 151 160 151C142.3 151 124.7 151 106.8 151C89 151 71 151 53.2 151C35.3 151 17.7 151 8.8 151L0 151Z" fill="#70c170"></path><path d="M0 134L8.8 134.2C17.7 134.3 35.3 134.7 53.2 132.5C71 130.3 89 125.7 106.8 123.7C124.7 121.7 142.3 122.3 160 124.8C177.7 127.3 195.3 131.7 213.2 129.3C231 127 249 118 266.8 117.2C284.7 116.3 302.3 123.7 320 124.2C337.7 124.7 355.3 118.3 373.2 117.5C391 116.7 409 121.3 426.8 122C444.7 122.7 462.3 119.3 480 121.8C497.7 124.3 515.3 132.7 533.2 134C551 135.3 569 129.7 586.8 129.3C604.7 129 622.3 134 640 136.2C657.7 138.3 675.3 137.7 693.2 135.2C711 132.7 729 128.3 746.8 124.2C764.7 120 782.3 116 800 113.2C817.7 110.3 835.3 108.7 853.2 113.5C871 118.3 889 129.7 906.8 135.3C924.7 141 942.3 141 951.2 141L960 141L960 151L951.2 151C942.3 151 924.7 151 906.8 151C889 151 871 151 853.2 151C835.3 151 817.7 151 800 151C782.3 151 764.7 151 746.8 151C729 151 711 151 693.2 151C675.3 151 657.7 151 640 151C622.3 151 604.7 151 586.8 151C569 151 551 151 533.2 151C515.3 151 497.7 151 480 151C462.3 151 444.7 151 426.8 151C409 151 391 151 373.2 151C355.3 151 337.7 151 320 151C302.3 151 284.7 151 266.8 151C249 151 231 151 213.2 151C195.3 151 177.7 151 160 151C142.3 151 124.7 151 106.8 151C89 151 71 151 53.2 151C35.3 151 17.7 151 8.8 151L0 151Z" fill="#8b5a2b"></path></svg>
