<svg xmlns="http://www.w3.org/2000/svg" xmlns:xlink="http://www.w3.org/1999/xlink" width="84" zoomAndPan="magnify" viewBox="0 0 63 72" height="96" preserveAspectRatio="xMidYMid meet" version="1.0"><defs><clipPath id="48bffdcfb4"><path d="M 0 0 L 62.25 0 L 62.25 72 L 0 72 Z M 0 0 " clip-rule="nonzero"/></clipPath><clipPath id="6e5ed4b1f9"><path d="M 0.363281 0 L 62.613281 0 L 62.613281 72 L 0.363281 72 Z M 0.363281 0 " clip-rule="nonzero"/></clipPath></defs><g clip-path="url(#48bffdcfb4)"><path fill="#000000" d="M 37.019531 47.09375 C 36.957031 47.796875 37.359375 49.113281 36.449219 49.324219 C 36.421875 49.328125 36.394531 49.335938 36.363281 49.339844 C 35.992188 49.355469 35.664062 49.058594 35.652344 48.6875 C 35.636719 47.671875 35.570312 46.566406 35.980469 45.617188 C 36.847656 44.855469 36.992188 46.539062 37.019531 47.09375 Z M 28.644531 3.96875 C 28.851562 3.917969 29.054688 3.769531 29.121094 3.585938 C 29.242188 3.011719 27.953125 3.117188 28.140625 3.703125 C 28.210938 3.953125 28.429688 4.015625 28.644531 3.96875 Z M 30.730469 46.183594 C 29.589844 47.773438 28.53125 49.328125 27.457031 50.988281 C 27.351562 51.140625 27.425781 51.363281 27.578125 51.453125 C 27.652344 51.496094 27.746094 51.507812 27.828125 51.488281 C 27.902344 51.472656 27.972656 51.429688 28.019531 51.367188 C 28.617188 50.5625 29.226562 49.765625 29.828125 48.964844 C 31.742188 46.46875 33.449219 43.835938 35.234375 41.25 C 35.167969 39.316406 31.125 45.792969 30.730469 46.183594 Z M 31.128906 42.730469 C 31.226562 42.707031 31.316406 42.65625 31.375 42.574219 C 31.785156 42.011719 32.183594 41.445312 32.574219 40.875 C 32.925781 40.273438 33.503906 39.75 33.65625 39.058594 C 33.675781 38.429688 32.671875 38.445312 32.710938 39.074219 C 31.96875 40.039062 31.273438 41.039062 30.644531 42.078125 C 30.519531 42.285156 30.597656 42.566406 30.800781 42.683594 C 30.902344 42.742188 31.019531 42.753906 31.128906 42.730469 Z M 18.726562 35.070312 C 18.742188 35.070312 18.761719 35.066406 18.777344 35.0625 C 18.964844 35.019531 19.117188 34.859375 19.144531 34.667969 C 19.109375 33.683594 17.511719 34.0625 16.875 34.164062 C 16.605469 34.214844 16.425781 34.503906 16.457031 34.769531 C 16.628906 35.65625 18.097656 35.15625 18.726562 35.070312 Z M 45.371094 35.035156 C 45.585938 34.984375 45.769531 34.828125 45.757812 34.570312 C 45.667969 34.011719 44.738281 33.945312 44.714844 34.582031 C 44.703125 34.960938 45.070312 35.101562 45.371094 35.035156 Z M 61.671875 19.234375 C 61.800781 19.8125 61.8125 20.417969 61.769531 21.019531 C 61.683594 22.050781 61.277344 23.226562 60.621094 24.183594 C 60.640625 24.484375 60.585938 24.828125 60.570312 25.085938 C 60.496094 26.003906 60.453125 26.929688 60.394531 27.851562 C 59.945312 39.496094 57.6875 50.996094 57.003906 62.605469 C 57.105469 62.683594 57.144531 62.777344 57.136719 62.871094 C 58.023438 62.960938 58.910156 63.058594 59.789062 63.164062 C 60.066406 62.914062 60.492188 63.082031 60.6875 63.796875 C 60.828125 64.636719 60.820312 65.484375 60.78125 66.335938 C 60.796875 66.792969 60.800781 67.183594 60.824219 67.371094 C 60.84375 68.441406 60.855469 69.519531 60.738281 70.582031 C 60.714844 70.765625 60.625 70.929688 60.492188 71.042969 C 60.433594 71.152344 60.332031 71.238281 60.183594 71.277344 C 60.132812 71.289062 60.082031 71.304688 60.03125 71.3125 C 59.714844 71.386719 59.394531 71.410156 59.070312 71.441406 C 49.058594 71.972656 38.96875 71.492188 28.957031 71.246094 C 25.195312 71.082031 21.503906 71.15625 17.753906 71.292969 C 14.820312 71.417969 11.886719 71.46875 8.953125 71.507812 C 6.351562 71.429688 3.230469 71.894531 1.207031 69.914062 C -0.0117188 68.683594 0.859375 66.847656 1.066406 65.378906 C 1.472656 63.726562 1.828125 61.9375 2.871094 60.5625 C 3.582031 59.660156 4.695312 59.671875 5.746094 59.738281 C 5.695312 59.121094 5.648438 58.5 5.59375 57.882812 C 5.007812 50.863281 5.335938 43.796875 4.46875 36.796875 C 4.132812 33.488281 3.734375 30.183594 3.71875 26.855469 C 3.722656 26.703125 3.71875 26.484375 3.726562 26.253906 C 3.679688 26.207031 3.632812 26.15625 3.585938 26.105469 C 2.53125 25.140625 2.21875 23.511719 1.9375 22.21875 C 1.640625 20.675781 1.546875 19.101562 1.519531 17.527344 C 1.371094 17.429688 1.273438 17.25 1.292969 17.0625 C 1.320312 16.882812 1.398438 16.773438 1.507812 16.710938 C 1.507812 16.53125 1.507812 16.355469 1.503906 16.179688 C 1.929688 13.613281 3.425781 11.113281 4.453125 8.71875 C 5.609375 6.472656 6.605469 4.058594 8.347656 2.1875 C 9.070312 1.371094 10.058594 0.886719 11.15625 0.886719 C 13 0.710938 14.855469 0.628906 16.707031 0.539062 C 24.273438 0.183594 31.847656 0.046875 39.425781 0.113281 C 43.1875 0.125 46.972656 0.230469 50.695312 0.828125 C 53.921875 1.289062 54.875 2.550781 56.0625 5.441406 C 57.3125 8.183594 58.359375 11.007812 59.519531 13.789062 C 60.109375 15.210938 60.625 16.660156 61.222656 18.082031 C 61.289062 18.1875 61.347656 18.300781 61.402344 18.414062 C 61.527344 18.421875 61.65625 18.429688 61.78125 18.4375 C 62.234375 18.722656 62.03125 19.066406 61.671875 19.234375 Z M 47.203125 2.246094 C 47.398438 2.671875 47.59375 3.101562 47.785156 3.53125 C 49.050781 3.695312 50.308594 3.890625 51.5625 4.113281 C 52.269531 4.140625 52.183594 5.207031 51.511719 5.226562 C 50.488281 5.1875 49.464844 5.128906 48.445312 5.050781 C 49.625 7.84375 50.65625 10.695312 51.554688 13.589844 C 51.976562 15.015625 52.410156 16.441406 52.757812 17.890625 C 54.832031 18.007812 56.90625 18.148438 58.976562 18.304688 C 59.335938 18.335938 59.695312 18.355469 60.054688 18.367188 C 58.179688 15.761719 57.015625 12.675781 55.8125 9.71875 C 55.226562 8.167969 54.65625 6.617188 54.085938 5.066406 C 53.75 4.132812 53.324219 3.195312 52.269531 2.933594 C 50.597656 2.585938 48.90625 2.375 47.203125 2.246094 Z M 47.269531 4.953125 C 45.226562 4.777344 43.1875 4.542969 41.144531 4.328125 C 41.613281 5.808594 41.992188 7.269531 42.101562 7.515625 C 43.195312 10.808594 44.167969 14.140625 44.875 17.539062 C 47.167969 17.609375 49.460938 17.710938 51.753906 17.832031 C 50.453125 13.472656 48.691406 9.265625 47.265625 4.953125 Z M 40.328125 2.082031 C 40.433594 2.320312 40.542969 2.589844 40.648438 2.875 C 41.378906 2.917969 42.109375 2.980469 42.839844 3.050781 C 44.152344 3.128906 45.464844 3.25 46.777344 3.40625 C 46.660156 3.03125 46.550781 2.652344 46.441406 2.277344 C 46.4375 2.25 46.433594 2.222656 46.425781 2.195312 C 44.402344 2.074219 42.363281 2.066406 40.328125 2.082031 Z M 35.730469 19.875 C 35.832031 21.199219 36.214844 22.472656 36.613281 23.730469 C 36.800781 24.394531 37.367188 24.832031 37.894531 25.226562 C 39.195312 25.941406 40.839844 26.101562 42.296875 26.015625 C 43.152344 25.828125 43.722656 25.074219 44.238281 24.425781 C 45.199219 23.199219 44.941406 21.722656 44.714844 20.296875 C 44.726562 20.109375 44.667969 19.839844 44.625 19.5625 C 44.492188 19.507812 44.410156 19.394531 44.359375 19.246094 C 41.378906 19.171875 38.40625 19.113281 35.425781 19.035156 C 35.4375 19.203125 35.449219 19.367188 35.460938 19.53125 C 35.601562 19.589844 35.710938 19.707031 35.730469 19.878906 Z M 39.988281 4.207031 C 38.023438 4.007812 36.0625 3.839844 34.097656 3.753906 C 34.804688 6.835938 34.859375 10.039062 35.0625 13.1875 C 35.125 14.582031 35.214844 15.980469 35.3125 17.375 C 38.1875 17.414062 41.0625 17.449219 43.941406 17.511719 C 43.707031 16.613281 43.460938 15.714844 43.210938 14.816406 C 42.1875 11.269531 41.042969 7.742188 39.988281 4.207031 Z M 33.707031 2.296875 C 33.757812 2.457031 33.804688 2.625 33.851562 2.785156 C 35.757812 2.714844 37.667969 2.722656 39.578125 2.8125 C 39.507812 2.570312 39.4375 2.332031 39.367188 2.089844 C 37.480469 2.109375 35.59375 2.144531 33.71875 2.121094 C 33.726562 2.175781 33.722656 2.238281 33.707031 2.296875 Z M 25.652344 2.175781 C 25.550781 3.335938 25.355469 4.476562 25.304688 5.648438 C 25.136719 8.378906 25.179688 11.113281 25.261719 13.847656 C 25.222656 14.21875 25.367188 15.902344 25.285156 17.183594 C 28.277344 17.269531 31.257812 17.316406 34.238281 17.359375 C 33.9375 13.585938 33.75 9.75 33.230469 6.027344 C 33.230469 6.011719 33.230469 6 33.226562 5.984375 C 33.230469 5.996094 33.230469 6.007812 33.230469 6.019531 C 33.246094 5.613281 33.011719 4.632812 32.886719 3.714844 C 32.222656 3.699219 31.558594 3.695312 30.898438 3.703125 C 30.421875 3.699219 30.421875 2.957031 30.910156 2.957031 C 31.542969 2.90625 32.171875 2.867188 32.808594 2.835938 C 32.800781 2.550781 32.820312 2.304688 32.886719 2.117188 C 30.476562 2.117188 28.0625 2.136719 25.652344 2.175781 Z M 16.867188 2.382812 C 15.984375 6.9375 14.699219 11.40625 14.246094 16.160156 C 14.207031 16.464844 14.183594 16.769531 14.175781 17.074219 C 17.457031 17.125 20.742188 17.136719 24.03125 17.160156 C 23.839844 15.339844 23.835938 13.5 23.839844 11.667969 C 24.011719 8.507812 24.167969 5.292969 24.796875 2.191406 C 22.15625 2.234375 19.511719 2.300781 16.867188 2.382812 Z M 16.082031 25.113281 C 18.21875 26.355469 21.257812 25.445312 22.410156 23.28125 C 23.085938 22.265625 23.617188 21.332031 23.984375 20.21875 C 23.96875 19.71875 23.972656 19.21875 23.992188 18.722656 C 20.722656 18.664062 17.457031 18.597656 14.199219 18.464844 C 14.210938 18.710938 14.230469 18.953125 14.25 19.195312 C 14.335938 19.261719 14.414062 19.351562 14.464844 19.472656 C 15.105469 21.277344 14.59375 23.714844 16.082031 25.113281 Z M 3.09375 16.695312 C 6.453125 16.894531 9.800781 16.996094 13.152344 17.058594 C 13.214844 13.351562 14.371094 7.425781 14.699219 6.210938 C 14.785156 5.816406 15.339844 3.726562 15.949219 2.414062 L 14.496094 2.464844 C 13.320312 2.511719 12.144531 2.527344 10.972656 2.574219 C 10.859375 2.578125 10.742188 2.589844 10.632812 2.617188 C 10.441406 2.660156 10.265625 2.742188 10.121094 2.878906 C 7.585938 5.609375 6.578125 9.339844 4.792969 12.542969 C 4.265625 13.703125 3.492188 14.761719 3.0625 15.957031 C 3.074219 16.203125 3.082031 16.449219 3.09375 16.695312 Z M 51.417969 63.894531 C 42.375 63.738281 33.363281 62.925781 24.335938 62.378906 C 24.265625 62.417969 24.179688 62.449219 24.078125 62.460938 C 23.925781 62.457031 23.804688 62.414062 23.707031 62.339844 C 20.59375 62.152344 17.476562 62 14.351562 61.921875 C 11.90625 61.824219 9.460938 61.691406 7.019531 61.589844 C 6.976562 61.808594 6.859375 61.988281 6.582031 62.066406 C 6.296875 62.125 5.964844 61.933594 5.925781 61.628906 L 5.917969 61.570312 C 5.371094 61.550781 4.816406 61.546875 4.476562 61.929688 C 3.71875 63.5625 3.3125 65.285156 2.902344 67.011719 C 4.046875 67.027344 5.207031 67.203125 6.359375 67.136719 C 7.027344 67.144531 7.695312 67.160156 8.363281 67.179688 C 8.503906 67.183594 8.625 67.289062 8.625 67.433594 C 8.625 67.554688 8.539062 67.664062 8.425781 67.6875 C 8.40625 67.691406 8.390625 67.695312 8.371094 67.695312 C 6.496094 67.679688 4.613281 67.8125 2.742188 67.691406 C 2.691406 67.898438 2.644531 68.105469 2.589844 68.3125 C 3.300781 69.492188 5.160156 69.320312 6.394531 69.457031 C 12.355469 69.535156 18.316406 69.179688 24.277344 69.25 C 30.835938 69.421875 37.386719 69.785156 43.949219 69.820312 C 49.070312 69.863281 54.191406 69.789062 59.292969 70.117188 C 59.269531 69.855469 59.273438 69.566406 59.285156 69.277344 C 54.507812 69.507812 49.71875 68.824219 44.945312 68.652344 C 37.363281 68.363281 29.78125 68.003906 22.207031 67.699219 C 22.09375 67.695312 22.007812 67.578125 22.023438 67.472656 C 22.058594 67.222656 22.367188 67.296875 22.53125 67.300781 C 29.632812 67.441406 36.734375 67.640625 43.839844 67.71875 C 48.667969 67.808594 53.421875 68.363281 58.234375 68.597656 C 58.597656 68.621094 58.960938 68.640625 59.324219 68.664062 C 59.355469 68.210938 59.394531 67.800781 59.371094 67.558594 C 59.417969 66.523438 59.535156 65.492188 59.546875 64.457031 C 59.507812 64.363281 59.511719 64.261719 59.542969 64.167969 C 59.542969 64.121094 59.539062 64.078125 59.539062 64.03125 C 59.539062 63.988281 59.546875 63.957031 59.546875 63.917969 C 57.421875 64.261719 51.898438 63.824219 51.417969 63.894531 Z M 48.125 55.414062 C 47.613281 50.539062 47.382812 45.597656 47.511719 40.707031 C 47.558594 39.113281 47.710938 37.523438 47.847656 35.9375 C 47.832031 35.066406 48.394531 33.652344 47.339844 33.234375 C 45.289062 32.589844 43.164062 32.433594 41.019531 32.4375 C 41.183594 36.914062 40.636719 41.546875 40.5625 45.976562 C 40.566406 50.796875 40.484375 55.613281 40.441406 60.433594 C 40.386719 60.734375 40.453125 61.160156 40.480469 61.5625 C 43.394531 61.777344 46.3125 61.992188 49.230469 62.195312 C 48.433594 60.078125 48.464844 57.644531 48.125 55.414062 Z M 40.328125 32.445312 C 38.421875 32.472656 36.503906 32.609375 34.625 32.609375 C 31.003906 32.679688 27.378906 32.898438 23.761719 33.0625 C 23.621094 40.613281 24.378906 48.144531 24.484375 55.695312 C 24.496094 57.078125 24.535156 58.457031 24.609375 59.839844 C 24.589844 60.011719 24.605469 60.238281 24.628906 60.488281 C 29.492188 60.757812 34.347656 61.109375 39.203125 61.46875 C 39.171875 60.570312 39.144531 59.671875 39.128906 58.773438 C 38.953125 53.914062 38.855469 49.050781 39.066406 44.191406 C 39.304688 40.265625 39.660156 36.320312 40.328125 32.445312 Z M 22.730469 33.105469 C 19.902344 33.222656 17.074219 33.292969 14.242188 33.21875 C 13.667969 35.40625 14.359375 37.757812 14.46875 39.980469 C 14.75 42.457031 15.0625 44.902344 15.199219 47.386719 C 15.449219 51.015625 15.277344 54.65625 15.378906 58.289062 C 15.371094 58.890625 15.382812 59.492188 15.40625 60.097656 C 18.058594 60.167969 20.710938 60.28125 23.359375 60.417969 C 23.355469 60.269531 23.347656 60.136719 23.328125 60.027344 C 23.214844 56.59375 22.832031 53.171875 22.574219 49.746094 C 22.222656 45.550781 22.023438 41.324219 22.246094 37.117188 C 22.355469 35.777344 22.488281 34.429688 22.726562 33.105469 Z M 59.183594 25.601562 C 58.570312 25.980469 57.867188 26.167969 57.09375 26.0625 C 55.492188 25.921875 54.167969 24.839844 53.453125 23.441406 C 53.0625 25.675781 51.558594 27.511719 49.113281 26.769531 C 47.859375 26.304688 46.410156 25.828125 45.617188 24.6875 C 44.5 26.753906 42.824219 27.792969 40.460938 27.300781 C 37.8125 27.140625 35.355469 25.847656 35.226562 22.929688 C 34.628906 24.527344 33.601562 26.207031 31.699219 26.238281 C 29.019531 26.289062 24.988281 26.050781 24.25 22.886719 C 23.414062 24.378906 22.441406 26.066406 20.714844 26.617188 C 18.246094 27.578125 14.375 27.308594 13.757812 24.195312 C 13.035156 26.066406 11.554688 28.0625 9.441406 28.355469 C 7.910156 28.449219 6.34375 28.085938 5.042969 27.296875 C 5.046875 27.332031 5.054688 27.363281 5.0625 27.394531 C 5.367188 29.464844 5.644531 31.539062 5.933594 33.609375 C 6.863281 39.394531 6.765625 45.421875 6.6875 51.210938 C 6.683594 54.074219 6.816406 56.933594 6.941406 59.792969 C 9.402344 59.824219 11.859375 59.941406 14.316406 60.050781 C 14.308594 59.941406 14.296875 59.84375 14.28125 59.757812 C 14.125 58.035156 14.078125 56.304688 13.949219 54.578125 C 13.523438 49.175781 12.980469 43.785156 12.453125 38.398438 C 12.421875 36.476562 11.441406 32.28125 13.863281 31.726562 C 14.066406 31.679688 14.292969 31.660156 14.546875 31.667969 C 17.582031 31.523438 20.632812 31.515625 23.664062 31.285156 C 27.4375 31.03125 31.207031 30.808594 34.988281 30.726562 C 39.433594 30.769531 44.347656 29.972656 48.398438 32.1875 C 49.292969 32.761719 49.371094 33.917969 49.296875 34.875 C 49.277344 37.273438 49.296875 39.675781 49.332031 42.078125 C 49.433594 47.085938 49.617188 52.085938 49.871094 57.085938 C 49.777344 57.660156 50.214844 60.894531 49.988281 62.242188 C 50.441406 62.273438 50.894531 62.304688 51.34375 62.335938 C 52.945312 62.480469 54.550781 62.621094 56.15625 62.777344 C 54.570312 59.390625 57.839844 40.882812 57.964844 37.675781 C 58.402344 33.574219 58.726562 29.621094 59.183594 25.601562 Z M 60.546875 19.410156 C 58.175781 19.628906 55.773438 19.585938 53.382812 19.515625 C 53.648438 19.746094 53.660156 20.210938 53.800781 20.523438 C 54.246094 22.511719 55.488281 24.839844 57.84375 24.523438 C 59.738281 23.632812 60.4375 21.386719 60.546875 19.410156 Z M 60.546875 19.410156 " fill-opacity="1" fill-rule="nonzero"/></g><g clip-path="url(#6e5ed4b1f9)"><path fill="#000000" d="M 37.382812 47.09375 C 37.320312 47.796875 37.722656 49.113281 36.8125 49.324219 C 36.785156 49.328125 36.753906 49.335938 36.726562 49.339844 C 36.355469 49.355469 36.027344 49.058594 36.015625 48.6875 C 36 47.671875 35.933594 46.566406 36.34375 45.617188 C 37.210938 44.855469 37.355469 46.539062 37.382812 47.09375 Z M 29.007812 3.96875 C 29.214844 3.917969 29.417969 3.769531 29.484375 3.585938 C 29.605469 3.011719 28.316406 3.117188 28.503906 3.703125 C 28.574219 3.953125 28.792969 4.015625 29.007812 3.96875 Z M 31.09375 46.183594 C 29.953125 47.773438 28.894531 49.328125 27.820312 50.988281 C 27.714844 51.140625 27.789062 51.363281 27.941406 51.453125 C 28.015625 51.496094 28.109375 51.507812 28.191406 51.488281 C 28.265625 51.472656 28.335938 51.429688 28.382812 51.367188 C 28.980469 50.5625 29.589844 49.765625 30.1875 48.964844 C 32.105469 46.46875 33.8125 43.835938 35.597656 41.25 C 35.53125 39.316406 31.488281 45.792969 31.09375 46.183594 Z M 31.492188 42.730469 C 31.589844 42.707031 31.675781 42.65625 31.738281 42.574219 C 32.148438 42.011719 32.542969 41.445312 32.9375 40.875 C 33.289062 40.273438 33.867188 39.75 34.015625 39.058594 C 34.039062 38.429688 33.035156 38.445312 33.074219 39.074219 C 32.332031 40.039062 31.636719 41.039062 31.007812 42.078125 C 30.882812 42.285156 30.960938 42.566406 31.164062 42.683594 C 31.265625 42.742188 31.382812 42.753906 31.492188 42.730469 Z M 19.089844 35.070312 C 19.105469 35.070312 19.125 35.066406 19.140625 35.0625 C 19.328125 35.019531 19.480469 34.859375 19.503906 34.667969 C 19.472656 33.683594 17.871094 34.0625 17.238281 34.164062 C 16.96875 34.214844 16.789062 34.503906 16.820312 34.769531 C 16.988281 35.65625 18.460938 35.15625 19.089844 35.070312 Z M 45.734375 35.035156 C 45.949219 34.984375 46.132812 34.828125 46.121094 34.570312 C 46.03125 34.011719 45.101562 33.945312 45.078125 34.582031 C 45.066406 34.960938 45.433594 35.101562 45.734375 35.035156 Z M 62.035156 19.234375 C 62.164062 19.8125 62.175781 20.417969 62.132812 21.019531 C 62.046875 22.050781 61.640625 23.226562 60.984375 24.183594 C 61.003906 24.484375 60.949219 24.828125 60.933594 25.085938 C 60.859375 26.003906 60.816406 26.929688 60.757812 27.851562 C 60.308594 39.496094 58.050781 50.996094 57.367188 62.605469 C 57.464844 62.683594 57.503906 62.777344 57.5 62.871094 C 58.386719 62.960938 59.273438 63.058594 60.152344 63.164062 C 60.429688 62.914062 60.851562 63.082031 61.050781 63.796875 C 61.191406 64.636719 61.183594 65.484375 61.144531 66.335938 C 61.160156 66.792969 61.164062 67.183594 61.1875 67.371094 C 61.207031 68.441406 61.21875 69.519531 61.101562 70.582031 C 61.078125 70.765625 60.988281 70.929688 60.855469 71.042969 C 60.796875 71.152344 60.691406 71.238281 60.546875 71.277344 C 60.496094 71.289062 60.445312 71.304688 60.394531 71.3125 C 60.078125 71.386719 59.757812 71.410156 59.433594 71.441406 C 49.421875 71.972656 39.332031 71.492188 29.320312 71.246094 C 25.558594 71.082031 21.867188 71.15625 18.117188 71.292969 C 15.183594 71.417969 12.25 71.46875 9.316406 71.507812 C 6.714844 71.429688 3.59375 71.894531 1.570312 69.914062 C 0.351562 68.683594 1.222656 66.847656 1.429688 65.378906 C 1.835938 63.726562 2.191406 61.9375 3.234375 60.5625 C 3.945312 59.660156 5.058594 59.671875 6.109375 59.738281 C 6.058594 59.121094 6.011719 58.5 5.957031 57.882812 C 5.371094 50.863281 5.699219 43.796875 4.832031 36.796875 C 4.496094 33.488281 4.097656 30.183594 4.082031 26.855469 C 4.085938 26.703125 4.082031 26.484375 4.089844 26.253906 C 4.042969 26.207031 3.996094 26.15625 3.949219 26.105469 C 2.894531 25.140625 2.578125 23.511719 2.300781 22.21875 C 2.003906 20.675781 1.910156 19.101562 1.882812 17.527344 C 1.730469 17.429688 1.636719 17.25 1.65625 17.0625 C 1.683594 16.882812 1.761719 16.773438 1.871094 16.710938 C 1.871094 16.53125 1.871094 16.355469 1.867188 16.179688 C 2.292969 13.613281 3.789062 11.113281 4.816406 8.71875 C 5.972656 6.472656 6.96875 4.058594 8.710938 2.1875 C 9.429688 1.371094 10.421875 0.886719 11.519531 0.886719 C 13.363281 0.710938 15.21875 0.628906 17.070312 0.539062 C 24.636719 0.183594 32.210938 0.046875 39.785156 0.113281 C 43.546875 0.125 47.335938 0.230469 51.058594 0.828125 C 54.28125 1.289062 55.238281 2.550781 56.425781 5.441406 C 57.675781 8.183594 58.722656 11.007812 59.878906 13.789062 C 60.472656 15.210938 60.988281 16.660156 61.585938 18.082031 C 61.652344 18.1875 61.710938 18.300781 61.765625 18.414062 C 61.890625 18.421875 62.019531 18.429688 62.144531 18.4375 C 62.597656 18.722656 62.394531 19.066406 62.035156 19.234375 Z M 47.566406 2.246094 C 47.761719 2.671875 47.957031 3.101562 48.148438 3.53125 C 49.414062 3.695312 50.671875 3.890625 51.925781 4.113281 C 52.632812 4.140625 52.546875 5.207031 51.875 5.226562 C 50.851562 5.1875 49.828125 5.128906 48.808594 5.050781 C 49.988281 7.84375 51.019531 10.695312 51.917969 13.589844 C 52.339844 15.015625 52.773438 16.441406 53.121094 17.890625 C 55.195312 18.007812 57.269531 18.148438 59.339844 18.304688 C 59.699219 18.335938 60.058594 18.355469 60.417969 18.367188 C 58.542969 15.761719 57.378906 12.675781 56.175781 9.71875 C 55.589844 8.167969 55.019531 6.617188 54.445312 5.066406 C 54.113281 4.132812 53.6875 3.195312 52.632812 2.933594 C 50.960938 2.585938 49.269531 2.375 47.566406 2.246094 Z M 47.628906 4.953125 C 45.589844 4.777344 43.546875 4.542969 41.507812 4.328125 C 41.976562 5.808594 42.351562 7.269531 42.464844 7.515625 C 43.558594 10.808594 44.53125 14.140625 45.238281 17.539062 C 47.53125 17.609375 49.824219 17.710938 52.117188 17.832031 C 50.816406 13.472656 49.054688 9.265625 47.628906 4.953125 Z M 40.691406 2.082031 C 40.796875 2.320312 40.90625 2.589844 41.011719 2.875 C 41.742188 2.917969 42.472656 2.980469 43.203125 3.050781 C 44.515625 3.128906 45.828125 3.25 47.140625 3.40625 C 47.023438 3.03125 46.914062 2.652344 46.804688 2.277344 C 46.800781 2.25 46.796875 2.222656 46.789062 2.195312 C 44.765625 2.074219 42.726562 2.066406 40.691406 2.082031 Z M 36.09375 19.875 C 36.191406 21.199219 36.574219 22.472656 36.976562 23.730469 C 37.164062 24.394531 37.730469 24.832031 38.257812 25.226562 C 39.558594 25.941406 41.203125 26.101562 42.660156 26.015625 C 43.515625 25.828125 44.085938 25.074219 44.601562 24.425781 C 45.558594 23.199219 45.304688 21.722656 45.078125 20.296875 C 45.089844 20.109375 45.027344 19.839844 44.984375 19.5625 C 44.855469 19.507812 44.773438 19.394531 44.722656 19.246094 C 41.742188 19.171875 38.769531 19.113281 35.789062 19.035156 C 35.800781 19.203125 35.8125 19.367188 35.824219 19.53125 C 35.964844 19.589844 36.074219 19.707031 36.09375 19.878906 Z M 40.351562 4.207031 C 38.386719 4.007812 36.425781 3.839844 34.460938 3.753906 C 35.167969 6.835938 35.222656 10.039062 35.425781 13.1875 C 35.488281 14.582031 35.578125 15.980469 35.675781 17.375 C 38.550781 17.414062 41.425781 17.449219 44.304688 17.511719 C 44.070312 16.613281 43.824219 15.714844 43.574219 14.816406 C 42.550781 11.269531 41.40625 7.742188 40.351562 4.207031 Z M 34.070312 2.296875 C 34.121094 2.457031 34.167969 2.625 34.214844 2.785156 C 36.121094 2.714844 38.03125 2.722656 39.941406 2.8125 C 39.867188 2.570312 39.796875 2.332031 39.730469 2.089844 C 37.84375 2.109375 35.957031 2.144531 34.082031 2.121094 C 34.089844 2.175781 34.085938 2.238281 34.070312 2.296875 Z M 26.015625 2.175781 C 25.914062 3.335938 25.71875 4.476562 25.667969 5.648438 C 25.5 8.378906 25.542969 11.113281 25.625 13.847656 C 25.585938 14.21875 25.730469 15.902344 25.648438 17.183594 C 28.640625 17.269531 31.621094 17.316406 34.597656 17.359375 C 34.300781 13.585938 34.113281 9.75 33.59375 6.027344 C 33.59375 6.011719 33.59375 6 33.589844 5.984375 C 33.59375 5.996094 33.59375 6.007812 33.59375 6.019531 C 33.609375 5.613281 33.375 4.632812 33.25 3.714844 C 32.585938 3.699219 31.921875 3.695312 31.261719 3.703125 C 30.785156 3.699219 30.785156 2.957031 31.273438 2.957031 C 31.90625 2.90625 32.535156 2.867188 33.167969 2.835938 C 33.160156 2.550781 33.183594 2.304688 33.25 2.117188 C 30.839844 2.117188 28.425781 2.136719 26.015625 2.175781 Z M 17.230469 2.382812 C 16.347656 6.9375 15.0625 11.40625 14.609375 16.160156 C 14.570312 16.464844 14.546875 16.769531 14.539062 17.074219 C 17.820312 17.125 21.105469 17.136719 24.394531 17.160156 C 24.203125 15.339844 24.199219 13.5 24.203125 11.667969 C 24.371094 8.507812 24.53125 5.292969 25.160156 2.191406 C 22.515625 2.234375 19.875 2.300781 17.230469 2.382812 Z M 16.445312 25.113281 C 18.582031 26.355469 21.621094 25.445312 22.773438 23.28125 C 23.449219 22.265625 23.980469 21.332031 24.347656 20.21875 C 24.332031 19.71875 24.335938 19.21875 24.355469 18.722656 C 21.085938 18.664062 17.820312 18.597656 14.5625 18.464844 C 14.574219 18.710938 14.59375 18.953125 14.613281 19.195312 C 14.699219 19.261719 14.777344 19.351562 14.828125 19.472656 C 15.46875 21.277344 14.957031 23.714844 16.445312 25.113281 Z M 3.457031 16.695312 C 6.816406 16.894531 10.164062 16.996094 13.515625 17.058594 C 13.578125 13.351562 14.730469 7.425781 15.0625 6.210938 C 15.148438 5.816406 15.703125 3.726562 16.3125 2.414062 L 14.859375 2.464844 C 13.683594 2.511719 12.507812 2.527344 11.335938 2.574219 C 11.21875 2.578125 11.105469 2.589844 10.996094 2.617188 C 10.804688 2.660156 10.628906 2.742188 10.484375 2.878906 C 7.949219 5.609375 6.941406 9.339844 5.15625 12.542969 C 4.628906 13.703125 3.855469 14.761719 3.425781 15.957031 C 3.433594 16.203125 3.445312 16.449219 3.457031 16.695312 Z M 51.78125 63.894531 C 42.738281 63.738281 33.726562 62.925781 24.699219 62.378906 C 24.628906 62.417969 24.542969 62.449219 24.441406 62.460938 C 24.289062 62.457031 24.164062 62.414062 24.070312 62.339844 C 20.957031 62.152344 17.835938 62 14.714844 61.921875 C 12.269531 61.824219 9.824219 61.691406 7.382812 61.589844 C 7.339844 61.808594 7.222656 61.988281 6.945312 62.066406 C 6.660156 62.125 6.328125 61.933594 6.285156 61.628906 L 6.28125 61.570312 C 5.734375 61.550781 5.179688 61.546875 4.839844 61.929688 C 4.082031 63.5625 3.671875 65.285156 3.265625 67.011719 C 4.410156 67.027344 5.570312 67.203125 6.722656 67.136719 C 7.390625 67.144531 8.058594 67.160156 8.726562 67.179688 C 8.863281 67.183594 8.984375 67.289062 8.988281 67.433594 C 8.988281 67.554688 8.902344 67.664062 8.789062 67.6875 C 8.769531 67.691406 8.753906 67.695312 8.734375 67.695312 C 6.859375 67.679688 4.972656 67.8125 3.105469 67.691406 C 3.054688 67.898438 3.003906 68.105469 2.953125 68.3125 C 3.664062 69.492188 5.523438 69.320312 6.757812 69.457031 C 12.71875 69.535156 18.679688 69.179688 24.640625 69.25 C 31.199219 69.421875 37.75 69.785156 44.3125 69.820312 C 49.433594 69.863281 54.554688 69.789062 59.65625 70.117188 C 59.632812 69.855469 59.636719 69.566406 59.648438 69.277344 C 54.871094 69.507812 50.078125 68.824219 45.308594 68.652344 C 37.726562 68.363281 30.144531 68.003906 22.570312 67.699219 C 22.457031 67.695312 22.371094 67.578125 22.386719 67.472656 C 22.421875 67.222656 22.730469 67.296875 22.894531 67.300781 C 29.996094 67.441406 37.097656 67.640625 44.203125 67.71875 C 49.03125 67.808594 53.785156 68.363281 58.597656 68.597656 C 58.960938 68.621094 59.324219 68.640625 59.683594 68.664062 C 59.71875 68.210938 59.757812 67.800781 59.734375 67.558594 C 59.78125 66.523438 59.898438 65.492188 59.910156 64.457031 C 59.871094 64.363281 59.875 64.261719 59.90625 64.167969 C 59.90625 64.121094 59.902344 64.078125 59.902344 64.03125 C 59.902344 63.988281 59.910156 63.957031 59.910156 63.917969 C 57.785156 64.261719 52.261719 63.824219 51.78125 63.894531 Z M 48.488281 55.414062 C 47.976562 50.539062 47.746094 45.597656 47.875 40.707031 C 47.921875 39.113281 48.074219 37.523438 48.207031 35.9375 C 48.195312 35.066406 48.757812 33.652344 47.699219 33.234375 C 45.652344 32.589844 43.527344 32.433594 41.382812 32.4375 C 41.546875 36.914062 41 41.546875 40.925781 45.976562 C 40.929688 50.796875 40.847656 55.613281 40.804688 60.433594 C 40.75 60.734375 40.816406 61.160156 40.84375 61.5625 C 43.757812 61.777344 46.675781 61.992188 49.59375 62.195312 C 48.796875 60.078125 48.828125 57.644531 48.488281 55.414062 Z M 40.691406 32.445312 C 38.785156 32.472656 36.867188 32.609375 34.988281 32.609375 C 31.367188 32.679688 27.742188 32.898438 24.121094 33.0625 C 23.984375 40.613281 24.742188 48.144531 24.847656 55.695312 C 24.859375 57.078125 24.898438 58.457031 24.972656 59.839844 C 24.953125 60.011719 24.96875 60.238281 24.992188 60.488281 C 29.855469 60.757812 34.707031 61.109375 39.566406 61.46875 C 39.535156 60.570312 39.507812 59.671875 39.492188 58.773438 C 39.316406 53.914062 39.21875 49.050781 39.429688 44.191406 C 39.667969 40.265625 40.023438 36.320312 40.691406 32.445312 Z M 23.089844 33.105469 C 20.265625 33.222656 17.4375 33.292969 14.605469 33.21875 C 14.03125 35.40625 14.722656 37.757812 14.832031 39.980469 C 15.113281 42.457031 15.425781 44.902344 15.558594 47.386719 C 15.8125 51.015625 15.640625 54.65625 15.742188 58.289062 C 15.734375 58.890625 15.746094 59.492188 15.765625 60.097656 C 18.421875 60.167969 21.074219 60.28125 23.722656 60.417969 C 23.71875 60.269531 23.710938 60.136719 23.691406 60.027344 C 23.578125 56.59375 23.195312 53.171875 22.9375 49.746094 C 22.585938 45.550781 22.386719 41.324219 22.609375 37.117188 C 22.71875 35.777344 22.851562 34.429688 23.089844 33.105469 Z M 59.546875 25.601562 C 58.933594 25.980469 58.230469 26.167969 57.457031 26.0625 C 55.855469 25.921875 54.53125 24.839844 53.816406 23.441406 C 53.421875 25.675781 51.921875 27.511719 49.476562 26.769531 C 48.222656 26.304688 46.773438 25.828125 45.980469 24.6875 C 44.863281 26.753906 43.1875 27.792969 40.824219 27.300781 C 38.175781 27.140625 35.71875 25.847656 35.585938 22.929688 C 34.992188 24.527344 33.964844 26.207031 32.0625 26.238281 C 29.382812 26.289062 25.351562 26.050781 24.609375 22.886719 C 23.777344 24.378906 22.804688 26.066406 21.074219 26.617188 C 18.609375 27.578125 14.738281 27.308594 14.121094 24.195312 C 13.398438 26.066406 11.917969 28.0625 9.804688 28.355469 C 8.273438 28.449219 6.707031 28.085938 5.402344 27.296875 C 5.410156 27.332031 5.417969 27.363281 5.425781 27.394531 C 5.730469 29.464844 6.003906 31.539062 6.296875 33.609375 C 7.226562 39.394531 7.128906 45.421875 7.050781 51.210938 C 7.046875 54.074219 7.179688 56.933594 7.304688 59.792969 C 9.765625 59.824219 12.222656 59.941406 14.679688 60.050781 C 14.671875 59.941406 14.660156 59.84375 14.640625 59.757812 C 14.488281 58.035156 14.441406 56.304688 14.3125 54.578125 C 13.886719 49.175781 13.34375 43.785156 12.816406 38.398438 C 12.785156 36.476562 11.804688 32.28125 14.226562 31.726562 C 14.429688 31.679688 14.65625 31.660156 14.90625 31.667969 C 17.945312 31.523438 20.996094 31.515625 24.027344 31.285156 C 27.800781 31.03125 31.570312 30.808594 35.351562 30.726562 C 39.792969 30.769531 44.710938 29.972656 48.761719 32.1875 C 49.65625 32.761719 49.734375 33.917969 49.660156 34.875 C 49.640625 37.273438 49.660156 39.675781 49.695312 42.078125 C 49.796875 47.085938 49.980469 52.085938 50.234375 57.085938 C 50.140625 57.660156 50.578125 60.894531 50.351562 62.242188 C 50.804688 62.273438 51.257812 62.304688 51.707031 62.335938 C 53.308594 62.480469 54.914062 62.621094 56.519531 62.777344 C 54.933594 59.390625 58.203125 40.882812 58.328125 37.675781 C 58.761719 33.574219 59.089844 29.621094 59.546875 25.601562 Z M 60.910156 19.410156 C 58.539062 19.628906 56.136719 19.585938 53.746094 19.515625 C 54.011719 19.746094 54.023438 20.210938 54.164062 20.523438 C 54.609375 22.511719 55.851562 24.839844 58.207031 24.523438 C 60.101562 23.632812 60.800781 21.386719 60.910156 19.410156 Z M 60.910156 19.410156 " fill-opacity="1" fill-rule="nonzero"/></g></svg>